<svg class="main-svg" xmlns="http://www.w3.org/2000/svg" xmlns:xlink="http://www.w3.org/1999/xlink" width="450" height="275" style="" viewBox="0 0 450 275"><rect x="0" y="0" width="450" height="275" style="fill: rgb(255, 255, 255); fill-opacity: 1;"/><defs id="defs-39b637"><g class="clips"><clipPath id="clip39b637xyplot" class="plotclip"><rect width="241" height="222"/></clipPath><clipPath class="axesclip" id="clip39b637x"><rect x="72" y="0" width="241" height="275"/></clipPath><clipPath class="axesclip" id="clip39b637y"><rect x="0" y="0" width="450" height="222"/></clipPath><clipPath class="axesclip" id="clip39b637xy"><rect x="72" y="0" width="241" height="222"/></clipPath></g><g class="gradients"/><g class="patterns"/></defs><g class="bglayer"/><g class="layer-below"><g class="imagelayer"/><g class="shapelayer"/></g><g class="cartesianlayer"><g class="subplot xy"><g class="layer-subplot"><g class="shapelayer"/><g class="imagelayer"/></g><g class="minor-gridlayer"><g class="x"/><g class="y"/></g><g class="gridlayer"><g class="x"/><g class="y"/></g><g class="zerolinelayer"/><path class="xlines-below"/><path class="ylines-below"/><g class="overlines-below"/><g class="xaxislayer-below"/><g class="yaxislayer-below"/><g class="overaxes-below"/><g class="plot" transform="translate(72,0)" clip-path="url(#clip39b637xyplot)"><g class="scatterlayer mlayer"><g class="trace scatter trace0dde6b" style="stroke-miterlimit: 2; opacity: 1;"><g class="fills"/><g class="errorbars"/><g class="lines"><path class="js-line" d="M10.58,206.03L10.75,208.83L11.28,208.34L11.47,207.89L12.59,206.54L12.93,206.83L13.89,207.9L14.11,207.64L14.32,206.61L14.46,210.9L14.91,209.27L15.27,209.78L15.6,210.29L15.81,209.65L16.03,209.45L16.44,208.57L16.74,208.81L17.03,208.93L18.06,209.25L18.26,208.58L18.86,204.62L18.96,203.55L19.89,200.73L19.95,201.28L20.25,201.12L20.98,206.11L21.19,205.28L21.27,204.35L22.05,197.41L22.38,198.19L22.48,197.76L22.58,197.95L23.01,194.03L23.05,193.37L23.33,193.87L23.65,192.03L23.79,193.34L23.82,193.66L24.21,195.4L24.69,194.63L24.73,194.16L24.92,193.81L25.33,194.37L25.37,194.94L25.69,203.14L26.1,202.52L26.3,201.1L28.25,187.98L28.54,190.7L28.58,191.19L29.57,195.55L29.84,196.17L31.04,201.9L31.3,200.72L31.34,200.74L32.92,188.99L33.25,189.31L33.44,189.44L34.23,189.37L34.44,188.63L35.21,183.32L35.28,182.68L36.66,179.16L36.85,178.95L37.9,187.36L38.15,184.9L38.2,184.27L38.4,184.51L38.93,179.32L39.16,181.08L39.19,181.12L39.4,184.29L39.43,185.58L40.51,198.64L40.54,198.8L40.57,199L40.99,197.6L41.16,197.09L44.08,188.79L44.35,188.58L45.47,185.27L45.51,184.97L46.95,203.79L47.15,202.71L47.34,201.62L51.08,184.85L51.28,185.11L51.54,184.34L53.14,174.86L53.19,174.77L54.61,170.8L54.67,169.85L56.02,161.05L56.18,160.65L56.65,159.75L56.92,158.94L56.94,159.51L57.4,158.17L57.66,157.94L58.26,157.03L58.26,156.42L58.89,150.93L59.16,150.15L60.39,146.5L60.46,146.73L60.51,146.86L62.22,159.3L62.43,159.47L63.18,160.16L63.57,159.56L63.76,159.4L65.05,158.99L65.05,159.29L66.75,157.75L66.83,157.34L68.43,147.48L68.47,146.82L68.56,145.06L69.22,145.32L69.47,145.3L69.92,145.48L70.12,145.18L70.32,144.88L71.63,138.04L71.81,139.75L71.98,140.5L73.65,149.46L73.69,149.94L75.03,162.99L75.24,163.15L76.05,162.07L76.28,161.41L77.55,153.56L77.59,152.92L77.68,151.66L78.2,152.48L78.42,152.3L79.28,151.93L79.32,152.49L79.75,154.08L80.12,153.34L80.19,153.16L80.45,152.22L80.51,151.81L80.56,152.04L80.68,149.24L80.8,149.67L80.85,149.61L81.11,148.16L81.18,147.24L82.29,143.52L82.34,143.56L82.83,141.44L83.23,142.56L83.28,142.73L83.88,142.64L84.17,144.6L84.25,144.54L87.23,137.18L87.44,136.47L89.87,133.24L89.94,133.73L91,130.95L91.2,129.57L94.69,113.11L94.89,112.37L95.77,109.13L95.98,110.1L96.18,109.64L96.38,108.94L96.42,110.24L96.63,110.21L96.83,110.18L96.88,111.14L97.47,109.9L97.68,109.3L98.07,110.58L98.28,109.84L98.48,109.11L100.33,102.76L100.4,102.93L100.61,102.75L100.94,105.58L100.97,106.24L103.19,151.12L103.42,151.76L104.14,154.35L104.39,154.51L105.34,157.86L105.39,158.94L105.48,158.82L105.48,159.5L105.48,160.79L106.16,165.97L106.41,165.5L106.52,165.27L106.74,164.69L106.82,166.25L106.93,165.02L106.97,166.15L107.48,167.96L107.68,166.83L107.72,166.35L108.76,170.3L108.99,169.85L109.19,170.45L110.16,177.37L110.16,176.84L110.39,176.47L112.11,173.79L112.33,173.81L112.86,174.75L113.04,172.95L113.26,172.95L114.21,173L114.21,172.86L114.95,177.6L115.01,177.62L115.23,177.22L115.28,178.03L115.28,178.89L115.67,177.95L115.74,177.66L115.81,177.83L116.01,176.73L116.06,176.09L117.84,164.23L118.01,163.07L120.36,147.53L120.56,146.43L123.94,129.73L124.14,129.07L126.47,115.37L126.55,114.29L127.41,110.9L127.61,110.37L129.48,106.11L129.57,106.89L129.6,107.41L129.76,107.31L129.81,108.49L130.36,104.23L130.86,104.79L131,104.99L132.11,103.95L132.15,103.99L132.23,104.23L132.58,104.82L132.86,104.58L133.16,104.49L133.16,104.03L133.76,104.46L134.02,104.27L135.05,104.51L135.05,103.9L135.72,102.61L136.02,102.75L136.23,102.69L136.23,101.41L136.85,101.57L137.04,102.03L137.26,101.3L137.68,101.94L137.89,102.54L140.11,106.99L140.32,106.75L140.82,107.78L141.03,107.2L141.03,106.15L142.6,106.31L142.6,105.88L142.6,105.32L143.39,104.31L143.51,103.25L145.07,98.35L145.39,98.87L145.61,98.37L146.97,94.08L147.18,93.94L148.94,93.36L149,93.83L149.14,94.05L149.77,93.42L149.77,93.91L149.88,94.27L150.46,97.21L150.66,97.05L151.47,96.91L151.51,98.07L152.33,99.91L152.53,99.6L152.73,99.6L153.42,101.29L153.62,101.14L154.98,99.81L155.05,99.94L155.24,98.7L156.43,97.69L156.63,96.53L157.24,95.83L157.45,94.56L157.86,94.24L158.06,92.79L159.02,88.67L159.23,88.53L159.71,86.71L159.99,87.39L160.02,88.41L163.48,80.75L163.69,79.92L164.82,77.58L164.9,77.25L166.13,73.51L166.17,74.23L167.69,71.28L167.9,71.03L167.95,71.46L168.35,70.6L168.55,70.05L168.65,72.17L169.12,70.54L169.35,69.9L170.07,67.3L170.07,67.94L170.29,67.42L172.19,63.64L172.39,63.37L173.9,61.68L173.98,62.08L174.82,61.82L175.03,61.51L175.03,61.76L175.25,60.84L175.67,61.05L175.88,61.19L176.6,60.53L176.8,60.52L177.21,60.56L177.41,59.16L178.67,57.86L178.88,57.34L179.49,56.68L179.69,56.32L180.08,56.85L180.49,56.6L180.7,56.6L181.25,57.25L181.46,56.43L183.97,52.71L184.17,52.69L185.15,49.78L185.2,50.52L185.41,50.54L186.19,49.79L186.33,49.52L187.03,49.7L187.32,50.19L188.18,49.93L188.46,50.48L189.16,50.85L189.48,51.57L190.36,52.77L190.59,52.76L190.81,52.75L190.88,53.93L192.4,52.08L192.44,53.4L193.04,53.56L193.14,52.41L193.19,53.6L193.85,52.95L194.07,52.74L194.28,51.87L194.36,53.49L194.7,53.3L194.9,52.98L195.74,52.81L195.96,53.07L197.07,53.99L197.1,55.08L197.88,54.18L197.93,55L198.96,54.83L199,55.83L201.88,56.08L201.94,55.29L202.58,54.52L202.74,54.72L202.93,54.69L204,54.7L204,53.64L204.2,53.6L204.24,54.9L205.29,55.58L205.34,56.92L205.82,55.88L206.1,56.34L206.3,56.35L207.41,55.85L207.61,55.23L208.89,54.54L208.94,55.09L209.82,54.74L209.86,55.79L210.67,55.73L210.71,56.82L211.13,58.77L211.54,58.66L211.74,58.67L211.95,58.67L211.99,59.88L212.81,58.58L212.85,59.93L213.53,59.31L213.56,60.56L213.79,61.19L213.84,61.96L214.02,62.05L214.06,63.11L214.71,65.59L214.84,65.73L215.97,65.15L216.18,65.11L216.79,65.55L217,64.94L217.57,64.66L217.77,64.15L218.36,64.47L218.57,64.22L218.77,63.88L219.02,64.22L221.57,60.97L221.62,61.61L223.53,61.54L223.72,61.17L223.92,61.15L224.12,59.82L224.74,59.91L224.95,58.92L225.65,59.73L225.95,60.33L226.23,57.9L226.66,58.98L226.86,58.98L227.65,58.51L227.95,58.97L228,61.3L228.71,61.2L228.71,59.86L229.58,62.01L230.01,61.19L230.23,61.37L231.08,60.55L231.29,60.57L231.5,59.6L231.86,60.24L232.08,60.58L232.57,60.06L232.62,60.86L232.71,61.4L233.65,62.11L233.86,61.36L234.08,61.37L234.3,60.62L234.68,61.88L234.91,61.37L235.21,61.61L236.63,64.08L236.84,62.88L237.76,62.99L237.98,61.69L238.61,62.26L238.83,62.84L239.39,62.7L239.52,61.98L240.97,62.83" style="vector-effect: non-scaling-stroke; fill: none; stroke: rgb(99, 110, 250); stroke-opacity: 1; stroke-width: 2px; opacity: 1;"/></g><g class="points"/><g class="text"/></g><g class="trace scatter trace3f2980" style="stroke-miterlimit: 2; opacity: 1;"><g class="fills"/><g class="errorbars"/><g class="lines"><path class="js-line" d="M0,11.97L240.97,11.97" style="vector-effect: non-scaling-stroke; fill: none; stroke: rgb(99, 110, 250); stroke-opacity: 1; stroke-width: 2px; opacity: 1; stroke-dasharray: 9px, 9px;"/></g><g class="points"/><g class="text"/></g><g class="trace scatter trace05d3ed" style="stroke-miterlimit: 2; opacity: 1;"><g class="fills"/><g class="errorbars"/><g class="lines"><path class="js-line" d="M17.86,150.58L17.9,151.06L18.37,148.98L18.55,149.84L18.58,149.81L18.64,152.9L19.33,151.42L19.38,151.66L19.67,152.17L19.71,150.13L19.98,150.38L20.56,153.42L20.82,153.5L21,154.04L21.44,151.93L21.44,152L21.65,151.44L22.1,151.48L22.24,149.16L22.27,150.11L22.55,150.21L22.66,150.94L23.39,148.58L23.43,149.02L23.69,148.35L24.18,152.91L24.2,153.38L24.3,154.25L24.43,153.13L24.81,153.16L24.94,152.62L25.25,152.42L25.29,153.51L25.46,153.17L25.99,156.35L26.08,155.81L26.32,152.82L26.46,153.16L26.46,151.93L26.88,153.28L27.22,152.56L27.22,151.66L27.35,152.83L27.71,149.88L27.9,150.79L28.11,150.82L28.7,155.43L28.86,153.84L28.9,154.3L29.43,155.4L29.53,153.74L29.54,152.84L30.09,149.18L30.11,149.26L30.41,149.75L30.59,151.72L31.14,147.64L31.14,148.55L31.19,148.77L31.19,147.92L31.86,149.95L32.1,149.35L32.55,143.56L32.82,145.29L33,144.13L33.69,142.71L33.71,144.76L33.9,144.2L34.67,143.26L34.67,143.54L34.72,143.94L34.72,144.65L35.38,141.91L35.41,142.06L35.53,141.65L35.87,137.71L36.21,138.46L36.49,139.03L36.92,137.48L36.96,139.42L37,140.14L37.27,136.3L37.36,138.9L37.58,138.91L37.58,138.54L38.13,142.86L38.13,141.09L38.36,141.3L38.57,139.14L38.99,140.33L39.21,140.43L39.53,139.83L39.72,143.05L39.81,141.47L39.81,140.41L39.93,143.48L40.48,141.05L40.62,141.21L40.66,142.48L41.15,139.36L41.38,139.5L41.57,143.31L41.7,137.58L41.91,137.56L42.14,136.62L42.14,137.87L42.14,137.83L42.14,138.39L42.18,139.11L42.51,133.76L42.7,134.31L43.01,134.18L43.59,130.23L43.87,129.8L43.87,127.69L44.59,130.25L44.64,130.57L44.7,129.44L44.96,132.23L45.12,131.39L45.45,130.41L45.53,129.7L46.1,129.78L46.35,129.61L46.73,131.87L46.73,130.95L47.13,130.85L47.66,133.2L47.82,128.65L48.06,127.5L48.06,126.64L48.66,129.28L48.86,128.7L48.86,130.05L49.34,127.64L49.41,128.92L49.62,128L49.67,128.33L49.9,127.43L50.24,127.87L50.48,126.95L51.23,132.9L51.23,132.26L51.45,131.2L51.82,133.57L52.17,129.53L52.2,130.96L52.23,132.01L52.62,132.08L52.62,132.56L53.29,129.81L53.34,132.8L53.34,132.64L53.55,131.49L53.58,133.63L54.17,130.38L54.35,130.77L54.39,132.71L54.86,131.8L55.17,131.54L55.82,129.27L55.86,130.09L56.08,129.76L56.24,132.42L56.66,126.41L56.87,126.4L57.1,123.95L57.22,128.98L57.53,128.8L57.74,129.02L58.25,129.4L58.45,127.81L58.45,127.17L59.27,123.82L59.27,124.17L59.48,123.07L59.7,119.04L60.22,121.55L60.26,121.95L60.26,123.08L60.81,118.06L61.01,119.11L61.02,118.46L61.38,115.54L61.58,118.39L61.81,117.9L62.01,120.45L62.22,112.38L62.3,112.96L62.35,112.91L63.04,118.33L63.13,116.19L63.33,115.65L63.34,113.34L63.84,116.56L63.84,116.3L64.07,116.41L64.31,116.05L64.52,116.92L64.79,116.89L64.95,116.87L64.95,115.99L65.27,116.62L65.49,113.64L65.5,114.95L65.73,114.39L66.26,112.8L66.39,116.53L66.58,115.53L66.95,116.95L67.29,110.79L67.41,110.75L68.28,102.86L68.58,103.61L68.61,104.82L69.33,97.12L69.33,97.85L69.6,97.85L70.31,95.68L70.35,95.74L70.41,95.78L70.76,96.32L70.76,94.72L71.01,95.13L71.21,95.09L71.26,96.63L71.49,94.47L71.53,94.16L71.86,91.15L72.28,94.46L72.28,93.78L72.29,95.08L72.35,94.11L73.02,103.41L73.03,103.05L73.24,102.6L73.24,102.16L73.74,105.07L73.94,104.25L74.18,105.02L74.54,105.02L74.54,104.45L74.54,105.35L74.54,103.5L75.17,108.21L75.17,107.41L75.38,107.27L75.38,106.14L75.5,111.34L76.1,107.52L76.29,107.56L76.62,109.74L76.62,107.72L76.62,107.25L76.83,105.32L76.87,107.62L77.16,106.94L77.38,106.92L77.42,107.2L78.12,99.89L78.12,100.37L78.18,100.13L78.68,97.6L78.7,99.77L78.99,100.16L79.25,100.26L80.1,94.41L80.1,93.82L80.29,94.28L80.29,93.76L80.29,93.43L80.98,85.41L81.07,85.37L81.48,85.73L81.48,83.57L81.73,83.95L81.99,84.25L82.13,82.26L82.48,89.17L82.73,84.87L82.78,85.58L83.21,84.47L83.53,89.66L83.6,90.16L84.25,95.15L84.45,95.83L84.5,96.48L84.71,90.22L84.71,89.45L84.99,89.3L84.99,89.97L85.31,90.55L85.31,91.01L86.02,87.08L86.02,88.36L86.13,88.27L86.14,90.22L86.56,84.46L86.84,85.65L87.04,85.17L87.04,85.81L87.6,74.93L87.79,75.8L87.98,75.29L88.17,74.98L88.52,77.57L88.72,76.5L88.79,76.84L89.29,80.2L89.29,76.17L89.34,76.86L89.49,77.08L90,79.14L90.11,73.5L90.3,73.21L90.3,71.3L90.94,79.13L90.99,77.87L91.18,78.56L91.19,77.23L91.68,80.78L91.88,78.85L92.07,78.48L92.46,79.84L92.7,74.6L92.7,76.62L92.89,76.16L93.02,78.93L93.46,70.31L93.54,71.35L93.69,71.65L93.69,69.3L94.33,76.5L94.33,76.02L94.53,76L94.87,71.37L95.01,79.44L95.25,73.53L95.43,73.11L95.43,73.84L95.43,69.48L96.03,70.78L96.21,70.56L96.41,71.58L96.41,70.32L96.42,71.46L96.42,71.95L96.62,70.42L97.07,75.85L97.25,75.76L97.84,84.03L97.92,83.17L98.18,83.43L98.63,83.41L98.93,90.82L98.93,89.29L99.21,89.97L99.21,90.65L99.96,83.21L99.96,83.43L100.05,83.02L100.06,77.24L100.61,108.74L100.81,108.45L100.94,113.04L101.53,112.65L101.57,113.49L101.72,111.21L102.06,112.18L102.35,112.39L103.05,107.01L103.06,110.56L103.25,110.06L103.25,110.87L103.31,105.19L103.99,108.17L104.18,107.75L104.19,106.76L104.88,116.72L104.89,115.74L105.1,115.74L105.33,117.78L105.8,111.72L105.8,112.13L105.92,112.15L105.92,114.09L106.47,110.03L106.59,110.42L106.8,111.06L106.93,109.1L107.01,111.99L107.01,112.32L107.01,111.79L107.12,115.18L107.72,114.43L107.93,114.42L108.04,116.23L108.27,113.11L108.47,113.82L108.67,113.24L108.89,108.84L109.24,115.62L109.24,115.62L109.45,115.17L109.78,113.74L110.14,117.24L110.14,116.75L110.35,116.13L110.81,116.9L111.03,111.69L111.08,112.45L111.29,112.33L111.55,112.59L111.78,110.93L111.78,110.67L111.78,111.45L112.15,109.28L112.36,110.28L112.56,109.79L114.84,102.95L115.08,104.31L115.08,104.8L115.09,107.91L115.71,106.49L115.91,106.49L116.42,112.48L116.66,108.36L116.88,108.43L116.92,109.32L117.49,100.23L117.54,100.73L117.76,100.27L117.76,98.1L118.19,101.74L118.41,101.52L118.61,101.04L118.61,101.52L119.27,97.02L119.33,98.06L119.53,97.57L119.94,97.22L120.2,98.75L120.2,98.75L120.33,98.24L120.34,100.22L121.03,94.68L121.03,95.65L121.24,95.16L121.86,92.55L121.87,94.72L122.07,94.31L122.37,97.74L122.81,96.92L122.84,97.55L122.84,95.8L123.58,100.46L123.58,100.46L123.61,100.79L124.07,98.57L124.07,100.14L124.07,100.79L124.69,98.04L125.01,98.17L125.55,93.93L125.59,96.74L125.79,96.29L125.8,96.58L126.23,94.36L126.42,95.05L126.64,94.55L127.26,87.18L127.27,88.91L127.47,88.72L127.48,86.39L128.14,86.78L128.35,86.76L128.56,81.07L128.85,87.58L128.97,86.74L129.26,87.43L129.45,86.32L129.74,89.1L129.94,88.04L130.03,88.07L130.44,87.31L130.49,91.61L130.69,90.43L130.88,90.67L131.11,85.7L131.63,86.43L131.84,85.84L132.5,73.36L132.77,73.52L133.22,73.9L133.46,68.99L133.74,69.18L133.95,70.12L134.24,68.94L134.24,69.1L134.24,68.61L134.51,67.56L134.51,69.54L134.67,68.92L135.01,69.12L135.82,62.48L135.83,65.33L135.83,65.76L135.83,65.79L136.35,63.43L136.58,65.42L136.59,66.06L136.63,66.93L137.07,64.83L137.07,64.83L137.39,65.47L137.39,64.92L137.44,69.41L138.13,67.22L138.17,68.59L138.65,75.8L138.88,75.74L139.1,75.75L139.1,76.84L139.66,74.64L139.87,74.02L139.87,74.5L140.41,66.59L140.47,67.73L140.67,67.24L140.67,67.46L140.87,63.34L141.13,64.25L141.43,64.77L142.08,61.51L142.13,62.08L142.33,61.91L143.05,45.17L143.05,45.17L143.33,45.73L143.6,40.7L143.95,42.44L144.15,42.21L144.42,42.09L144.42,42.91L144.49,43.36L144.95,38.61L145.24,39.7L145.41,39.96L145.42,39.32L145.48,41.17L146.14,40.82L146.35,40.82L146.35,39.67L146.9,42.83L147.05,40.18L147.28,40.19L147.52,39.06L147.53,40.98L147.53,40.98L147.53,41.46L147.53,41.97L147.86,37.73L148.08,40.5L148.31,40.5L148.74,40.91L148.95,34.88L148.95,35.64L149.16,35.64L149.72,33.94L149.78,35.97L149.78,35.48L150.06,34.82L150.69,31.82L150.95,31.85L151.08,32.52L151.43,30.58L151.43,30.58L151.43,30.1L152.02,30.53L152.02,30.05L152.26,29.87L152.47,30.43L152.47,29.14L152.47,29.63L152.47,28.27L152.48,27.41L153.09,32.3L153.09,31.73L153.3,31.72L153.51,29.31L154.02,33.43L154.22,33.41L154.23,32.19L154.64,34.75L154.86,32.95L155.03,33.17L155.2,32.97L155.21,34.13L155.21,34.13L155.21,34.62L155.91,24.68L155.92,26.43L156.15,26.65L156.18,26.44L156.88,33.25L156.88,33.25L156.99,33.18L156.99,33.66L157.65,24.51L157.71,27.4L157.86,27.64L157.87,27.06L158.49,28.51L158.5,28.51L158.8,29.02L158.81,28.81L159.29,31.88L159.3,30.61L159.5,31.16L159.71,31.68L159.91,30.65L159.91,30L159.91,30.49L160.57,25.23L160.58,26.53L160.68,26.77L160.83,28.94L161.24,27.99L161.44,28.51L161.77,29.02L161.77,29.22L161.77,29.7L162.01,29.7L162.01,29.44L162.01,29.99L162.24,29.99L162.24,29.95L162.24,30.43L162.43,30.75L162.43,29.62L162.43,30.75L162.44,31.3L162.44,30.11L163,36.02L163.06,35.97L163.26,36.49L163.6,33.28L164,34.85L164.21,34.83L164.58,37.7L164.78,35.77L164.98,35.87L165.01,36.15L165.59,32.52L165.65,33.52L165.86,33.51L166.19,30.65L166.4,31.1L166.63,31.22L166.64,31.39L167.09,29.88L167.09,30.82L167.32,30.16L167.38,30.23L167.56,25.87L167.9,28.6L168.12,29.04L168.12,29.54L168.54,27.56L168.77,27.73L168.99,26.71L168.99,27.19L169.02,24.15L169.66,25.67L169.76,25.91L170.31,24.19L170.35,26.88L170.35,25.63L170.57,26.2L170.57,25.72L171.32,29.25L171.32,29.06L171.33,29.06L171.75,27.84L172.03,31.11L172.06,29.35L172.06,28.72L172.51,30.56L172.61,26.01L172.62,28.28L172.82,28.27L173.25,26.42L173.47,26.64L173.68,26.68L174.23,27.42L174.23,24.65L174.33,24.93L174.54,25.14L174.54,24.62L175.23,26.32L175.24,26.29L175.43,26.32L175.44,25.83L175.93,27.28L176.14,25.93L176.24,26.19L176.47,23.89L176.95,26.92L176.95,24.43L177.07,24.65L177.38,28.82L177.79,28.27L178,28.77L178.55,29.68L178.55,29.67L178.55,28.78L178.93,31.22L178.94,29.67L178.94,29.18L179.2,30.26L179.6,26.96L179.6,28.26L179.81,28.28L180.02,28.25L180.02,28.73L180.03,30.01L180.24,29.47L180.78,32.78L181,32.79L181,33.28L181.11,29.49L181.74,29.53L182.03,30.09L182.24,29.82L182.24,29.83L182.24,29.35L182.89,29.44L182.89,28.14L183.11,28.24L183.38,29.92L183.61,24.21L183.76,25.41L183.94,25.52L184.71,30.39L184.72,28.26L184.92,28.33L185.36,30.4L185.58,25.35L185.63,26.07L185.9,26.37L185.92,25.22L186.65,27.46L186.65,26L186.66,25.22L186.86,25.21L186.86,25.88L186.86,26.36L186.98,25.95L187.5,29.1L187.58,28.26L187.8,28.25L187.8,27.66L188.35,29.57L188.36,27.69L188.57,27.68L189.39,31.79L189.39,30.28L189.6,30.31L189.83,24.28L190.11,25.81L190.41,26.35L190.41,25.65L190.86,30.49L190.86,30.49L191.17,31.04L191.18,28.02L191.18,32.03L191.76,30.03L191.97,30.04L192.06,34.56L192.5,25.49L192.67,27.29L192.88,27.27L193.51,26.33L193.51,29.06L193.51,29.06L193.66,29.32L194.09,32.15L194.33,28.87L194.33,28.87L194.55,28.85L195.21,23.5L195.42,23.53L195.63,22.22L196.13,24.77L196.13,24.77L196.34,24.76L196.64,23.29L196.77,26.99L196.97,26.98L197.17,26.31L197.89,28.37L197.89,28.37L198.09,28.36L198.69,33.49L198.71,30.78L198.94,30.57L199.35,30.5L199.35,30.5L199.35,29.23L199.98,29.52L200,27.97L200,27.98L200.22,27.99L200.68,23.43L200.92,24.25L201.15,24.27L201.83,25.13L201.83,25.05L202.03,25.57L202.46,26.75L202.67,22.99L202.67,22.99L202.9,23.14L203.32,26.75L203.54,25.97L203.76,25.99L204,21.53L204.4,23.8L204.61,23.5L204.97,21.91L205.24,22.84L205.45,22.81L206.82,35.63L207.05,32.19L207.24,32.74L207.76,28.79L208.01,29.46L208.01,29.95L208.35,24.6L208.76,25.74L208.77,25.73L209,26.38L209.21,24.34L209.21,24.34L209.21,24.24L209.31,22.49L209.95,23.16L210.03,23.38L210.77,27.05L210.77,26.3L211,26.3L211.24,24.42L211.58,27.37L211.58,27.37L211.8,27.68L212.02,26.59L212.41,29.2L212.41,29.2L212.61,29.18L212.62,25.78L213.21,28.52L213.43,28.6L213.93,29.53L214.15,25.9L214.15,26.06L214.37,26.34L214.85,27.99L214.85,27.99L214.85,28.48L215.53,24.32L215.76,24.33L215.76,23.3L216.44,25.92L216.44,25.92L216.67,26.44L216.68,27.74L216.69,25.33L217.34,25.96L217.59,25.96L218.03,26.88L218.05,26.67L218.05,27.31L218.87,27.81L218.87,27.81L218.87,27.1L219.08,27.18L219.08,26.59L219.08,26.07L219.09,27.7L219.7,24.69L219.8,24.79L219.99,24.76L220.5,24.3L220.5,25.59L220.5,26.08L220.5,25.59L221.09,29.19L221.1,27.35L221.3,27.65L221.55,29.14L221.78,26.66L222.01,27.72L222.22,28.04L222.41,25.66L222.94,27.8L223.16,28.1L223.48,28.83L223.87,21.71L223.96,22.05L223.97,23.54L224.18,21.83L224.62,22.43L224.81,22.73L225.05,21.78L225.35,23.59L225.36,23.59L225.77,24.13L225.77,25.11L226.03,22.22L226.38,24.92L226.6,24.97L226.83,23.87L227.23,27.25L227.24,26.45L227.46,27.08L227.97,30.19L228.21,28.29L228.45,28.48L228.66,28.03L228.66,28.34L228.66,27.72L229.04,30.64L229.27,29.79L229.48,29.81L229.73,32.15L229.73,32.8L229.74,33.44L230.37,29.86L230.38,31.5L230.53,31.19L231.28,28.61L231.51,28.75L231.76,29.41L231.76,28.2L232.22,22.04L232.52,23.16L232.73,23.14L234.68,27.43L234.68,27.43L234.68,28.09L234.69,27.46L235.07,30.64L235.28,29.66L235.5,29.65L235.5,28.18L235.71,31.38L236.2,28.34L236.46,28.32L236.5,29.14L236.99,28.07L236.99,28.08L237.21,28.07L237.47,29.37L237.9,26.54L237.9,26.54L238.16,26.12L238.64,27.42L238.65,26.98L239.01,27.52L239.02,27.55L239.53,23.27L239.71,23.51L239.92,23.49L239.92,22.18L240.4,22.48L240.77,23.07L241,23.13" style="vector-effect: non-scaling-stroke; fill: none; stroke: rgb(239, 85, 59); stroke-opacity: 1; stroke-width: 2px; opacity: 1;"/></g><g class="points"/><g class="text"/></g><g class="trace scatter tracec5b51d" style="stroke-miterlimit: 2; opacity: 1;"><g class="fills"/><g class="errorbars"/><g class="lines"><path class="js-line" d="M0,130.71L1.8,130.71L1.84,80.15L2.05,80.15L2.15,68.42L3.47,68.42L3.51,67.07L17.53,67.07L17.58,62.44L18.64,62.44L18.64,61.59L19.42,17.98L19.42,17.98L19.63,17.98L37,17.39L37.21,13L104.61,12.54L104.61,12.54L104.61,11.97L241,11.97" style="vector-effect: non-scaling-stroke; fill: none; stroke: rgb(239, 85, 59); stroke-opacity: 1; stroke-width: 2px; opacity: 1; stroke-dasharray: 9px, 9px;"/></g><g class="points"/><g class="text"/></g><g class="trace scatter trace3ef7af" style="stroke-miterlimit: 2; opacity: 1;"><g class="fills"/><g class="errorbars"/><g class="lines"><path class="js-line" d="M44.21,66.44L46.57,61.92L46.86,61.64L47.16,61.06L47.21,61.76L47.28,62.49L48.5,59.81L48.8,59.46L50.62,56.32L51.06,56.13L51.77,55.55L51.85,56.14L51.89,57.55L52.5,57.21L52.57,57.72L52.9,57.72L54.13,57.68L54.41,56.85L56.21,57.16L56.67,56.36L58.35,56.35L58.35,56.31L58.41,57.5L60.65,55.07L60.65,55.07L60.65,55.09L61.67,54.77L61.72,55.6L62.01,57.34L62.22,55.44L62.49,56.32L62.68,56.33L63.15,57.16L63.36,56.96L63.55,56.93L63.79,59.16L64.18,57.91L64.38,57.92L64.98,57.95L65.18,57.04L65.37,57.02L65.37,58.45L66.07,59.68L66.27,59.68L66.46,59.68L66.68,58.63L67.09,58.63L67.09,58.6L67.09,57.61L67.68,60.82L67.91,59.34L68.1,59.34L68.88,59.39L68.92,60.58L68.99,61.81L69.59,59.97L69.78,59.29L70.43,58.88L70.63,58.88L71.26,56.42L71.46,56.42L71.55,58.13L72.13,57.53L72.34,57.56L73.5,56.99L73.69,55.92L73.87,55.92L73.87,55.31L74.06,55.02L74.25,55L74.28,56.18L76.54,50.1L76.8,50.09L77.28,47.93L77.38,49.59L77.59,49.59L77.81,49.59L78.02,48.61L78.68,50.1L78.9,50.1L79.16,50.92L79.37,48.92L79.57,48.92L79.79,48.95L80.05,49.62L80.09,50.44L82.05,51.62L82.25,50.19L82.84,49.69L82.84,50.66L84.66,50.59L84.7,51.92L84.89,51.89L84.89,51.89L84.93,53.12L85.31,53.14L85.52,51.97L87.92,51.78L87.92,51.78L87.92,50.94L88.14,49.24L88.55,49.39L88.72,49.55L88.92,49.54L89.12,48.66L89.38,49.17L89.58,48.34L89.97,48.31L90.18,47.46L90.82,47.34L90.86,48.66L91.1,49.71L91.51,49.56L91.7,48.27L92.34,47.83L92.38,49.15L92.58,49.15L92.58,48.38L93.28,52.73L93.48,52.43L93.67,51.24L94.14,52.73L94.36,52.82L95.6,49.7L95.8,49.7L96.71,49.91L96.71,48.95L97.29,47.6L97.49,47.62L98.1,47.64L98.29,46.54L98.49,46.5L98.69,45.19L99.47,44.77L99.5,46.1L100.1,46.09L100.1,46.09L100.14,47.4L101.5,48L101.5,46.85L102.18,49.08L102.39,49.08L102.59,48.74L102.64,49.74L102.84,49.73L103.11,49.76L103.57,49.74L103.61,51.08L103.82,51.08L103.82,51.33L104.04,50.32L104.46,50.35L104.46,49.02L105.52,47.51L105.52,47.12L106.44,56.77L106.65,56.79L107.73,57.25L107.94,56.01L108.2,56.67L108.24,57.6L108.44,57.55L108.66,56.59L109.74,57.27L109.79,58.65L110.4,58.07L110.49,57.03L110.7,57.09L110.74,58.47L110.94,58.49L110.99,57.88L111.05,58.65L111.46,58.66L111.51,59.68L112.62,59.85L112.62,59.83L112.67,61.2L114.63,60.77L114.67,61.77L115.23,65.23L115.49,65.2L115.69,63.89L115.89,62.86L116.24,64.4L116.32,64.71L116.94,64.56L117.14,63.57L118.69,58.39L118.9,57.86L119.1,57.75L119.3,56.43L119.56,56.98L119.77,55.85L119.97,55.74L120.02,56.52L120.22,56.54L120.62,56.55L120.83,55.27L121.26,55.32L121.26,55.27L121.32,56.41L121.54,56.23L121.8,56.75L121.87,57.34L123.12,57.68L123.17,58.24L124.12,58.37L124.16,59.31L124.57,59.34L124.78,58.02L124.99,57.98L125.04,59.25L125.54,60.6L125.74,60.58L125.93,59.44L126.71,58.07L126.75,58.93L126.95,58.93L127.14,58.98L127.34,57.98L127.95,60.85L128.14,60.85L128.33,60.72L128.33,61.39L128.33,62.08L128.9,63.68L129.1,63.66L129.3,63.68L129.5,64.38L129.5,63.09L131.46,53.16L131.73,53.24L131.93,53.23L133.57,52.46L133.78,51.84L134.17,50.89L134.44,51.46L134.64,51.43L135.43,50.74L135.49,49.91L135.98,51.14L136.18,51.12L136.38,50.84L136.59,50.79L136.78,49.42L137,48.04L137.43,49.36L137.56,48.51L138.03,49.18L138.07,50.42L138.52,49.31L138.57,49.92L138.57,50.97L138.63,51.56L139.21,51.47L139.41,51.44L139.86,52.1L140.05,51.09L140.27,50.23L141.15,47.36L141.35,47.34L142.17,47.11L142.37,45.85L143.18,45.54L143.22,46.19L144.69,46.07L144.74,46.74L145.79,46.69L145.85,47.23L146.1,47.02L146.35,47.88L146.54,47.86L146.73,47.84L148.41,47.92L148.41,48.5L148.84,49.08L148.89,50.33L149.56,51.2L149.61,52.45L150,51.06L150.3,52.02L150.49,52L150.84,53.36L151.24,50.81L151.29,51.45L152.07,50.85L152.07,50.87L152.12,51.52L153.59,51.26L153.59,50.15L154.04,48.22L154.29,49.43L154.48,48.74L154.52,48.9L154.91,47.39L154.91,47.25L155.12,47.27L155.16,48.36L155.74,47.81L155.77,49.13L157.16,48.63L157.35,48.49L157.75,48.17L157.75,47.37L158.37,47.42L158.4,48.77L158.8,48.81L158.84,49.92L159.05,49.88L159.05,49.88L159.1,50.74L159.5,50.75L159.56,51.67L160.37,51.11L160.41,52.39L160.61,52.39L160.65,53.65L161.08,53.34L161.08,53.34L161.29,52.71L162.08,52.7L162.12,53.53L162.36,53.01L162.8,54.48L162.99,53.88L164.06,51.19L164.26,51.18L164.46,51.19L164.5,52.05L165.66,51.55L165.85,51.55L166.34,52.93L166.54,52.84L166.74,52.82L166.94,52.83L166.98,53.59L169.5,53.98L169.71,53.28L170.5,55.36L170.69,54.77L171.09,54.04L171.29,53.88L171.8,54.14L171.8,53.51L172.02,53.53L172.21,52.37L172.72,53.04L172.78,53.68L173.14,53.98L174.94,49.16L175.13,49.16L175.75,47.4L176.06,48.39L176.12,49.03L176.16,50.27L176.79,50.18L176.99,50.17L178.01,49.5L178.02,48.75L179.65,47.86L179.85,46.68L180.12,47.21L180.31,46.36L180.98,47.04L180.98,47.62L181.04,47.71L181.44,46.25L181.64,46.25L181.86,46.27L182.14,46.86L182.66,46.65L182.89,46.64L183.75,47.22L183.75,47.84L183.95,47.81L183.95,46.46L184.21,47.04L184.42,45.92L184.69,46.54L184.88,46.54L185.08,46.55L185.27,45.7L185.69,44.78L185.8,45.99L185.85,46.62L186.24,46.66L186.44,45.39L186.7,43.88L187.15,44.49L187.35,44.48L188,44.2L188.19,43.34L190.14,42.86L190.34,42.01L191.5,41.31L191.7,41.08L192.76,39.99L192.95,40L193.76,38.77L193.83,39.1L194.03,39.1L195.44,39.09L195.47,40.38L196.46,40.12L196.46,39.52L196.88,39.5L196.93,40.78L197.43,40.91L197.47,42.24L199.05,42.11L199.24,41.4L200.03,40.77L200.03,40.77L200.04,40.13L200.67,40.52L200.72,41.27L201.38,41.71L201.42,42.92L202.6,42.25L202.6,42.25L202.6,41.71L203.18,40.38L203.46,41.09L203.65,41.09L204.52,47.44L204.74,47.81L205.57,52.32L205.77,52.33L206.77,50.6L206.77,50.6L206.89,50.89L208.09,53.73L208.15,54.36L208.35,54.02L208.55,54.68L208.61,55.27L209.11,56.19L209.12,55.58L209.12,54.97L209.57,54.73L209.79,54.94L210.01,55.2L210.6,55.86L210.93,55.49L211.17,55.64L213.21,57.9L213.44,57.37L213.44,56.74L215.32,57.46L215.36,58.47L215.64,59.93L215.64,59.75L215.97,60.55L216.73,60.97L216.77,62.1L218.98,62.32L218.98,62.31L219.02,63.48L219.23,63.72L219.44,63.42L219.64,62.73L220.47,62.9L220.47,62.89L220.47,61.6L221.71,62.6L222.03,63.41L222.79,58.52L223.24,58.74L223.44,58.75L225.33,61.41L225.54,60.14L225.8,61.16L226.17,60.38L226.37,60.39L226.62,61.63L227.03,60.4L227.23,60.4L227.64,60.38L227.69,61.76L228.29,61.8L228.34,63.17L228.54,63.18L228.75,61.85L228.75,60.56L229.24,63.22L229.45,63.22L229.65,63.23L229.74,61.45L230.36,61.48L230.56,60.84L231.26,55.32L231.46,54.96L232.06,52.48L232.22,52.47L233.6,52.42L233.64,53.18L233.68,54.08L234.16,52.96L234.36,52.99L234.56,53.02L234.77,53.03L234.77,52.45L234.77,51.86L234.86,52.41L235.26,51.15L235.47,50.54L235.67,50.27L235.71,51.66L235.92,51.82L236.12,51.16L236.12,50.56L236.94,49.7L236.98,50.64L237.46,49.79L237.5,50.89L238.11,49.96L238.12,49.81L238.93,49.27L238.97,50.64L239.17,50.66L239.38,49.82L239.77,49.22L239.77,48.36L239.97,48.3L240.01,49.71L240.21,49.74L240.25,51.05L240.32,51.34L240.75,50.47L240.95,50.42" style="vector-effect: non-scaling-stroke; fill: none; stroke: rgb(0, 204, 150); stroke-opacity: 1; stroke-width: 2px; opacity: 1;"/></g><g class="points"/><g class="text"/></g><g class="trace scatter tracefc83fa" style="stroke-miterlimit: 2; opacity: 1;"><g class="fills"/><g class="errorbars"/><g class="lines"><path class="js-line" d="M0,168.45L0.84,66.51L0.96,66.11L1.47,66.11L1.58,64.64L1.96,64.64L1.96,64.64L2.2,14.33L2.89,14.33L2.89,14.33L3.12,13.24L9.33,12.97L9.59,12.16L12.99,11.91L13.28,11.34L240.95,11.1" style="vector-effect: non-scaling-stroke; fill: none; stroke: rgb(0, 204, 150); stroke-opacity: 1; stroke-width: 2px; opacity: 1; stroke-dasharray: 9px, 9px;"/></g><g class="points"/><g class="text"/></g></g></g><g class="overplot"/><path class="xlines-above crisp" d="M71,222.5H313" style="fill: none; stroke-width: 1px; stroke: rgb(36, 36, 36); stroke-opacity: 1;"/><path class="ylines-above crisp" d="M71.5,0V222" style="fill: none; stroke-width: 1px; stroke: rgb(36, 36, 36); stroke-opacity: 1;"/><g class="overlines-above"/><g class="xaxislayer-above"><path class="xtick ticks crisp" d="M0,223v5" transform="translate(138.91,0)" style="stroke: rgb(68, 68, 68); stroke-opacity: 1; stroke-width: 1px;"/><path class="xtick ticks crisp" d="M0,223v5" transform="translate(205.87,0)" style="stroke: rgb(68, 68, 68); stroke-opacity: 1; stroke-width: 1px;"/><path class="xtick ticks crisp" d="M0,223v5" transform="translate(272.83000000000004,0)" style="stroke: rgb(68, 68, 68); stroke-opacity: 1; stroke-width: 1px;"/><g class="xtick"><text text-anchor="middle" x="0" y="244.8" transform="translate(138.91,0)" style="font-family: 'Times new roman', monospace; font-size: 14px; fill: rgb(36, 36, 36); fill-opacity: 1; white-space: pre; opacity: 1;">50</text></g><g class="xtick"><text text-anchor="middle" x="0" y="244.8" style="font-family: 'Times new roman', monospace; font-size: 14px; fill: rgb(36, 36, 36); fill-opacity: 1; white-space: pre; opacity: 1;" transform="translate(205.87,0)">100</text></g><g class="xtick"><text text-anchor="middle" x="0" y="244.8" style="font-family: 'Times new roman', monospace; font-size: 14px; fill: rgb(36, 36, 36); fill-opacity: 1; white-space: pre; opacity: 1;" transform="translate(272.83000000000004,0)">150</text></g></g><g class="yaxislayer-above"><path class="ytick ticks crisp" d="M71,0h-5" transform="translate(0,189.04)" style="stroke: rgb(68, 68, 68); stroke-opacity: 1; stroke-width: 1px;"/><path class="ytick ticks crisp" d="M71,0h-5" transform="translate(0,130.62)" style="stroke: rgb(68, 68, 68); stroke-opacity: 1; stroke-width: 1px;"/><path class="ytick ticks crisp" d="M71,0h-5" transform="translate(0,72.2)" style="stroke: rgb(68, 68, 68); stroke-opacity: 1; stroke-width: 1px;"/><path class="ytick ticks crisp" d="M71,0h-5" transform="translate(0,13.78)" style="stroke: rgb(68, 68, 68); stroke-opacity: 1; stroke-width: 1px;"/><g class="ytick"><text text-anchor="end" x="63.2" y="4.8999999999999995" transform="translate(0,189.04)" style="font-family: 'Times new roman', monospace; font-size: 14px; fill: rgb(36, 36, 36); fill-opacity: 1; white-space: pre; opacity: 1;">−1500</text></g><g class="ytick"><text text-anchor="end" x="63.2" y="4.8999999999999995" style="font-family: 'Times new roman', monospace; font-size: 14px; fill: rgb(36, 36, 36); fill-opacity: 1; white-space: pre; opacity: 1;" transform="translate(0,130.62)">−1000</text></g><g class="ytick"><text text-anchor="end" x="63.2" y="4.8999999999999995" style="font-family: 'Times new roman', monospace; font-size: 14px; fill: rgb(36, 36, 36); fill-opacity: 1; white-space: pre; opacity: 1;" transform="translate(0,72.2)">−500</text></g><g class="ytick"><text text-anchor="end" x="63.2" y="4.8999999999999995" style="font-family: 'Times new roman', monospace; font-size: 14px; fill: rgb(36, 36, 36); fill-opacity: 1; white-space: pre; opacity: 1;" transform="translate(0,13.78)">0</text></g></g><g class="overaxes-above"/></g></g><g class="polarlayer"/><g class="smithlayer"/><g class="ternarylayer"/><g class="geolayer"/><g class="funnelarealayer"/><g class="pielayer"/><g class="iciclelayer"/><g class="treemaplayer"/><g class="sunburstlayer"/><g class="glimages"/><defs id="topdefs-39b637"><g class="clips"/><clipPath id="legend39b637"><rect width="132" height="138" x="0" y="0"/></clipPath></defs><g class="layer-above"><g class="imagelayer"/><g class="shapelayer"/></g><g class="infolayer"><g class="legend" pointer-events="all" transform="translate(317.82,0)"><rect class="bg" shape-rendering="crispEdges" width="132" height="138" x="0" y="0" style="stroke: rgb(68, 68, 68); stroke-opacity: 1; fill: rgb(255, 255, 255); fill-opacity: 1; stroke-width: 0px;"/><g class="scrollbox" transform="" clip-path="url(#legend39b637)"><g class="groups"><g class="traces" transform="translate(0,15.6)" style="opacity: 1;"><text class="legendtext" text-anchor="start" x="40" y="5.46" style="font-family: 'Times new roman', monospace; font-size: 14px; fill: rgb(36, 36, 36); fill-opacity: 1; white-space: pre;">SA mean</text><g class="layers" style="opacity: 1;"><g class="legendfill"/><g class="legendlines"><path class="js-line" d="M5,0h30" style="fill: none; stroke: rgb(99, 110, 250); stroke-opacity: 1; stroke-width: 2px;"/></g><g class="legendsymbols"><g class="legendpoints"/></g></g><rect class="legendtoggle" x="0" y="-10.6" width="126.921875" height="21.2" style="fill: rgb(0, 0, 0); fill-opacity: 0;"/></g><g class="traces" transform="translate(0,36.8)" style="opacity: 1;"><text class="legendtext" text-anchor="start" x="40" y="5.46" style="font-family: 'Times new roman', monospace; font-size: 14px; fill: rgb(36, 36, 36); fill-opacity: 1; white-space: pre;">SA max</text><g class="layers" style="opacity: 1;"><g class="legendfill"/><g class="legendlines"><path class="js-line" d="M5,0h30" style="fill: none; stroke: rgb(99, 110, 250); stroke-opacity: 1; stroke-dasharray: 9px, 9px; stroke-width: 2px;"/></g><g class="legendsymbols"><g class="legendpoints"/></g></g><rect class="legendtoggle" x="0" y="-10.6" width="126.921875" height="21.2" style="fill: rgb(0, 0, 0); fill-opacity: 0;"/></g><g class="traces" transform="translate(0,58)" style="opacity: 1;"><text class="legendtext" text-anchor="start" x="40" y="5.46" style="font-family: 'Times new roman', monospace; font-size: 14px; fill: rgb(36, 36, 36); fill-opacity: 1; white-space: pre;">NSGA-II mean</text><g class="layers" style="opacity: 1;"><g class="legendfill"/><g class="legendlines"><path class="js-line" d="M5,0h30" style="fill: none; stroke: rgb(239, 85, 59); stroke-opacity: 1; stroke-width: 2px;"/></g><g class="legendsymbols"><g class="legendpoints"/></g></g><rect class="legendtoggle" x="0" y="-10.6" width="126.921875" height="21.2" style="fill: rgb(0, 0, 0); fill-opacity: 0;"/></g><g class="traces" transform="translate(0,79.19999999999999)" style="opacity: 1;"><text class="legendtext" text-anchor="start" x="40" y="5.46" style="font-family: 'Times new roman', monospace; font-size: 14px; fill: rgb(36, 36, 36); fill-opacity: 1; white-space: pre;">NSGA-II max</text><g class="layers" style="opacity: 1;"><g class="legendfill"/><g class="legendlines"><path class="js-line" d="M5,0h30" style="fill: none; stroke: rgb(239, 85, 59); stroke-opacity: 1; stroke-dasharray: 9px, 9px; stroke-width: 2px;"/></g><g class="legendsymbols"><g class="legendpoints"/></g></g><rect class="legendtoggle" x="0" y="-10.6" width="126.921875" height="21.2" style="fill: rgb(0, 0, 0); fill-opacity: 0;"/></g><g class="traces" transform="translate(0,100.39999999999999)" style="opacity: 1;"><text class="legendtext" text-anchor="start" x="40" y="5.46" style="font-family: 'Times new roman', monospace; font-size: 14px; fill: rgb(36, 36, 36); fill-opacity: 1; white-space: pre;">TS mean</text><g class="layers" style="opacity: 1;"><g class="legendfill"/><g class="legendlines"><path class="js-line" d="M5,0h30" style="fill: none; stroke: rgb(0, 204, 150); stroke-opacity: 1; stroke-width: 2px;"/></g><g class="legendsymbols"><g class="legendpoints"/></g></g><rect class="legendtoggle" x="0" y="-10.6" width="126.921875" height="21.2" style="fill: rgb(0, 0, 0); fill-opacity: 0;"/></g><g class="traces" transform="translate(0,121.6)" style="opacity: 1;"><text class="legendtext" text-anchor="start" x="40" y="5.46" style="font-family: 'Times new roman', monospace; font-size: 14px; fill: rgb(36, 36, 36); fill-opacity: 1; white-space: pre;">TS max</text><g class="layers" style="opacity: 1;"><g class="legendfill"/><g class="legendlines"><path class="js-line" d="M5,0h30" style="fill: none; stroke: rgb(0, 204, 150); stroke-opacity: 1; stroke-dasharray: 9px, 9px; stroke-width: 2px;"/></g><g class="legendsymbols"><g class="legendpoints"/></g></g><rect class="legendtoggle" x="0" y="-10.6" width="126.921875" height="21.2" style="fill: rgb(0, 0, 0); fill-opacity: 0;"/></g></g></g><rect class="scrollbar" rx="20" ry="3" width="0" height="0" x="0" y="0" style="fill: rgb(128, 139, 164); fill-opacity: 1;"/></g><g class="g-gtitle"/><g class="g-xtitle" transform="translate(0,-3.7124999999999773)"><text class="xtitle" x="192.5" y="274.7125" text-anchor="middle" style="font-family: 'Times new roman', monospace; font-size: 17px; fill: rgb(36, 36, 36); opacity: 1; font-weight: normal; white-space: pre;">time in minutes</text></g><g class="g-ytitle" transform="translate(14.603515625,0)"><text class="ytitle" transform="rotate(-90,0.3968749999999943,111)" x="0.3968749999999943" y="111" text-anchor="middle" style="font-family: 'Times new roman', monospace; font-size: 17px; fill: rgb(36, 36, 36); opacity: 1; font-weight: normal; white-space: pre;">fitness</text></g></g></svg>