<svg class="main-svg" xmlns="http://www.w3.org/2000/svg" xmlns:xlink="http://www.w3.org/1999/xlink" width="450" height="450" style="" viewBox="0 0 450 450"><rect x="0" y="0" width="450" height="450" style="fill: rgb(255, 255, 255); fill-opacity: 1;"/><defs id="defs-b534e7"><g class="clips"><clipPath id="clipb534e7xyplot" class="plotclip"><rect width="238" height="397"/></clipPath><clipPath class="axesclip" id="clipb534e7x"><rect x="75" y="0" width="238" height="450"/></clipPath><clipPath class="axesclip" id="clipb534e7y"><rect x="0" y="0" width="450" height="397"/></clipPath><clipPath class="axesclip" id="clipb534e7xy"><rect x="75" y="0" width="238" height="397"/></clipPath></g><g class="gradients"/><g class="patterns"/></defs><g class="bglayer"/><g class="layer-below"><g class="imagelayer"/><g class="shapelayer"/></g><g class="cartesianlayer"><g class="subplot xy"><g class="layer-subplot"><g class="shapelayer"/><g class="imagelayer"/></g><g class="minor-gridlayer"><g class="x"/><g class="y"/></g><g class="gridlayer"><g class="x"/><g class="y"/></g><g class="zerolinelayer"/><path class="xlines-below"/><path class="ylines-below"/><g class="overlines-below"/><g class="xaxislayer-below"/><g class="yaxislayer-below"/><g class="overaxes-below"/><g class="plot" transform="translate(75,0)" clip-path="url(#clipb534e7xyplot)"><g class="scatterlayer mlayer"><g class="trace scatter trace84e598" style="stroke-miterlimit: 2; opacity: 1;"><g class="fills"/><g class="errorbars"/><g class="lines"><path class="js-line" d="M10.45,368.44L10.62,373.45L11.14,372.57L11.32,371.78L12.44,369.35L12.77,369.87L13.72,371.78L13.93,371.31L14.14,369.48L14.28,377.15L14.72,374.24L15.08,375.15L15.41,376.06L15.61,374.91L15.83,374.56L16.23,372.98L16.54,373.42L16.82,373.62L17.38,374.74L17.83,374.19L18.03,373L18.63,365.92L18.72,364.01L19.64,358.95L19.7,359.95L20,359.66L20.72,368.58L20.92,367.1L21.01,365.43L21.77,353.03L22.2,353.64L22.26,353.29L22.3,353.99L22.65,347.98L22.68,347.19L22.85,343.4L22.99,346.38L23.04,346.7L23.36,343.41L23.47,345.16L23.49,345.74L23.91,349.43L24.29,348.56L24.38,348.05L24.61,346.6L25.05,348.61L25.09,349.28L25.37,363.26L25.97,359.63L26.17,357.11L27.9,336.17L28.19,341.03L28.22,341.91L29.2,349.7L29.47,350.81L30.66,361.05L30.95,358.98L30.99,358.36L32.51,337.96L32.6,338.13L33.41,339.78L33.61,338.55L33.81,338.64L34.01,337.32L34.73,329.13L34.77,327.82L35.82,321.49L36.01,320.41L36.42,319.86L36.45,320.87L37.43,335.06L37.58,332.56L37.63,331.78L38.45,320.68L38.67,323.83L38.71,323.89L38.85,324.84L38.88,327.12L39.93,355.16L39.97,355.07L40,355.23L40.07,355.87L40.48,353.37L40.64,352.45L42.86,338.44L42.9,337.9L42.97,337.51L43.53,337.61L43.8,337.24L44.9,331.81L44.9,331.31L44.95,330.78L45.1,337.08L45.13,338.71L46.37,364.44L46.56,362.5L50.25,331.96L50.45,330.56L50.64,331.03L50.9,329.65L52.26,314.8L52.44,312.93L53.99,303.73L54.06,302.07L55.32,288L55.48,287.29L55.95,285.68L56.21,284.22L56.23,285.25L56.68,282.85L56.94,282.45L57.54,280.81L57.54,279.73L58.16,269.9L58.42,268.51L59.64,261.98L59.7,262.39L59.76,262.63L61.23,284.68L61.44,284.87L62.39,286.41L62.58,285.8L62.78,285.35L63.71,283.96L64.15,284.38L64.24,284.31L64.24,284.86L64.84,284.4L65.04,284.25L65.92,282.11L66,281.36L67.65,261.06L67.7,259.4L67.77,260.26L68.36,259.87L68.61,259.83L68.96,260.25L69.24,259.63L69.45,259.09L70.74,246.86L70.92,249.91L71.09,251.25L72.77,268.13L72.82,269.26L74.1,291.47L74.3,291.76L74.89,290.48L75.11,289.82L76.25,280.14L76.45,277.82L76.72,271.2L77.22,272.69L77.44,272.36L78.29,271.7L78.33,272.69L78.76,275.55L79.06,274.22L79.13,274.22L79.55,270.14L79.55,268.38L80.36,260.67L80.39,261.3L81.8,252.93L81.85,253.13L81.89,253.34L83.12,258.59L83.27,258.22L83.37,257.69L87,241.64L87.34,242L87.66,241.91L88.75,238.27L89.09,238.44L89.16,238.31L90.11,231.25L90.33,229.09L93.29,202.62L93.33,203.18L93.51,202.27L94.58,195.16L94.78,196.89L94.98,196.06L95.18,194.82L95.22,197.14L95.43,197.08L95.63,197.04L95.67,198.75L96.26,196.54L96.47,195.47L96.85,197.74L97.06,196.43L97.26,195.11L99.08,183.76L99.15,184.07L99.35,183.74L99.68,188.81L99.71,189.99L101.9,270.25L102.14,271.38L102.84,276.03L103.09,276.31L104.03,282.29L104.08,284.24L104.17,284.02L104.17,285.23L104.17,287.54L104.84,296.79L105.08,295.97L105.2,295.56L105.41,294.51L105.49,297.31L105.6,295.11L105.63,297.13L106.15,300.36L106.26,299.78L106.34,298.34L106.38,297.48L106.74,299.49L107.02,300.56L108.35,311.76L108.4,312.31L108.78,317.18L109.01,315.58L109.23,314.58L109.62,314.75L109.84,312.36L110.27,312.53L110.49,310.73L110.93,310.82L110.93,311.9L111.36,311.52L111.45,312.51L112.23,309.25L112.28,310.54L112.79,309.12L112.88,310.9L112.88,311.68L113.92,319.98L114.23,318.22L114.3,317.71L114.37,318.02L114.57,316.04L114.61,314.89L116.38,293.69L116.55,291.62L118.65,266.08L118.86,263.83L126.21,196.39L126.26,196.92L127.87,189.76L127.95,191.15L127.99,192.08L128.15,191.9L128.2,194.01L128.74,186.4L129.23,187.4L129.37,187.76L129.97,185.71L130.5,185.96L130.59,186.4L130.93,187.45L131.21,187.01L131.5,186.86L131.5,186.03L132.09,186.8L132.35,186.47L133.09,187.21L133.36,186.89L133.37,185.8L134.03,183.49L134.33,183.75L134.54,183.64L134.54,181.35L134.94,180.89L135.14,181.64L135.34,182.47L135.55,181.15L135.97,182.29L136.17,183.38L138.36,191.33L138.57,190.9L139.07,192.75L139.27,191.71L139.27,189.83L139.82,190.35L139.99,190.55L140.83,190.11L140.83,189.35L141.27,187.44L141.49,187.52L141.61,186.53L142.74,177.73L142.97,176.8L143.34,177.23L144.02,173.4L144.3,174.08L144.52,173.6L144.94,170.73L145.14,168.24L146.07,167.33L146.07,167.77L146.13,168.28L147.09,166.96L147.14,167.79L147.28,168.19L147.7,167.98L147.9,167.08L148.59,173.83L148.79,173.55L149.59,173.3L149.63,175.38L150.44,178.67L150.63,178.11L150.83,178.11L151.51,181.14L151.7,180.87L152.41,180.37L152.46,179.1L153.06,178.48L153.12,178.73L153.31,176.51L153.7,175.8L153.7,177L153.9,176.76L154.1,176.63L155.69,168.9L155.89,168.53L157.45,155.83L157.52,156.24L157.72,155.07L157.77,156.41L157.99,156.28L158.03,158.1L161.24,145.89L161.45,144.4L163.12,136.28L163.32,136.31L165,130.21L165.2,129.21L166.46,125.28L166.5,127.72L166.55,129.06L167.02,126.15L167.24,125.01L167.95,120.35L167.95,121.5L168.17,120.56L170.05,113.81L170.24,113.32L171.73,110.3L171.81,111.01L172.02,111.1L172.23,110.24L172.85,110.44L173.07,108.79L173.69,109.43L173.79,108.26L175,108.3L175.2,105.79L176.45,103.47L176.65,102.53L176.85,102.57L177.06,101.53L177.46,100.72L177.64,101.65L177.84,101.67L178.04,100.67L179,102.38L179.2,100.92L181.14,93.99L181.48,94.3L181.68,94.25L181.88,94.23L182.08,92.13L182.85,89.02L182.89,90.34L183.1,90.39L183.29,90.37L183.49,89L183.87,89.05L184.01,88.56L184.2,88.53L184.99,89.76L185.18,89.74L185.56,88.66L185.83,89.29L186.11,90.26L186.31,90.29L186.52,91.12L186.52,89.82L187.12,92.22L187.39,93.51L187.8,94.4L187.99,94.36L188.21,94.35L188.43,94.34L188.5,96.45L190.01,93.14L190.05,95.5L190.36,95.46L190.42,96.52L190.74,93.72L191,95.46L191.22,95.07L191.86,92.76L191.89,94.62L192.08,95.65L192.47,94.75L192.67,94.43L194.57,95.25L194.61,96.55L194.65,98.5L195.24,96.92L195.42,96.89L195.69,99.19L196.08,98.78L196.28,98.47L196.48,98.06L196.52,99.84L196.94,99.49L197.13,99.08L197.17,100.17L197.76,99.62L197.95,99.49L198.56,99.25L198.59,100.44L199.36,100.29L199.42,98.87L200.06,97.49L200.21,97.85L200.41,97.8L201.46,97.81L201.46,95.93L201.66,95.86L201.7,98.18L202.58,98.1L202.64,98.92L202.78,101.79L203.06,99.92L203.26,99.93L203.93,100.77L204.13,100.4L204.33,100.23L204.42,100.45L204.82,99.88L205.03,98.76L206.09,97.07L206.29,97.54L206.34,98.51L206.73,97.34L207.21,97.9L207.25,99.76L208.05,99.66L208.09,101.6L208.5,105.09L208.9,104.91L209.1,104.91L209.31,104.91L209.35,107.08L210.16,104.76L210.2,107.17L210.87,106.05L210.9,108.29L211.13,109.42L211.18,110.8L211.36,110.96L211.4,112.86L212.03,117.29L212.16,117.55L213.18,117.47L213.28,116.5L213.99,116.74L214.09,117.22L215.06,114.72L215.24,115.05L215.45,115.04L215.64,115.29L215.85,114.84L216.05,114.24L216.3,114.84L218.81,109.03L218.86,110.18L220.74,110.05L220.94,109.39L221.13,109.36L221.33,106.97L221.94,107.13L222.15,105.36L222.84,106.82L223.13,107.89L223.42,103.54L223.84,105.47L224.04,105.47L224.46,104.04L224.82,104.64L225.11,105.45L225.16,109.63L225.87,109.45L225.87,107.05L226.73,110.88L227.14,109.42L227.37,109.74L228.2,108.28L228.42,108.32L228.62,106.58L228.97,107.73L229.19,108.33L229.68,107.41L229.72,108.83L229.81,109.8L230.43,109.92L230.74,111.08L231.38,108.4L231.43,109.38L231.76,110.66L231.99,109.75L232.28,110.17L232.62,111.43L232.94,110.95L233.16,111.4L233.47,112.56L233.68,114.6L233.89,112.44L234.8,112.65L235.02,110.32L235.44,110.31L235.64,111.34L236.07,112.4L236.41,112.13L236.54,110.84L237.76,112.34L237.97,112.36" style="vector-effect: non-scaling-stroke; fill: none; stroke: rgb(99, 110, 250); stroke-opacity: 1; stroke-width: 2px; opacity: 1;"/></g><g class="points"/><g class="text"/></g><g class="trace scatter trace54b681" style="stroke-miterlimit: 2; opacity: 1;"><g class="fills"/><g class="errorbars"/><g class="lines"><path class="js-line" d="M0,233.75L1.1,233.75L1.2,143.33L2.1,122.35L2.18,122.35L2.72,122.35L2.82,119.95L8.99,119.95L9.15,111.66L11.32,111.66L11.55,110.14L11.81,110.14L12.03,83.89L12.77,32.15L13.09,32.15L25.58,32.15L25.77,31.1L46.37,31.1L46.56,23.25L220.55,22.89L220.74,22.42L237.97,22.42" style="vector-effect: non-scaling-stroke; fill: none; stroke: rgb(99, 110, 250); stroke-opacity: 1; stroke-width: 2px; opacity: 1; stroke-dasharray: 9px, 9px;"/></g><g class="points"/><g class="text"/></g><g class="trace scatter trace43a201" style="stroke-miterlimit: 2; opacity: 1;"><g class="fills"/><g class="errorbars"/><g class="lines"><path class="js-line" d="M17.64,269.27L17.67,270.14L18.15,266.42L18.32,267.97L18.35,267.9L18.41,273.43L19.09,270.78L19.14,271.2L19.42,272.12L19.42,269.94L19.46,268.48L19.73,269.65L19.77,271.79L19.93,271.42L19.93,272.68L20.13,272.28L20.13,269.84L20.74,275.47L20.95,272.9L21.17,271.69L21.48,268.34L21.79,269.45L21.82,270.9L21.96,266.74L22.38,269.93L22.59,269.43L23.1,265.7L23.14,266.78L23.39,267.09L23.39,265.28L24,275.84L24.13,273.84L24.16,275.21L24.94,272.57L24.98,274.53L24.98,275.5L25.15,273.91L25.66,279.6L25.75,278.64L25.99,273.29L26.13,273.89L26.13,271.7L26.54,274.1L26.88,272.83L26.88,271.21L27.01,273.31L27.36,268.02L27.55,269.65L27.76,269.71L28.34,277.95L28.5,275.11L28.54,275.93L28.59,277.3L28.59,275.34L28.59,276.13L28.8,275.06L28.84,277.91L29.51,269.52L29.57,269.48L29.71,266.77L30.21,271.31L30.5,270.22L30.5,270.92L30.75,264.03L31.22,265.03L31.26,265.88L31.47,268.15L31.9,262.05L31.9,259.73L32.15,256.73L32.42,260.16L32.59,256.77L32.8,255.7L33.27,255.21L33.29,258.88L33.53,257.17L33.83,257.21L34.24,256.19L34.29,258.67L34.37,257.94L34.58,257.64L35.43,246.27L35.72,251.01L35.72,252.01L36.46,245.85L36.46,248.63L36.5,249.32L36.8,243.74L37.23,251.2L37.44,249.75L37.66,255.48L38.09,248.83L38.12,251.93L38.25,252.25L38.77,254.54L38.82,250.37L39.04,250.06L39.43,256.58L39.8,254.92L39.98,254.14L40.15,254.8L40.64,249.22L40.86,249.46L41.05,256.27L41.18,246.02L41.38,246L41.61,244.31L41.61,247.49L41.61,247.74L41.66,248.78L41.98,239.2L42.16,240.18L42.47,239.95L43.05,232.9L43.32,232.11L43.32,228.35L44.03,232.92L44.08,233.5L44.14,231.48L44.4,236.46L44.55,234.96L44.88,233.22L44.88,233.4L44.97,231.94L45.53,232.08L45.77,231.77L45.77,231.57L46.15,235.83L46.15,234.18L46.54,234L47.06,238.2L47.23,230.06L47.46,228.01L47.46,226.46L48.05,231.19L48.25,230.15L48.25,232.57L48.72,228.26L49,228.9L49.05,229.49L49.85,227.02L49.85,229.33L50.03,228.14L50.59,237.66L50.59,236.52L50.8,234.62L51.17,238.87L51.52,231.64L51.55,234.19L51.58,236.07L51.97,236.2L51.97,237.05L52.63,232.13L52.67,237.49L52.67,237.2L52.88,235.14L52.91,238.97L53.49,233.15L53.68,233.86L53.71,237.33L54.18,235.7L54.48,235.24L55.13,231.17L55.17,232.64L55.38,232.04L55.54,236.81L55.96,226.05L56.16,226.04L56.39,221.65L56.51,230.65L56.81,230.32L57.02,230.73L57.52,231.4L57.72,228.56L57.72,227.41L58.54,221.42L58.54,222.05L58.73,220.08L58.74,220.34L58.96,212.88L59.28,216.54L59.47,217.37L59.51,220.1L59.94,214.45L59.94,214.29L59.99,215.38L60.39,208.15L60.41,208.86L60.41,208.09L60.61,206.62L61.09,214.59L61.24,214.14L61.24,215.39L61.44,200.98L61.98,210.14L62.02,211.37L62.25,211.6L62.25,208.22L62.25,208.66L62.25,207.42L62.25,209.87L62.55,202.69L62.97,206.9L63.04,207L63.72,209.09L63.98,209.04L64.14,209L64.14,207.43L64.46,208.55L64.68,203.23L64.68,205.56L64.91,204.57L65.44,201.72L65.56,208.38L65.75,206.6L66.12,209.13L66.45,198.12L66.57,198.05L67.43,183.94L67.72,185.29L67.75,187.45L68.46,173.69L68.46,174.98L68.73,174.98L69.43,171.11L69.48,171.22L69.54,171.28L69.88,172.24L69.88,169.38L70.12,170.11L70.32,170.05L70.38,172.8L70.6,168.93L70.64,168.39L70.97,163.01L71.39,170.03L71.39,168.58L71.45,168.29L72.12,184.92L72.12,184.29L72.33,183.47L72.33,182.7L72.82,187.9L73.02,186.42L73.26,187.81L73.61,188.39L73.61,185.98L73.61,185.1L74.24,193.51L74.24,192.08L74.44,191.83L74.45,189.81L74.56,199.11L75.15,192.28L75.34,192.35L75.67,196.26L75.67,192.63L75.67,191.8L75.87,188.33L75.92,192.45L76.41,191.5L76.45,191.7L77.14,178.63L77.14,179.5L77.21,179.06L77.7,174.53L77.73,178.42L78.01,179.12L78.27,179.3L78.58,172.56L78.58,172.17L78.78,171.71L78.78,174.22L79.02,170.18L79.02,170.91L79.02,170.05L79.02,170.62L79.52,153.17L79.52,153.65L79.79,154.27L80.47,149.45L80.51,150.32L80.71,150.82L81.11,147.1L81.45,159.46L81.49,152.61L81.7,151.72L81.75,157.69L82.17,151.05L82.45,152.47L82.46,151.9L83.2,170.15L83.4,171.37L83.45,172.54L83.93,159.7L84.24,161.93L84.24,162.76L84.95,155.72L84.95,158.02L85.06,157.84L85.06,161.35L85.49,151.04L85.76,153.17L85.95,152.31L85.95,153.45L86.51,133.99L86.7,135.54L86.88,134.63L87.08,134.09L87.42,138.72L87.62,136.81L87.69,137.42L88.18,143.42L88.18,136.21L88.38,137.83L88.38,137.39L88.88,141.53L88.98,134.76L88.98,133.03L89.18,137.81L89.18,127.5L89.73,132.28L89.81,132.68L89.81,132.52L90.53,144.45L90.54,140.77L90.74,141.01L91.05,139.73L91.3,141.05L91.31,142.78L91.54,133.41L92,139.68L92.2,139.26L92.52,123.93L92.82,134.88L93.03,133.44L93.39,140.12L93.39,141.01L93.69,127.62L93.83,142.05L94.07,131.49L94.24,130.74L94.24,132.05L94.25,124.25L94.84,126.57L95.01,126.18L95.21,128.01L95.21,125.75L95.21,127.8L95.22,128.66L95.42,125.93L95.86,135.64L96.04,135.48L96.62,150.26L96.7,148.74L96.96,149.2L97.41,149.16L97.7,162.41L97.7,159.68L97.98,160.89L97.98,162.12L98.71,148.81L98.72,149.2L98.8,148.47L98.81,138.13L99.55,196.7L99.56,197.56L99.56,194.89L100.31,202.94L100.31,202.07L100.46,200.39L100.46,201.67L101.14,193.91L101.35,194.09L101.77,191.37L101.77,194.55L101.77,194.32L101.77,195.3L101.77,199.45L102.02,188.1L102.5,190.71L102.69,190.77L103.54,205.58L103.54,204.43L103.54,204.14L104.02,210.62L104.22,206.26L104.42,205.52L105.14,196.77L105.14,198.26L105.26,197.7L105.59,195.11L105.79,205.98L105.79,204.63L106.07,204.69L106.28,203.59L106.7,207.86L106.7,206.99L106.92,206.12L107.54,194.64L107.57,197.43L107.69,196.66L107.69,195.5L107.88,206.76L108.42,203.39L108.48,204.89L108.77,209.65L109.22,208.85L109.43,209.06L110.12,199.32L110.16,200.82L110.38,200.81L110.75,195.43L110.96,197.21L111.16,196.34L113.41,184.11L113.62,184.78L113.65,186.31L113.65,185.16L113.65,192.97L114.27,190.44L114.47,190.43L114.97,201.14L115.21,193.78L115.42,193.91L115.47,195.5L116.29,175.43L116.52,180.66L116.72,181.8L116.72,181.93L117.14,175.04L117.39,176.71L117.59,175.82L117.79,173.5L118.25,174.74L118.44,173.85L118.84,179.22L119.12,176.88L119.31,176.02L119.94,167.24L119.94,167.46L120.14,167.48L120.35,165.51L120.85,174.78L120.89,173.93L121.08,173.26L121.31,171.32L121.32,179.38L121.74,178.67L121.97,178.13L122.08,180.44L122.53,176.06L122.8,176.35L123.08,176.48L123.51,172.42L123.61,172.13L123.62,173.96L123.99,167.97L124.23,171.24L124.46,172.46L125.06,165.13L125.06,166.37L125.25,165.52L125.33,166.89L125.33,164.67L125.33,163.8L125.48,161.72L125.48,162L125.48,161.1L125.48,161.98L125.89,154.48L126.19,155.34L126.49,155.43L126.55,156.04L126.95,152.91L126.95,151.92L126.96,144.97L127.65,158.4L127.65,157.28L127.84,157.28L127.84,154.37L128.59,162.76L128.59,160.46L128.81,159.89L128.87,163.83L129.48,153.25L129.5,155.85L129.7,155.85L129.74,156.1L130.35,146.75L130.57,146.81L130.76,143.29L130.76,142.1L130.76,143.29L131.18,128.98L131.47,129.97L131.56,129.72L131.56,132.16L131.8,123.38L132.29,124.01L132.57,124.14L132.83,120.81L132.83,124.36L132.99,123.26L133.33,123.6L133.89,111.74L133.89,113.76L134.13,112.9L134.13,111.73L134.88,118.14L134.89,117L134.93,119.69L135.36,115.94L135.36,115.94L135.68,117.07L135.68,116.1L135.72,124.12L136.41,120.21L136.45,122.65L136.92,135.56L137.15,135.45L137.36,135.46L137.37,137.41L137.92,133.48L138.13,132.36L138.13,133.23L138.66,119.09L138.72,121.13L138.92,120.25L138.92,120.64L139.12,113.26L139.67,115.08L139.87,113.86L140.61,107.58L140.82,107.56L141.55,77.11L141.63,77.47L141.81,72.78L142.35,75.49L142.41,75.32L142.62,75.27L142.62,76.73L142.69,77.54L142.72,71.43L142.72,71.43L142.93,70.25L143.14,69.05L143.67,73.63L143.88,73.61L144.25,70.73L144.54,75.75L144.54,75.75L144.75,75.71L145.07,76.59L145.22,71.06L145.45,72.09L145.68,70.65L145.69,75.05L146.02,67.47L146.24,72.43L146.46,72.43L146.88,73.15L147.1,62.38L147.1,63.73L147.3,63.73L147.86,60.7L147.92,64.33L147.92,63.46L148.19,62.26L148.81,56.91L149.07,56.97L149.2,58.16L149.55,54.69L149.55,54.69L149.55,53.83L149.9,54.8L149.9,54.8L149.9,53.64L150.13,54.6L150.58,49.02L150.58,49.04L150.8,49.45L151.18,57.76L151.4,54.78L151.6,53.59L151.6,52.41L152.11,59.78L152.31,57.56L152.46,57.99L152.72,62.15L153.1,59.32L153.27,59.84L153.28,61.9L153.97,44.14L153.98,47.26L154.21,47.66L154.24,47.28L154.92,59.46L154.92,59.46L155.03,59.33L155.03,60.19L155.69,43.83L155.75,49L155.89,49.43L155.9,48.4L156.52,50.99L156.53,50.98L156.82,51.9L156.83,51.52L157.3,57L157.31,54.73L157.52,55.72L157.72,56.65L157.92,54.8L157.92,53.65L157.92,54.52L158.57,45.12L158.58,47.44L158.68,47.87L158.83,51.75L159.43,50.99L159.63,50.98L160.22,54.42L160.22,54.42L160.41,54.98L160.41,52.96L160.97,64.41L161.03,64.32L161.23,65.26L161.56,59.52L161.96,62.31L162.16,62.28L162.53,67.42L162.73,63.97L162.92,64.14L162.96,64.65L163.53,58.15L163.59,59.95L163.8,59.93L164.12,54.81L164.33,55.62L164.56,55.83L164.56,56.13L165.3,46.63L165.3,46.63L165.47,47.13L165.47,46.27L166.03,52.82L166.04,50.3L166.23,50.29L166.44,51.9L166.92,43.19L166.93,44.14L167.12,45.05L167.65,46.34L167.86,44.28L167.86,44.28L167.97,44.62L168.19,43.27L168.65,49.71L168.66,48.85L168.85,48.94L168.86,48.89L169.39,53.48L169.61,50.65L169.61,49.79L169.89,55.63L170.36,53.81L170.37,53.81L170.37,54.65L170.46,46.52L171.1,47.68L171.31,47.65L171.52,47.7L171.52,46.72L172.06,49.03L172.06,44.08L172.16,44.58L172.37,44.96L172.37,44.03L173.05,47.06L173.05,47.02L173.25,47.06L173.25,46.19L173.74,48.78L173.95,46.36L174.04,46.84L174.27,42.72L174.75,48.14L174.75,43.69L174.86,44.08L175.17,51.53L175.58,50.56L175.78,51.45L176.33,53.07L176.33,53.06L176.33,51.47L176.71,55.84L176.71,53.06L176.71,52.19L176.97,54.11L177.37,48.2L177.37,50.53L177.57,50.57L177.78,50.54L177.78,51.41L177.78,50.52L178.53,58.62L178.74,58.64L178.74,59.51L178.86,52.74L179.48,52.81L179.76,53.8L179.96,53.8L179.96,53.8L179.96,54.66L180.61,50.33L180.84,50.5L181.09,53.51L181.32,43.29L181.47,45.44L181.65,45.63L182.41,54.34L182.42,50.53L182.62,50.66L183.06,54.37L183.27,45.34L183.32,46.62L183.58,47.16L183.61,45.11L184.33,49.11L184.33,47.94L184.33,46.79L184.53,45.08L184.63,50.73L184.88,49.79L185.17,51.05L185.46,49.46L185.82,52.41L185.82,52.41L186.01,52.89L186.22,49.5L186.59,51.55L186.79,51.53L187.03,56.84L187.47,43.41L187.47,43.41L187.66,44.35L188.3,53.05L188.3,53.03L188.48,53.63L188.8,50.11L188.8,57.27L189.23,52.87L189.37,53.3L189.67,61.81L190.1,45.59L190.11,47.25L190.15,48.41L190.27,47.81L190.89,49.32L190.89,48.16L191.1,47.09L191.46,56.47L191.46,56.47L191.66,57.47L192.31,48.93L192.51,49.95L193.19,39.74L193.25,40.59L193.45,40.56L193.96,45.13L194.19,42.48L194.3,42.77L194.32,48.27L194.96,48.27L195.25,49.4L195.38,48.75L195.74,54.2L195.74,54.2L195.74,55.36L196.22,59.89L196.46,54.66L196.46,54.66L196.66,54.65L196.87,54.55L196.87,54.55L196.87,52.27L197.49,52.79L197.51,50.01L197.51,50.04L197.73,50.05L198.19,41.91L198.42,43.36L198.65,43.4L199.32,44.94L199.32,44.79L199.51,45.73L199.94,47.83L200.14,41.12L200.14,41.12L200.37,41.37L200.79,47.85L201,46.44L201.22,46.48L201.46,38.49L201.86,42.56L202.06,42.03L202.41,39.18L202.68,40.85L202.89,40.78L204.24,63.73L204.47,57.56L204.66,58.54L205.18,51.48L205.43,51.57L205.73,52.59L205.76,43.99L206.4,45.31L206.6,46.31L206.91,40.21L207.33,41.41L207.41,41.81L208.14,48.38L208.15,47.04L208.38,47.04L208.61,43.66L208.95,48.94L208.95,48.94L209.16,49.5L209.38,47.56L209.76,52.22L209.76,52.22L209.96,52.19L209.97,46.1L210.56,51L210.78,51.14L211.27,52.8L211.48,46.31L211.48,46.6L211.7,47.1L212.18,50.06L212.18,50.06L212.18,50.92L212.84,43.5L213.08,43.5L213.08,41.67L213.75,46.35L213.75,46.35L213.97,47.29L213.98,49.6L213.99,45.3L214.33,47.26L214.64,46.43L215.31,47L215.31,47.06L215.31,45.97L215.59,49.87L215.85,48.72L216.14,49.74L216.73,45.95L216.73,45.95L216.94,46.24L216.95,47.69L217.46,43.39L217.46,43.39L217.75,44.38L217.75,43.45L218.34,52.21L218.35,48.91L218.55,49.45L218.79,52.12L219.02,47.68L219.24,49.57L219.45,50.14L219.64,45.89L220.16,49.72L220.38,50.25L220.7,51.55L221.09,38.82L221.17,39.43L221.18,42.09L221.38,39.03L221.82,40.11L222.01,40.65L222.25,38.95L222.54,42.18L222.55,42.18L222.95,43.16L222.96,44.9L223.22,39.74L223.57,44.57L223.78,44.66L224.01,42.7L224.41,48.74L224.42,47.3L224.63,48.42L225.14,54L225.37,50.6L225.61,50.94L225.81,50.92L225.81,50.99L225.81,50.13L225.81,49.57L226.19,54.79L226.42,53.27L226.62,53.3L226.87,57.5L226.88,58.65L226.88,59.8L227.5,53.4L227.51,56.33L227.66,55.77L228.4,51.16L228.63,51.41L228.83,51.39L228.88,52.6L229.33,39.41L229.63,41.42L229.84,41.39L231.76,49.05L231.76,49.05L231.76,50.24L231.76,49.11L232.14,54.79L232.35,53.04L232.56,53.02L232.57,50.4L232.77,56.11L233.26,50.69L233.51,50.65L233.56,52.11L234.04,50.21L234.04,50.21L234.26,50.2L234.51,52.52L234.94,47.45L234.94,47.45L235.19,46.7L235.67,49.03L235.68,48.25L236.04,49.22L236.05,49.27L236.54,41.61L236.72,42.04L236.93,42L236.93,39.66L237.41,40.21L237.77,41.26L238,41.37" style="vector-effect: non-scaling-stroke; fill: none; stroke: rgb(239, 85, 59); stroke-opacity: 1; stroke-width: 2px; opacity: 1;"/></g><g class="points"/><g class="text"/></g><g class="trace scatter trace7d9744" style="stroke-miterlimit: 2; opacity: 1;"><g class="fills"/><g class="errorbars"/><g class="lines"><path class="js-line" d="M0,355.23L0.39,246.03L0.59,130.72L0.95,130.72L1.16,38.64L2.12,37.99L2.16,37.99L2.47,37.99L2.67,32.24L5.01,32.24L5.2,26.02L85.06,25.64L85.06,25.64L85.27,24.82L86.7,24.82L86.88,21.41L238,21.41" style="vector-effect: non-scaling-stroke; fill: none; stroke: rgb(239, 85, 59); stroke-opacity: 1; stroke-width: 2px; opacity: 1; stroke-dasharray: 9px, 9px;"/></g><g class="points"/><g class="text"/></g><g class="trace scatter trace12db69" style="stroke-miterlimit: 2; opacity: 1;"><g class="fills"/><g class="errorbars"/><g class="lines"><path class="js-line" d="M43.66,118.81L45.99,110.72L46.28,110.24L46.57,109.19L46.63,110.45L46.69,111.75L47.9,106.95L48.19,106.34L49.62,100.74L49.99,100.71L51.13,99.34L51.2,100.39L51.91,103.22L52.24,103.23L53.45,103.15L53.73,101.66L54.35,101.63L54.35,101.64L54.43,102.55L55.51,102.21L55.97,100.78L57.62,100.77L57.62,100.71L57.68,102.83L59.59,98.48L59.89,98.48L60.68,99.08L60.9,97.94L61.04,102.55L61.71,100.72L61.9,100.73L61.94,102.26L62.57,101.87L62.76,101.81L63,105.8L63.38,103.57L63.58,103.58L64.17,103.64L64.37,102L64.56,101.97L64.56,104.52L65.25,106.73L65.44,106.73L65.63,106.73L65.85,104.84L66.26,104.84L66.26,104.8L66.26,103.02L66.84,108.76L67.07,106.11L67.25,106.12L68.03,106.21L68.06,108.34L68.14,110.54L68.72,107.25L68.91,106.03L68.95,105.24L69.56,105.3L69.75,105.3L70.37,100.9L70.57,100.9L70.66,103.95L71.23,102.89L71.44,102.93L72.01,102.92L72.2,101.85L72.58,101.91L72.77,100L72.95,100L72.95,98.92L73.32,98.36L73.36,100.46L75.59,89.59L75.84,89.58L76.32,85.72L76.42,88.67L76.63,88.67L76.84,88.68L77.05,86.94L77.05,86.69L77.65,89.59L77.7,89.59L77.92,89.6L77.97,91.06L78.39,87.48L78.58,87.48L78.8,87.55L79,87.61L79.05,88.73L79.76,91.14L79.95,91.14L80.99,91.55L81.03,92.31L81.81,88.86L81.81,90.59L82.01,90.62L83.19,90.36L83.34,89.82L84.25,95.04L84.46,92.94L85.98,93.29L86.2,93.3L86.82,92.6L86.82,92.6L86.82,91.1L87.04,88.05L87.45,88.32L87.61,88.61L87.81,88.6L88.01,87.03L88.21,87.02L88.26,87.94L89.25,84.89L89.45,84.88L89.69,84.65L89.73,87.02L89.77,88.9L90.37,88.63L90.56,86.31L90.76,86.33L90.96,85.34L91.19,85.53L91.23,87.89L91.42,87.9L91.42,86.52L92.12,94.29L92.31,93.75L92.5,91.64L92.97,94.3L93.19,94.46L94.41,88.87L94.61,88.88L95.51,89.25L95.51,87.53L95.89,85.13L96.08,85.13L96.28,85.16L96.88,85.19L97.07,83.23L97.26,83.15L97.47,80.82L98.23,80.05L98.27,82.45L98.86,82.42L98.86,82.42L98.89,84.76L99.99,84.81L100.04,85.82L100.24,85.82L100.24,85.83L100.24,83.77L100.91,87.77L101.12,87.78L101.31,87.17L101.36,88.94L101.56,88.94L102.28,88.95L102.32,91.34L102.53,91.34L102.53,91.79L102.75,89.98L103.16,90.03L103.16,87.66L104,87.11L104.21,87.16L104.21,84.26L104.86,101.21L105.06,101.15L105.06,100.32L105.73,101.64L105.93,101.68L106.13,101.71L106.13,101.12L106.19,102.34L106.39,102.38L106.59,100.17L106.8,100.21L106.85,101.34L106.89,103L107.51,101.2L107.71,101.21L108.12,101.28L108.17,102.38L108.38,102.42L108.42,104.88L108.62,104.91L108.62,104.47L108.82,103.83L109.02,103.85L109.11,101.99L109.32,102.1L109.36,104.56L109.56,104.6L109.61,103.5L110.33,106.73L110.55,106.33L111.22,106.98L111.26,109.44L113.12,109.11L113.2,108.68L113.8,116.66L114.05,116.59L114.25,114.26L114.45,112.41L114.79,115.16L114.87,115.71L115.48,115.45L115.68,113.67L116.6,104.35L117.22,104.42L117.42,103.46L117.62,103.28L117.82,100.92L118.02,100.91L118.08,101.9L118.48,99.68L118.73,101.11L118.93,101.14L119.12,101.13L119.32,98.84L119.75,98.92L119.75,98.84L119.81,100.87L120.02,100.56L120.08,101.44L120.29,101.48L120.35,102.55L121.59,103.14L121.64,104.15L122.04,104.27L122.1,105.2L122.38,104.37L122.62,106.06L122.82,106.1L123.02,106.11L123.22,103.75L123.44,103.68L123.49,105.96L123.98,108.37L124.17,108.33L124.36,106.3L125.14,103.85L125.17,105.39L125.37,105.38L125.56,105.47L125.75,103.69L126.36,108.82L126.55,108.82L126.73,108.58L126.74,109.78L126.74,111.01L127.29,113.87L127.49,113.84L127.69,113.89L127.89,113.9L127.89,115.14L128.5,106.92L128.7,104.58L129.82,95.06L130.09,95.21L130.29,95.18L131.5,95.17L131.71,93.94L131.91,93.81L132.11,92.7L132.5,91.01L132.76,92.03L132.96,91.97L133.54,91.84L133.55,90.78L133.74,90.74L133.8,89.26L134.29,91.45L134.48,91.41L134.68,90.91L134.89,90.83L135.08,88.37L135.29,85.91L135.72,88.27L135.85,86.76L136.26,86.91L136.31,87.95L136.9,92.2L137.09,92.15L137.29,92.11L138.06,92.43L138.12,93.17L139.59,84.65L139.8,84.78L140.4,84.25L140.59,81.99L141.4,81.44L141.44,82.59L142.81,81.81L142.88,82.38L142.94,83.59L143.72,83.52L143.72,83.52L143.72,82.56L144.53,85.61L144.72,85.59L145.1,85.5L145.1,85.51L145.1,86.58L145.79,86.64L145.99,85.6L146.56,85.7L146.56,86.73L146.94,87.08L146.99,87.77L147.74,93.8L147.94,92.87L148.13,91.31L148.42,93.03L148.62,93L148.62,93.9L148.9,94.51L148.97,95.42L149.36,90.87L149.98,90.93L150.17,90.93L150.62,92.18L150.86,91.57L151.06,91.48L151.29,92.77L151.68,89.31L151.88,87.13L151.93,88.45L152.12,86.23L152.6,87.45L152.79,85.22L153.18,84.53L153.23,86.47L153.42,86.5L153.61,85.27L153.81,85.5L153.83,87.86L155.01,88.23L155.21,86.96L155.79,86.13L155.79,84.72L156.4,84.81L156.43,87.22L156.83,87.29L156.87,89.27L157.07,89.2L157.07,89.2L157.12,90.74L157.52,90.76L157.57,92.4L157.78,92.42L157.97,91.45L158.38,91.4L158.42,93.68L158.61,93.69L158.65,95.94L158.88,96.5L159.08,95.39L159.86,94.24L160.06,94.25L160.77,97.43L160.96,96.36L162.02,91.55L162.21,91.53L162.41,91.55L162.45,93.08L163.4,93.01L163.6,92.19L163.79,92.19L163.83,93.71L164.23,93.23L164.23,93.14L164.27,94.66L164.87,94.47L164.9,95.83L165.87,96.19L165.91,96.78L167.39,96.53L167.59,95.29L168.38,99L168.57,97.95L168.76,97.92L168.96,96.64L169.87,95.72L170.07,93.66L170.88,96L170.98,96.54L171.38,95.07L171.58,92.8L173.12,86.99L173.31,86.98L173.56,84.76L173.92,87.69L173.97,89.9L174.58,88.77L174.58,89.74L174.79,89.72L174.99,89.74L175.19,88.54L175.8,88.53L175.8,87.17L176.01,87.14L176.21,85.87L177.41,85.59L177.61,83.47L177.82,83.44L177.87,84.43L178.07,82.91L178.53,84.13L178.73,84.13L178.79,85.32L179.19,82.7L179.38,82.7L179.6,82.74L179.87,83.8L180.39,83.42L180.61,83.41L181.21,83.41L181.27,84.4L181.46,84.45L181.46,85.55L181.66,85.49L181.66,83.08L181.92,84.13L182.12,82.11L182.39,83.23L182.58,83.23L182.77,83.25L182.97,81.72L183.38,80.07L183.49,82.24L183.54,83.36L183.93,83.45L184.12,81.17L184.57,78.46L184.82,79.56L185.02,79.55L185.66,79.05L185.85,77.51L186.73,77.2L186.73,76.77L186.93,76.75L186.99,77.78L187.58,77.82L187.78,76.65L188.73,73.86L188.93,73.87L189.31,73.46L189.37,73.07L189.76,72.97L189.96,71.45L190.55,71.53L190.74,70.03L191.15,70.7L191.16,69.33L191.35,69.33L192.02,69.94L192.21,69.8L192.33,70.42L192.8,69.89L193,69.91L193.23,72.22L193.62,71.75L193.82,71.75L194.01,71.75L194.01,70.67L194.43,70.64L194.48,72.92L194.68,72.93L194.9,71.82L195.4,75.55L195.61,75.19L195.8,75.2L196.58,75.3L196.76,74.03L196.96,74L197.16,72.9L197.54,72.92L197.55,71.77L197.73,71.76L197.77,72.97L198.17,72.46L198.22,73.8L198.42,73.84L198.87,74.58L198.92,76.75L199.69,76.57L199.89,75.55L200.08,75.56L200.08,75.56L200.08,74.59L200.65,72.21L200.92,73.49L201.11,73.49L201.98,84.84L202.19,85.5L203.01,93.56L203.21,93.59L204.2,90.48L204.2,90.48L204.32,91.01L205.44,95.07L205.5,96.08L206.29,100.06L206.51,100.48L206.73,97.65L207.18,98.24L207.4,98.72L207.97,99.89L207.98,98.8L208.3,99.24L210.22,102.01L210.56,103.55L210.78,101.46L211.21,101.68L211.53,103.08L211.76,102.28L212.21,102.63L212.43,102.75L212.64,102.76L212.68,104.56L212.9,105.06L212.95,107.18L212.95,106.85L213.49,108.37L213.81,108.58L214.03,109.03L214.07,111.05L214.9,111.5L215.02,111.95L215.73,111.79L215.85,112.3L216.05,112.33L216.25,111.45L216.5,113.95L216.91,112.18L217.11,112.21L217.73,112.49L217.73,112.47L217.73,110.16L218.95,111.94L219.26,113.4L220.02,104.65L220.46,105.04L220.66,105.06L221.12,107.38L221.32,107.29L221.36,108.81L222.31,109.56L222.52,109.82L222.73,107.55L223.35,107.98L223.55,107.99L223.79,110.21L224.2,108.01L224.4,108.02L224.81,107.98L224.85,110.44L225.45,110.51L225.49,112.96L225.7,112.98L225.9,110.61L225.9,108.29L226.59,113.06L226.79,113.08L226.88,109.88L227.49,109.95L227.69,108.8L228.38,98.93L228.58,98.28L229.32,93.82L229.53,93.82L230.54,92.66L230.54,92.66L230.61,93.16L230.77,96.71L231.24,94.71L231.44,94.76L231.85,94.83L231.85,93.79L232.54,90.38L232.73,89.9L232.99,92.67L233.38,89.99L233.57,89.22L233.99,88.88L234.03,90.56L234.5,89.03L234.54,91L235.15,90.86L235.15,89.34L235.76,88.33L235.96,88.1L236.19,90.59L236.59,89.02L236.78,88.27L236.98,86.37L237.33,91.81L237.53,90.43L237.75,90.25L237.95,90.16" style="vector-effect: non-scaling-stroke; fill: none; stroke: rgb(0, 204, 150); stroke-opacity: 1; stroke-width: 2px; opacity: 1;"/></g><g class="points"/><g class="text"/></g><g class="trace scatter trace170ecb" style="stroke-miterlimit: 2; opacity: 1;"><g class="fills"/><g class="errorbars"/><g class="lines"><path class="js-line" d="M0,301.23L0.83,118.94L0.94,118.23L1.45,118.23L1.56,115.6L1.93,115.6L1.93,115.6L2.17,25.63L2.85,25.63L2.85,25.63L3.08,23.68L9.21,23.19L9.47,21.74L12.83,21.3L13.11,20.28L237.95,19.85" style="vector-effect: non-scaling-stroke; fill: none; stroke: rgb(0, 204, 150); stroke-opacity: 1; stroke-width: 2px; opacity: 1; stroke-dasharray: 9px, 9px;"/></g><g class="points"/><g class="text"/></g></g></g><g class="overplot"/><path class="xlines-above crisp" d="M74,397.5H313" style="fill: none; stroke-width: 1px; stroke: rgb(36, 36, 36); stroke-opacity: 1;"/><path class="ylines-above crisp" d="M74.5,0V397" style="fill: none; stroke-width: 1px; stroke: rgb(36, 36, 36); stroke-opacity: 1;"/><g class="overlines-above"/><g class="xaxislayer-above"><path class="xtick ticks crisp" d="M0,398v5" transform="translate(141.07,0)" style="stroke: rgb(68, 68, 68); stroke-opacity: 1; stroke-width: 1px;"/><path class="xtick ticks crisp" d="M0,398v5" transform="translate(207.2,0)" style="stroke: rgb(68, 68, 68); stroke-opacity: 1; stroke-width: 1px;"/><path class="xtick ticks crisp" d="M0,398v5" transform="translate(273.33000000000004,0)" style="stroke: rgb(68, 68, 68); stroke-opacity: 1; stroke-width: 1px;"/><g class="xtick"><text text-anchor="middle" x="0" y="419.8" transform="translate(141.07,0)" style="font-family: Arial, monospace; font-size: 14px; fill: rgb(36, 36, 36); fill-opacity: 1; white-space: pre; opacity: 1;">50</text></g><g class="xtick"><text text-anchor="middle" x="0" y="419.8" style="font-family: Arial, monospace; font-size: 14px; fill: rgb(36, 36, 36); fill-opacity: 1; white-space: pre; opacity: 1;" transform="translate(207.2,0)">100</text></g><g class="xtick"><text text-anchor="middle" x="0" y="419.8" style="font-family: Arial, monospace; font-size: 14px; fill: rgb(36, 36, 36); fill-opacity: 1; white-space: pre; opacity: 1;" transform="translate(273.33000000000004,0)">150</text></g></g><g class="yaxislayer-above"><path class="ytick ticks crisp" d="M74,0h-5" transform="translate(0,358.95)" style="stroke: rgb(68, 68, 68); stroke-opacity: 1; stroke-width: 1px;"/><path class="ytick ticks crisp" d="M74,0h-5" transform="translate(0,317.16)" style="stroke: rgb(68, 68, 68); stroke-opacity: 1; stroke-width: 1px;"/><path class="ytick ticks crisp" d="M74,0h-5" transform="translate(0,275.37)" style="stroke: rgb(68, 68, 68); stroke-opacity: 1; stroke-width: 1px;"/><path class="ytick ticks crisp" d="M74,0h-5" transform="translate(0,233.58)" style="stroke: rgb(68, 68, 68); stroke-opacity: 1; stroke-width: 1px;"/><path class="ytick ticks crisp" d="M74,0h-5" transform="translate(0,191.79)" style="stroke: rgb(68, 68, 68); stroke-opacity: 1; stroke-width: 1px;"/><path class="ytick ticks crisp" d="M74,0h-5" transform="translate(0,150)" style="stroke: rgb(68, 68, 68); stroke-opacity: 1; stroke-width: 1px;"/><path class="ytick ticks crisp" d="M74,0h-5" transform="translate(0,108.22)" style="stroke: rgb(68, 68, 68); stroke-opacity: 1; stroke-width: 1px;"/><path class="ytick ticks crisp" d="M74,0h-5" transform="translate(0,66.43)" style="stroke: rgb(68, 68, 68); stroke-opacity: 1; stroke-width: 1px;"/><path class="ytick ticks crisp" d="M74,0h-5" transform="translate(0,24.64)" style="stroke: rgb(68, 68, 68); stroke-opacity: 1; stroke-width: 1px;"/><g class="ytick"><text text-anchor="end" x="66.2" y="4.8999999999999995" transform="translate(0,358.95)" style="font-family: Arial, monospace; font-size: 14px; fill: rgb(36, 36, 36); fill-opacity: 1; white-space: pre; opacity: 1;">−1600</text></g><g class="ytick"><text text-anchor="end" x="66.2" y="4.8999999999999995" style="font-family: Arial, monospace; font-size: 14px; fill: rgb(36, 36, 36); fill-opacity: 1; white-space: pre; opacity: 1;" transform="translate(0,317.16)">−1400</text></g><g class="ytick"><text text-anchor="end" x="66.2" y="4.8999999999999995" style="font-family: Arial, monospace; font-size: 14px; fill: rgb(36, 36, 36); fill-opacity: 1; white-space: pre; opacity: 1;" transform="translate(0,275.37)">−1200</text></g><g class="ytick"><text text-anchor="end" x="66.2" y="4.8999999999999995" style="font-family: Arial, monospace; font-size: 14px; fill: rgb(36, 36, 36); fill-opacity: 1; white-space: pre; opacity: 1;" transform="translate(0,233.58)">−1000</text></g><g class="ytick"><text text-anchor="end" x="66.2" y="4.8999999999999995" style="font-family: Arial, monospace; font-size: 14px; fill: rgb(36, 36, 36); fill-opacity: 1; white-space: pre; opacity: 1;" transform="translate(0,191.79)">−800</text></g><g class="ytick"><text text-anchor="end" x="66.2" y="4.8999999999999995" style="font-family: Arial, monospace; font-size: 14px; fill: rgb(36, 36, 36); fill-opacity: 1; white-space: pre; opacity: 1;" transform="translate(0,150)">−600</text></g><g class="ytick"><text text-anchor="end" x="66.2" y="4.8999999999999995" style="font-family: Arial, monospace; font-size: 14px; fill: rgb(36, 36, 36); fill-opacity: 1; white-space: pre; opacity: 1;" transform="translate(0,108.22)">−400</text></g><g class="ytick"><text text-anchor="end" x="66.2" y="4.8999999999999995" style="font-family: Arial, monospace; font-size: 14px; fill: rgb(36, 36, 36); fill-opacity: 1; white-space: pre; opacity: 1;" transform="translate(0,66.43)">−200</text></g><g class="ytick"><text text-anchor="end" x="66.2" y="4.8999999999999995" style="font-family: Arial, monospace; font-size: 14px; fill: rgb(36, 36, 36); fill-opacity: 1; white-space: pre; opacity: 1;" transform="translate(0,24.64)">0</text></g></g><g class="overaxes-above"/></g></g><g class="polarlayer"/><g class="smithlayer"/><g class="ternarylayer"/><g class="geolayer"/><g class="funnelarealayer"/><g class="pielayer"/><g class="iciclelayer"/><g class="treemaplayer"/><g class="sunburstlayer"/><g class="glimages"/><defs id="topdefs-b534e7"><g class="clips"/><clipPath id="legendb534e7"><rect width="132" height="138" x="0" y="0"/></clipPath></defs><g class="layer-above"><g class="imagelayer"/><g class="shapelayer"/></g><g class="infolayer"><g class="legend" pointer-events="all" transform="translate(317.76,0)"><rect class="bg" shape-rendering="crispEdges" width="132" height="138" x="0" y="0" style="stroke: rgb(68, 68, 68); stroke-opacity: 1; fill: rgb(255, 255, 255); fill-opacity: 1; stroke-width: 0px;"/><g class="scrollbox" transform="" clip-path="url(#legendb534e7)"><g class="groups"><g class="traces" transform="translate(0,15.6)" style="opacity: 1;"><text class="legendtext" text-anchor="start" x="40" y="5.46" style="font-family: Arial, monospace; font-size: 14px; fill: rgb(36, 36, 36); fill-opacity: 1; white-space: pre;">Anneal mean</text><g class="layers" style="opacity: 1;"><g class="legendfill"/><g class="legendlines"><path class="js-line" d="M5,0h30" style="fill: none; stroke: rgb(99, 110, 250); stroke-opacity: 1; stroke-width: 2px;"/></g><g class="legendsymbols"><g class="legendpoints"/></g></g><rect class="legendtoggle" x="0" y="-10.6" width="126.375" height="21.2" style="fill: rgb(0, 0, 0); fill-opacity: 0;"/></g><g class="traces" transform="translate(0,36.8)" style="opacity: 1;"><text class="legendtext" text-anchor="start" x="40" y="5.46" style="font-family: Arial, monospace; font-size: 14px; fill: rgb(36, 36, 36); fill-opacity: 1; white-space: pre;">Anneal max</text><g class="layers" style="opacity: 1;"><g class="legendfill"/><g class="legendlines"><path class="js-line" d="M5,0h30" style="fill: none; stroke: rgb(99, 110, 250); stroke-opacity: 1; stroke-dasharray: 9px, 9px; stroke-width: 2px;"/></g><g class="legendsymbols"><g class="legendpoints"/></g></g><rect class="legendtoggle" x="0" y="-10.6" width="126.375" height="21.2" style="fill: rgb(0, 0, 0); fill-opacity: 0;"/></g><g class="traces" transform="translate(0,58)" style="opacity: 1;"><text class="legendtext" text-anchor="start" x="40" y="5.46" style="font-family: Arial, monospace; font-size: 14px; fill: rgb(36, 36, 36); fill-opacity: 1; white-space: pre;">NSGA2 mean</text><g class="layers" style="opacity: 1;"><g class="legendfill"/><g class="legendlines"><path class="js-line" d="M5,0h30" style="fill: none; stroke: rgb(239, 85, 59); stroke-opacity: 1; stroke-width: 2px;"/></g><g class="legendsymbols"><g class="legendpoints"/></g></g><rect class="legendtoggle" x="0" y="-10.6" width="126.375" height="21.2" style="fill: rgb(0, 0, 0); fill-opacity: 0;"/></g><g class="traces" transform="translate(0,79.19999999999999)" style="opacity: 1;"><text class="legendtext" text-anchor="start" x="40" y="5.46" style="font-family: Arial, monospace; font-size: 14px; fill: rgb(36, 36, 36); fill-opacity: 1; white-space: pre;">NSGA2 max</text><g class="layers" style="opacity: 1;"><g class="legendfill"/><g class="legendlines"><path class="js-line" d="M5,0h30" style="fill: none; stroke: rgb(239, 85, 59); stroke-opacity: 1; stroke-dasharray: 9px, 9px; stroke-width: 2px;"/></g><g class="legendsymbols"><g class="legendpoints"/></g></g><rect class="legendtoggle" x="0" y="-10.6" width="126.375" height="21.2" style="fill: rgb(0, 0, 0); fill-opacity: 0;"/></g><g class="traces" transform="translate(0,100.39999999999999)" style="opacity: 1;"><text class="legendtext" text-anchor="start" x="40" y="5.46" style="font-family: Arial, monospace; font-size: 14px; fill: rgb(36, 36, 36); fill-opacity: 1; white-space: pre;">Tabu mean</text><g class="layers" style="opacity: 1;"><g class="legendfill"/><g class="legendlines"><path class="js-line" d="M5,0h30" style="fill: none; stroke: rgb(0, 204, 150); stroke-opacity: 1; stroke-width: 2px;"/></g><g class="legendsymbols"><g class="legendpoints"/></g></g><rect class="legendtoggle" x="0" y="-10.6" width="126.375" height="21.2" style="fill: rgb(0, 0, 0); fill-opacity: 0;"/></g><g class="traces" transform="translate(0,121.6)" style="opacity: 1;"><text class="legendtext" text-anchor="start" x="40" y="5.46" style="font-family: Arial, monospace; font-size: 14px; fill: rgb(36, 36, 36); fill-opacity: 1; white-space: pre;">Tabu max</text><g class="layers" style="opacity: 1;"><g class="legendfill"/><g class="legendlines"><path class="js-line" d="M5,0h30" style="fill: none; stroke: rgb(0, 204, 150); stroke-opacity: 1; stroke-dasharray: 9px, 9px; stroke-width: 2px;"/></g><g class="legendsymbols"><g class="legendpoints"/></g></g><rect class="legendtoggle" x="0" y="-10.6" width="126.375" height="21.2" style="fill: rgb(0, 0, 0); fill-opacity: 0;"/></g></g></g><rect class="scrollbar" rx="20" ry="3" width="0" height="0" x="0" y="0" style="fill: rgb(128, 139, 164); fill-opacity: 1;"/></g><g class="g-gtitle"/><g class="g-xtitle" transform="translate(0,-3.7124999999999773)"><text class="xtitle" x="194" y="449.7125" text-anchor="middle" style="font-family: Arial, monospace; font-size: 17px; fill: rgb(36, 36, 36); opacity: 1; font-weight: normal; white-space: pre;">time in minutes</text></g><g class="g-ytitle" transform="translate(15.025390625,0)"><text class="ytitle" transform="rotate(-90,-0.025000000000005684,198.5)" x="-0.025000000000005684" y="198.5" text-anchor="middle" style="font-family: Arial, monospace; font-size: 17px; fill: rgb(36, 36, 36); opacity: 1; font-weight: normal; white-space: pre;">fitness</text></g></g></svg>