<svg class="main-svg" xmlns="http://www.w3.org/2000/svg" xmlns:xlink="http://www.w3.org/1999/xlink" width="650" height="500" style="" viewBox="0 0 650 500"><rect x="0" y="0" width="650" height="500" style="fill: rgb(255, 255, 255); fill-opacity: 1;"/><defs id="defs-b12f9f"><g class="clips"><clipPath id="clipb12f9fxyplot" class="plotclip"><rect width="411" height="320"/></clipPath><clipPath class="axesclip" id="clipb12f9fx"><rect x="87" y="0" width="411" height="500"/></clipPath><clipPath class="axesclip" id="clipb12f9fy"><rect x="0" y="100" width="650" height="320"/></clipPath><clipPath class="axesclip" id="clipb12f9fxy"><rect x="87" y="100" width="411" height="320"/></clipPath></g><g class="gradients"/><g class="patterns"/></defs><g class="bglayer"/><g class="layer-below"><g class="imagelayer"/><g class="shapelayer"/></g><g class="cartesianlayer"><g class="subplot xy"><g class="layer-subplot"><g class="shapelayer"/><g class="imagelayer"/></g><g class="minor-gridlayer"><g class="x"/><g class="y"/></g><g class="gridlayer"><g class="x"/><g class="y"/></g><g class="zerolinelayer"/><path class="xlines-below"/><path class="ylines-below"/><g class="overlines-below"/><g class="xaxislayer-below"/><g class="yaxislayer-below"/><g class="overaxes-below"/><g class="plot" transform="translate(87,100)" clip-path="url(#clipb12f9fxyplot)"><g class="scatterlayer mlayer"><g class="trace scatter tracef1412f" style="stroke-miterlimit: 2; opacity: 1;"><g class="fills"/><g class="errorbars"/><g class="lines"><path class="js-line" d="M55.5,265.65L55.62,265.91L56.11,265.43L56.27,265.25L57.98,257.48L58.15,257.03L58.35,256.58L58.64,257.5L58.8,258.24L60.06,259.4L61.06,260.01L63.02,261.28L63.99,260.67L66.73,262.13L67.45,260.85L71.02,262.52L71.21,263.59L71.48,263.19L71.75,263.46L71.99,263.81L72.38,265.81L72.58,266.6L73.31,269.26L73.73,268.44L73.88,268.33L74.88,263.32L75.03,265.28L75.09,265.72L75.26,266.64L75.82,266.03L75.95,266.13L76.13,267.5L76.13,267.99L77.06,271.85L77.29,270.72L77.37,270.69L77.69,270.64L77.77,272.34L78.02,277.59L78.59,275.46L78.68,275.38L81.02,292.02L81.22,292.4L82.39,291.11L82.48,291.53L82.56,292.03L83,294.81L83.32,292.37L83.43,292.25L83.56,292.12L83.66,292.84L83.75,293.55L84.05,295.03L84.49,294.14L84.61,293.5L86.33,292.37L86.61,292.19L88.13,291.25L89,291.37L91.14,291.45L91.79,290.87L94.5,289.44L95.1,289.38L95.67,289.34L96.44,290.31L96.44,291.88L97.28,292.62L98.92,293.37L98.92,293.07L99.77,293.12L102.25,293.72L102.35,294.79L107.14,291.7L107.92,291.61L108.22,293.62L109.12,294.01L110,293.37L110.08,294.16L110.17,294.77L112.16,295.17L112.26,296.08L113.4,300.65L113.5,300.94L114.26,304L114.42,303.64L115.01,302.79L117.81,298.15L118.46,297.54L118.82,301.11L119.14,300.34L119.33,299.06L120.05,297.25L120.54,297.5L120.82,297.26L121.67,299.38L122.52,298.53L122.97,300.33L123.07,301.21L123.22,301.84L123.57,300.53L123.66,300.18L124.07,300.14L124.07,299.03L125.28,299.24L126.09,298.29L129.85,293.52L129.98,292.81L130.21,293.71L130.42,292.5L130.53,291.88L131.28,286.65L131.37,287.35L131.95,288.13L132.08,289.03L132.22,288.82L132.4,289.58L132.5,290L133.13,289.55L133.73,291.77L134.05,292.39L137.56,285.57L138.17,284.54L140.14,280.4L140.24,279.59L143.62,269.6L143.72,269.96L144.36,268.8L145.29,267.42L146.22,267.55L148.93,264.78L149.05,265.38L149.16,265.67L150.25,270.02L150.36,270.29L151.07,268.89L151.27,269.05L151.37,268.34L152.27,269.03L152.38,268.01L153.56,263.53L153.75,262.29L154.18,260.74L154.4,262.38L154.51,263.38L156.29,271.55L156.38,272.61L156.94,278.34L157.02,280.36L157.72,286.38L157.85,285.59L157.97,285.58L158.51,292.45L159.06,291.59L159.2,290.71L159.29,291.27L159.79,290.06L159.89,290.31L159.97,290.57L160.08,290.89L160.34,289.9L160.47,289.57L160.64,289.58L160.64,288.64L166.64,279.61L167.28,279.42L167.92,279.29L168.1,280.15L170.03,288.96L170.9,288.98L170.91,289.27L171.74,288.59L175.81,287.74L175.81,287.75L177.15,286.95L179.99,281.07L180.25,280.86L181.44,280.47L181.75,280.3L182.34,280.03L183.58,280.33L183.87,280.17L184.47,280.92L185.6,282.48L185.88,283.21L188.29,294.37L188.64,293.47L189.53,291.49L189.81,292.13L190.07,292.95L192.27,298.62L192.69,298.17L193.25,297.37L193.38,298.18L193.49,298.99L195.18,295.66L195.81,294.64L197.78,292.33L197.95,293.31L201.76,286.65L202.04,286.86L202.04,287.61L202.04,288.56L202.66,288.2L202.93,288.01L203.23,288.67L204.86,288.01L205.25,288.41L205.42,288.81L206.21,288.69L206.48,288.73L208.24,288.76L209.13,287.6L212.34,284.02L213.23,283.24L216.71,279.24L217.38,277.91L218.96,274.14L219.83,273.82L220.94,272.92L221.04,273.44L221.14,273.78L221.23,274.34L221.65,272.93L221.87,271.61L223.63,260.61L223.81,260.21L225.72,255.37L226.53,254.3L226.54,253.87L227.34,252.75L228.75,250.83L229.28,248.74L230.11,252.98L230.27,251.92L230.48,250.94L232.13,245.95L232.48,245.68L235.54,237.61L236.18,235.8L236.4,236.05L236.7,235.44L236.82,234.94L237.06,236.43L237.33,234.76L237.58,233.09L240.35,221.2L240.67,220.7L243.12,217.86L243.57,217.54L244.38,216.48L245.04,214.98L249.29,211.19L249.71,210.92L251.14,209.21L251.9,208.24L254.07,206.49L254.5,205.38L255.48,200.87L256.16,201.13L256.76,201.43L258.71,201.64L259.12,201.61L260.79,201.38L260.84,202.3L262.14,202.71L262.21,203.17L262.38,203.76L262.51,201.89L262.72,202.59L262.87,202.64L263.42,204.66L263.75,203.62L263.94,203.03L264.36,205.36L264.43,206.75L264.9,208.06L265.34,207.18L265.4,206.69L266.04,206.59L267.71,232.43L267.78,231.76L267.97,229.92L268.44,231.51L268.66,231.1L270.05,229.08L270.31,227.56L270.71,226.24L270.78,227.55L270.85,228.88L272.32,229.75L272.39,230.67L272.88,237.66L273.19,235.54L273.39,233.93L275.51,225.47L275.87,225.46L276.63,225.54L276.72,226.17L276.97,227.79L277.26,227.18L277.57,226.88L278.7,226.44L278.76,227.11L278.93,231.01L279.4,226.45L279.58,224.93L280.11,218.47L280.67,220.47L280.79,220.68L280.9,219.49L281.27,223.34L281.37,223.63L282.53,223.36L282.59,224.47L284.44,241.8L284.65,241.08L284.84,240.36L285.1,241.62L286.44,234.76L286.77,235.59L286.98,235.03L288.14,235.29L288.5,236.12L289.99,238.35L290.35,238.17L291.36,237.44L291.45,236.85L292.36,234.66L292.6,232.98L294.9,217.57L294.9,215.83L295.62,212.8L295.69,211.89L296.03,210.93L296.36,212.39L296.36,212.37L296.45,212.9L296.9,217.52L297.21,215.03L297.28,213.95L297.44,213.79L297.6,214.55L297.6,213.43L298.54,201.7L298.93,204.69L299.07,205.07L300.02,207.03L300.3,206.45L300.59,206.18L301.18,205.62L301.28,206.31L301.28,207.75L302.05,211.47L302.23,210.82L302.67,210.53L303.26,209.77L303.71,210.4L303.77,211.43L305.79,227.34L305.87,227.43L306.67,229L306.73,229.56L307.25,232.03L307.54,231.02L307.82,229.93L311.59,219.79L311.65,219.89L312.24,222.28L312.29,223.21L312.77,227.19L313.05,227.06L313.32,226.74L314.13,226.28L314.4,226.88L314.67,227.44L316.38,229.71L316.66,228.19L319.77,215.11L319.85,214.98L320.22,214.57L320.54,215.16L320.62,215.26L322.46,209.48L322.7,208.95L325.14,204.52L325.36,204.09L326.9,201.94L326.97,203.32L327.14,203.75L328.14,197.66L328.18,199.57L328.34,199.79L328.51,198.99L328.85,197.99L329.96,193.01L330.1,192.24L331.34,187.31L331.52,186.1L333.36,178.95L333.6,178.51L336.12,165.91L336.32,165.45L337.26,162.59L337.46,160.89L338.99,156.05L339.22,157.14L339.29,158.08L340.53,163.98L340.83,163.94L341.32,165.01L341.51,163.15L341.57,162.27L342.48,158.41L342.65,158.54L343.03,157.8L346.58,159.13L346.89,160.02L347.72,161.7L347.99,162.6L348.73,164.71L349.03,164.9L350.66,163.03L350.98,162.96L351.95,162.15L352.37,162.48L352.8,161.72L352.8,161.08L354.02,160.91L354.12,160.7L354.29,160.67L354.3,161.91L354.57,162.23L359.56,150.87L359.61,152.3L359.67,153.77L360.26,151.55L360.54,151.14L361.81,150.42L362.22,150.65L362.5,149.96L362.55,151.31L362.85,151.02L363.16,150.72L364.01,151.94L364.31,150.75L364.6,150.08L364.74,150.57L365.19,150.89L365.27,151.3L365.58,149.36L365.7,149.63L365.87,148.41L366.2,148.88L366.45,148.79L366.76,148.78L367.24,149.82L367.33,150.26L367.42,149.13L367.88,152.19L367.96,153.23L368.64,155.47L369.08,155.25L369.62,159.63L370.02,159.39L370.69,161.91L371.02,162.33L371.48,165.26L371.56,165.93L371.87,170.33L371.91,171.37L373.02,193.51L373.35,193.98L373.44,192.26L373.87,195.21L374.2,195.43L374.45,195.98L374.83,195.7L375.16,195.67L375.68,195.04L375.82,196.35L375.91,196.35L376.07,195.53L376.7,194.8L376.85,195.29L377.02,195.92L377.68,197.53L377.99,197.47L378.3,197.45L378.62,197.36L378.68,198.07L378.72,199.1L381.06,198.08L381.19,198.44L382.43,196.59L382.83,196.87L383.24,196.77L384.77,207.12L384.77,208.77L385.81,204.47L385.97,203.99L386.31,205.84L386.6,204.06L386.73,203.68L388.49,208.93L388.8,209.13L389.12,209.31L389.42,207.49L390.04,205.64L390.3,206.13L390.55,206.61L391.43,210.74L391.62,209.46L392.69,216.93L392.91,216.57L393.35,216.16L393.94,217.32L394.14,217.19L394.26,217.29L394.53,216.89L394.59,217.98L394.94,218.22L397.31,212.21L397.43,212.19L398.94,209.17L398.99,209.64L399.9,206.69L399.91,205.27L400.04,205.64L401.09,198.05L401.4,198.31L402.51,191.32L402.52,189.84L402.89,191.08L403.38,187.81L403.61,187.37L405.7,183.95L405.71,181.98L406.47,180.69L406.55,181.94L406.95,181.52L409.1,178.18L409.42,177.75L409.43,174.85L409.93,174.91L410.29,174.51L410.5,174.07L410.61,174.97L410.77,174.88L410.9,175.02L411,174.65" style="vector-effect: non-scaling-stroke; fill: none; stroke: rgb(99, 110, 250); stroke-opacity: 1; stroke-width: 2px; opacity: 1;"/></g><g class="points"/><g class="text"/></g><g class="trace scatter trace45015a" style="stroke-miterlimit: 2; opacity: 1;"><g class="fills"/><g class="errorbars"/><g class="lines"><path class="js-line" d="M0,194.87L1.68,194.87L1.85,119.26L2.93,101.71L3.17,101.71L6.69,101.71L7.06,99.7L16.18,99.7L16.18,99.7L16.53,91.94L17.55,78L17.98,78L21.86,78L22.72,46.72L23.53,46.72L24.4,25.47L141.37,25.18L141.96,23.66L195.81,23.66L196.64,22.85L197.95,22.85L198.7,21.4L201.06,20.88L201.76,20L358.17,19.27L358.44,17.99L411,17.99" style="vector-effect: non-scaling-stroke; fill: none; stroke: rgb(99, 110, 250); stroke-opacity: 1; stroke-width: 2px; opacity: 1; stroke-dasharray: 9px, 9px;"/></g><g class="points"/><g class="text"/></g><g class="trace scatter traceaa68ab" style="stroke-miterlimit: 2; opacity: 1;"><g class="fills"/><g class="errorbars"/><g class="lines"><path class="js-line" d="M24.93,224.58L24.98,225.3L25.38,224.05L25.64,222.19L26.02,228.05L26.31,225.66L26.45,224.82L27.11,226.67L27.39,226.29L27.45,226.95L27.5,223.91L27.93,226.68L28.17,226.37L28.45,225.05L28.7,228.83L29.05,228.94L29.26,227.48L29.31,229.75L29.61,227.61L29.92,226.6L30.35,225.86L30.35,223.8L30.84,225.93L30.97,222.99L31.04,223.01L31.04,222.46L31.63,225.12L31.92,224.7L32.64,221.58L32.7,222.24L33.06,221.24L33.35,226.26L33.35,226.04L33.64,225.42L33.91,230.06L34.43,228.39L34.62,228.43L35.24,227.33L35.3,228.97L35.34,230.9L35.54,228.45L36.02,230.85L36.08,230.66L36.27,230.1L36.27,232.11L36.27,233.21L36.93,226.61L37.39,227.72L37.45,228.35L37.51,228.61L38.11,226.06L38.17,226.37L38.23,227.46L38.51,225.86L38.51,224.99L38.61,225.76L38.67,223.53L38.89,224.63L38.89,226.08L38.89,224.55L39.59,231.36L39.64,229.88L39.91,229.64L39.99,229.02L40.06,231.83L40.41,230.31L40.7,229.41L40.76,231.8L41.22,226.71L41.5,226.08L41.99,222.48L42.03,222.61L42.45,223.35L42.45,223.08L42.7,226.28L43.11,223.38L43.37,221.27L43.45,220.19L43.53,221.87L44.11,221.02L44.18,221.73L44.47,223.63L44.79,219.51L45.08,218.54L45.43,214.09L45.81,216.67L46.06,214.94L46.35,213.22L46.47,215.72L46.72,213.79L47.01,212.81L47.05,215.88L47.39,214.45L47.8,214.49L48.39,213.64L48.45,214.65L48.45,215.71L49,213.48L49.27,212.86L49.33,213.91L49.59,208.44L49.88,207.64L50.06,205.34L50.48,210.14L50.53,206.46L50.93,207.3L51.53,204.99L51.53,206.74L51.53,207.31L52.01,209.03L52.01,207.02L52.01,205.17L52.01,203.22L52.61,209.46L52.91,208.25L52.91,207.49L53.22,213.04L53.62,209.3L53.69,208.99L53.84,207.48L54.06,210.34L54.41,209.25L54.73,209.4L54.79,212.26L54.86,208.77L55.17,208.51L55.43,213.32L55.55,210.96L55.55,209.37L55.72,213.96L56.25,212.57L56.5,211.92L56.69,210.29L56.74,212.47L57.04,211.63L57.33,210.38L58.01,213.7L58.08,206.1L58.08,206.23L58.12,206.14L58.19,206.44L58.81,203.7L58.81,205.51L58.81,206.36L58.87,207.44L59.33,199.42L59.33,200.34L59.59,200.25L60.02,200.05L60.02,198.88L60.61,194.35L60.84,194.15L61.22,192.35L61.22,190.5L61.22,190.35L61.84,191.61L62.13,191.48L62.13,190.49L62.75,197.14L62.75,196.43L62.96,195.89L63.55,193.36L63.83,193.98L64.34,193.47L64.68,193.04L64.68,193.62L64.73,194.44L65.1,194.19L65.21,194.89L65.21,196.05L65.21,196.61L65.77,195.08L65.77,196.3L66.13,195.51L66.51,198.59L66.74,191.78L67.08,190.07L67.08,188.78L67.79,192.42L67.9,192.19L68.19,191.25L68.19,193.88L68.62,192.23L68.86,191.7L68.86,190.28L68.96,192.18L69.32,191.27L69.64,190.66L69.64,189.96L70.12,190.62L70.45,189.24L71,196.29L71.14,196.01L71.32,195.6L71.86,195.36L71.86,198.24L71.86,196.14L72.24,196.95L72.32,199.15L72.81,196.01L72.81,196.01L72.81,194.88L72.82,193.11L73.44,197.94L73.5,195.18L73.83,194.98L74.38,193.52L74.44,197.99L74.44,197.76L74.73,196.03L74.78,199.23L75.45,195.95L75.45,195.24L75.6,194.37L75.9,197.86L76.14,197.23L76.57,196.5L77.37,195.82L77.37,195.86L77.66,193.96L78.27,191.5L78.39,195.91L78.39,195.8L78.49,195.17L78.5,197.43L79.08,188.43L79.37,188.42L79.69,184.75L79.85,192.27L80,192L80.29,191.1L80.29,189.8L80.58,192.34L80.89,191.79L81.29,192.79L81.29,192.9L82.03,185.36L82.08,186.62L82.38,185.56L82.38,185.42L82.38,186.13L83.07,179.33L83.12,179.99L83.25,180.31L83.32,177.42L83.37,181.8L83.77,180.47L84.04,181.17L84.09,183.45L84.4,180.04L84.71,179.14L84.78,179.51L85.43,172.52L85.43,173.17L85.58,173.09L85.66,172.18L85.95,176.44L86.26,175.72L86.54,179.52L86.75,170.4L86.75,169.8L86.83,167.46L86.88,172L87.5,170.89L87.55,172.82L87.55,171.5L87.97,176.35L88.1,173.15L88.39,172.34L88.39,168.9L89.09,173.71L89.09,173.33L89.42,173.48L89.75,172.95L89.81,173.9L90.05,173.97L90.05,174.24L90.65,170.97L90.65,171.99L90.82,172.28L91.09,173.79L91.4,170.85L91.4,169.35L92.08,173.66L92.23,172.82L92.48,168.09L92.65,173.66L92.92,170.56L93.18,170.29L93.44,174.28L93.91,165.08L94.08,165.02L94.91,160.74L94.98,161.88L95.03,162.12L95.75,152.72L95.86,152.91L95.93,154.99L96.55,149.03L96.75,147.52L96.75,148.51L97.42,143.2L97.42,143.41L97.64,142.57L97.64,143.56L98.27,141.92L98.34,143.27L98.76,143.13L98.76,141.04L99.45,143.9L99.46,142.01L99.77,141.3L99.77,141.8L100.29,135.72L100.3,138.48L100.58,139.35L100.88,137.46L101.19,149.45L101.57,149.64L101.91,149.43L101.91,154.04L102.3,153.85L102.38,152.41L102.91,156.53L102.91,155.14L103.19,154.61L103.19,154.06L103.6,156.52L103.6,156.29L104.03,156.45L104.03,154.18L104.17,159.74L104.46,159.18L104.84,159.42L104.91,158.02L105.37,165.9L105.37,164.08L105.75,164.29L106.21,160.19L106.47,160.25L106.63,160.74L106.93,163.52L107.22,156.89L107.35,157.61L107.46,157.42L108.04,159.7L108.04,155.9L108.05,157.51L108.32,156.63L108.39,156.97L108.43,154.72L108.43,155.42L108.71,154.39L109.39,146.17L109.39,146.46L109.8,145.35L110.24,149.19L110.54,148.61L110.61,148.53L110.61,149.33L111.33,142.99L111.33,145.09L111.6,144.37L111.6,144.77L112.06,129.3L112.38,127.48L112.76,128.41L113.02,127.12L113.14,127.07L113.72,127.61L113.72,124.38L113.78,125.1L114.07,125.52L114.63,122.41L114.67,127.28L114.67,127.19L114.85,127.58L114.85,124.87L115.11,132.75L115.53,129.16L115.83,128.78L116.12,125.71L116.58,133.48L116.67,134.23L116.9,140.34L117.16,139.17L117.51,140.28L117.93,143.68L118.22,133.17L118.22,133.3L118.61,132.95L119.05,135.5L119.25,133.98L119.56,133.81L119.98,134.22L119.98,133.36L119.98,133.79L119.98,133.07L120.21,134.32L120.52,126.76L120.81,126.71L121.15,129.93L121.47,124.42L121.75,124.38L122.26,111.45L122.46,112.22L122.52,112.75L123.06,113.05L123.49,111.61L123.49,112.35L124.12,117.85L124.41,117.11L124.62,119.34L124.62,113.3L124.96,115.2L125.24,114.82L125.61,117.75L125.76,109.32L126.02,108.88L126.02,114.64L126.03,106.02L126.7,108.72L126.8,109.37L126.8,109.11L127.33,117.97L127.45,116.04L127.88,116.92L127.88,116.2L127.94,120.2L128.5,116.58L128.67,116.25L129.03,118.8L129.03,116.79L129.03,115.79L129.14,117.19L129.37,110.97L129.76,115.86L129.81,115.73L129.81,117.44L130.43,104.54L130.55,106.09L130.75,106.54L130.76,103.03L130.89,113.45L131.46,110.99L131.64,111.66L131.99,117.32L132.05,107.39L132.12,107.39L132.4,107.64L132.4,106.12L132.6,118.19L132.94,109.36L133.18,108.73L133.18,109.82L133.19,103.3L133.91,104.68L133.96,104.82L133.96,103.82L134.02,107.61L134.56,106.77L134.85,105.94L134.85,104.71L135.47,112.83L135.73,112.7L136.4,124.46L136.54,124.77L136.66,123.06L137.02,128.21L137.02,126.52L137.33,127.38L137.65,127.82L137.66,124.14L138.02,125.99L138.02,126.72L138.07,135.22L138.46,134.97L138.78,134.29L139.5,123.84L139.5,124.16L139.63,123.55L139.65,114.91L140.35,158.98L140.41,160.01L140.87,168.44L140.94,165.83L141.23,165.11L141.23,164.4L141.76,169.11L141.97,166.21L142.04,166.35L142.11,165.81L142.85,167.46L142.85,166.74L142.85,167.25L143.51,160.22L143.51,160.42L143.82,159.43L143.83,166.19L144.18,156.7L144.47,161.11L144.58,160.68L144.85,158.83L145.13,161.97L145.13,161.15L145.4,160.53L145.41,159.05L146.07,169.27L146.07,169.03L146.22,168.67L146.69,175.16L146.69,175.16L147,175.53L147.66,166.47L147.66,167.08L147.82,167.11L147.82,170.02L148.15,165.7L148.27,167.26L148.58,166.63L148.58,168.08L149.23,162.56L149.28,166.73L149.34,166.88L149.34,166.57L149.5,171.64L149.9,170.39L150.19,169.65L150.79,173.22L150.79,172.5L151.1,171.77L151.66,168.02L151.67,168.73L151.96,168L151.97,162.16L152.46,172.3L152.46,172.3L152.75,171.63L152.75,172.27L153.22,169.48L153.31,172.06L153.59,171.68L153.72,174.72L154.08,174.15L154.35,173.42L154.65,174.22L154.95,166.43L155.03,167.56L155.32,167.38L155.62,166.08L155.68,167.14L155.68,167.78L156.41,163.09L156.51,163.06L156.51,162.82L156.8,165.31L157.09,163.58L157.27,163.06L157.83,160.25L157.83,161.26L158.12,160.52L158.41,158.88L158.84,159.93L159.02,159.3L159.61,155.32L159.61,155.32L159.9,154.74L160.27,153.36L160.61,160.77L160.62,160.77L160.9,159.79L160.9,160.16L161.48,156.97L161.48,158.65L161.77,158.65L162.48,167.6L162.49,164.45L162.53,165.26L163.18,158.4L163.47,158.52L163.97,149.29L164.04,150.04L164.34,149.34L164.35,146.1L164.95,151.54L164.95,151.53L165.25,150.94L165.25,151.47L165.55,145.77L165.9,147.17L166.17,146.43L166.46,144.48L166.82,146.22L167.12,145.52L167.39,144.78L167.75,145.37L167.75,146.09L167.75,145.53L167.94,149.27L168.34,147.31L168.61,146.59L169.2,139.99L169.2,139.99L169.5,139.26L170.08,137.81L170.09,141.05L170.37,140.44L170.78,145.56L171.11,144.58L171.39,143.86L171.44,142.66L171.45,149.41L172.05,148.81L172.37,148.36L172.52,150.29L172.83,147.7L172.83,147.7L173.15,146.81L173.16,150.12L173.54,146.15L173.54,146.15L173.94,146.26L173.94,146.98L174.69,142.63L174.69,144.87L174.97,144.31L175.22,139.87L175.56,142.59L175.88,143.61L176.17,140.52L176.44,141.54L176.74,140.79L177.33,133.21L177.6,132.45L177.91,128.58L178.33,129.3L178.75,129.38L178.84,129.88L179.13,127.85L179.41,128.02L179.42,120.63L179.82,130.38L180,129.11L180.4,130.14L180.67,128.49L181.07,132.64L181.07,131.42L181.35,131.42L181.73,135.51L182.04,129.97L182.05,132.8L182.12,133.96L182.12,136.4L182.68,129.83L182.98,129.1L182.98,127.55L183.34,129.93L183.71,128.66L184,127.76L184.22,122.12L184.52,122.19L184.79,121.47L185.38,107.25L185.79,107.37L185.92,109.92L186.26,102.57L186.65,102.85L186.95,104.26L187.34,103.21L187.34,102.49L187.72,100.43L187.72,103.4L187.94,102.47L188.43,102.76L189.11,98.39L189.2,98.98L189.2,99.42L189.56,92.83L189.57,96.21L190,97.05L190.29,94.25L190.68,99.49L190.68,96.52L190.99,96.53L191.29,96.35L191.74,98.77L191.74,96.49L191.8,98.39L191.81,103.19L192.42,97.15L192.51,99.45L192.78,100.19L192.78,99.19L193.5,112.76L193.82,111.92L193.82,111.2L194.13,114.31L194.39,111.25L194.81,111.32L194.91,113.49L195.51,100.33L195.81,99.58L196.04,101.42L196.33,95.86L196.33,95.86L196.6,95.11L196.6,94.12L196.67,95.48L196.96,95.48L197.38,96.26L197.66,91.76L197.98,91.77L198.29,92.11L198.35,92.96L199.01,86.28L199.28,86.25L200.03,63.89L200.15,64.18L200.41,60.26L200.9,62.86L201.17,62.53L201.55,62.35L201.55,63.56L201.65,64.24L201.7,60.06L201.7,60.09L201.7,59.13L202.29,57.15L202.29,58.11L202.29,58.84L202.29,57.44L203.04,60.97L203.33,60.95L203.86,58.55L203.96,60.45L204.25,60.45L204.25,58.72L204.56,63.12L205,62.25L205.01,62.25L205.01,63.45L205.22,58.82L205.55,59.68L205.88,58.48L205.89,62.16L206.36,55.83L206.36,56.67L206.64,57.55L206.64,60.7L207.37,56.24L207.38,56.58L207.43,58.6L207.58,60.57L207.88,51.56L208.17,51.99L208.49,51.3L208.95,52.14L208.95,51.12L208.95,50.16L209.04,53.19L209.43,49.57L209.43,49.57L209.96,49.73L209.96,50.45L210.31,46.99L210.66,47.01L210.76,47.54L210.84,48.04L211.15,45.63L211.16,45.64L211.34,45.14L211.84,45.23L211.84,44.26L211.84,44.98L212.16,45.02L212.8,40.39L212.8,40.41L213.11,40.76L213.65,47.7L213.65,46.85L213.95,46.83L214.24,43.22L214.62,45.68L214.89,45.7L214.96,49.39L215.46,49.21L215.74,49.3L215.82,51.37L216.12,48.68L216.36,49.01L216.6,49.44L216.61,51.17L217.23,41.71L217.43,42.1L217.6,36.31L217.99,46.34L218.16,46.12L218.56,46.95L218.85,47.73L218.85,45.82L218.85,46.54L218.85,48.39L219.1,49.74L219.1,45.98L219.1,44.13L219.11,44.96L219.69,39.89L219.69,40.08L220.01,40.2L220.02,36.05L220.58,41.13L220.59,40.99L220.89,41.17L221.64,44.52L221.64,44.52L221.64,45.24L221.72,44.99L222.3,47.07L222.31,45.17L222.6,46L222.89,46.77L223.17,45.95L223.17,45.23L223.75,40.58L223.75,40.58L224.02,41.58L224.09,37.13L224.46,42.68L224.74,41.9L225.02,41.9L225.03,41.07L225.59,42.37L225.59,42.37L225.77,42.8L225.77,42.37L226.43,44.91L226.43,44.91L226.69,45.38L226.69,43.69L227.4,52.87L227.4,51.74L227.48,53.27L227.85,53.97L228.02,49.3L228.02,49.3L228.32,49.6L228.32,49.17L228.62,52.56L228.88,51.51L229.17,51.48L229.68,55.78L229.69,52.43L229.97,52.88L230.24,53.04L230.24,52.08L230.29,53.46L230.82,48.25L230.82,48.98L231.1,48.97L231.18,49.54L231.64,45.25L231.64,45.25L231.94,45.24L232.56,46.34L232.89,45.63L232.89,44.82L233.2,44.08L233.2,44.08L233.2,45.04L233.2,45.49L233.84,38.09L233.85,40.12L234.14,40.13L234.63,43.57L234.65,41.46L234.92,41.45L235.21,42.8L235.22,40.61L235.54,40.87L235.85,39.34L235.85,40.06L235.89,35.52L236.48,36.71L236.77,36.72L236.92,38.15L237.38,35.97L237.67,36.79L237.68,35.58L238.34,40.97L238.34,40.25L238.62,40.33L238.63,40.29L239.38,44.13L239.39,43.37L239.68,43.34L239.69,41.03L240.09,45.92L240.13,42.81L240.46,43.7L240.76,45.1L240.9,38.3L241.2,39.85L241.51,39.93L241.78,40.71L241.79,38.9L241.8,39.27L242.09,39.25L242.4,39.29L242.4,38.47L242.63,36.52L243.15,40.4L243.16,40.4L243.6,36.22L243.69,37.56L243.96,37.54L243.96,36.82L244.55,38.76L244.56,38.72L244.84,38.75L244.84,38.03L245.52,40.2L245.53,38.2L245.83,38.17L246.24,39.21L246.25,38.48L246.25,37.66L246.28,35.13L246.95,39.66L246.96,35.94L247.12,36.26L247.55,42.49L247.86,41.67L248.13,41.69L249.19,43.78L249.19,43.77L249.19,42.44L249.47,44.66L249.47,45.65L249.72,46.09L249.73,44.63L249.73,45.35L249.73,44.49L250.09,44.65L250.1,41.07L250.1,41.07L250.53,42.16L250.65,39.71L251.25,44.28L251.25,43.92L251.54,43.46L252.3,48.42L252.6,48.44L252.6,49.16L252.76,43.51L253.34,43.59L253.64,43.56L254.33,45.11L254.34,44.01L254.34,43.29L254.34,42.32L254.94,42.61L255.24,43.43L255.92,44.15L255.95,35.63L255.96,35.63L256.24,35.6L256.94,42.02L256.95,41.68L257.1,42.05L257.1,40.52L257.79,44.84L257.8,41.66L258.08,41.76L258.7,44.87L258.71,38.81L258.98,38.8L259.47,40.13L259.48,37.12L259.49,37.5L259.92,38.31L260.5,40.47L260.5,38.52L260.5,38.28L260.78,37.1L260.92,41.82L260.98,40.3L261.27,40.31L261.68,42.91L261.79,41.66L262.09,41.64L262.09,40.76L262.6,43.23L262.61,43.23L262.87,43.63L263.17,40.79L263.54,41.83L263.68,42.14L263.68,41.79L264.31,46.93L264.32,44.68L264.61,44.73L264.93,35.7L265.32,37.99L265.74,38.8L265.75,37.76L266.37,44.99L266.37,44.99L266.8,45.82L266.81,41.3L266.81,47.29L267.42,43.62L267.62,43.97L267.62,42.52L268.04,51.09L268.35,45.49L268.43,44.58L268.44,48.97L268.65,37.52L269.18,39.46L269.47,40.31L269.76,40.29L269.76,40.64L269.76,39.68L270.06,38.78L270.29,46.25L270.29,46.25L270.57,46.22L270.86,47.48L271.21,42.58L271.21,42.58L271.52,42.55L272.12,35.03L272.12,35.03L272.43,35.48L273.02,32.63L273.1,33.34L273.38,33.32L274.1,37.14L274.11,34.51L274.43,34.67L274.43,34.23L274.61,39.77L275.17,38.75L275.24,39.72L275.51,39.77L275.94,40.71L276.11,40.16L276.64,46.01L276.64,46.01L276.92,46.83L277.23,48.24L277.23,48.24L277.23,49.21L277.3,49.48L277.33,46.87L277.33,46.87L277.33,46.15L277.93,45.06L278.21,45.03L278.22,41.47L278.83,43.08L279.1,43.55L279.75,35.77L279.75,35.77L280.07,35.82L280.08,34.44L280.1,40.95L280.8,35.82L281.21,36.66L281.95,37.65L281.96,38.61L282.25,38.55L282.55,39.4L282.56,38.63L282.8,39.03L282.84,33.79L283.46,38.62L283.75,38.6L283.76,39.41L284.41,31.64L284.41,31.64L284.7,31.62L284.97,37.77L285.27,34.99L285.56,34.54L286.05,32.16L286.14,32.83L286.43,32.81L287.12,37.08L287.13,36.73L287.54,37.54L287.89,46.31L288.19,45.13L288.49,45.53L288.49,43.94L288.64,52.69L289.24,47.03L289.25,45.84L289.65,45.96L289.96,42.45L290,44.09L290.29,43.37L290.31,44.19L290.77,36.18L290.78,37.15L291.06,37.92L291.67,37.23L291.67,37.95L291.67,37.13L291.69,38.85L292.41,33.03L292.42,34.94L292.7,34.93L293,34.03L293.42,36.61L293.42,36.58L293.71,37.32L294.15,39.85L294.15,38.74L294.15,38.01L294.15,38.74L294.81,35.91L294.81,35.91L295.1,35.93L295.59,40.79L295.6,40.4L295.89,40.37L295.9,39.17L296.44,43.07L296.44,43.07L296.72,43.04L296.74,37.95L297.26,41.03L297.56,41.09L297.88,40.82L298.31,43.17L298.31,43.13L298.32,43.13L298.56,43.56L298.58,42.28L298.58,41.32L298.86,38.13L299.17,38.79L299.59,39.64L299.85,40.08L299.85,39.35L299.85,39.35L299.85,41.26L299.85,42.02L300.28,35.92L300.58,36.24L300.79,36.59L301.12,34.25L301.49,36.56L301.77,37.33L302.4,40.15L302.4,40.15L302.4,40.88L302.41,37.28L302.89,38.92L303.33,38.23L304.28,38.71L304.28,38.76L304.28,37.84L304.67,41.1L304.67,41.1L305.04,41.1L305.76,38.37L305.78,39L305.97,39.4L306.28,39.45L306.61,36.33L306.62,37.15L306.75,37.43L307.32,35.69L307.32,35.69L307.73,36.51L307.73,35.73L308.04,40.3L308.37,38.75L308.49,39.16L308.49,38.77L308.56,43.06L309.21,40.17L309.52,40.16L310.13,41.33L310.14,38.84L310.14,38.86L310.4,38.5L310.4,37.78L310.41,41.04L311.13,40.97L311.44,41.42L311.9,42.51L312.12,35.61L312.12,35.61L312.43,35.59L312.44,31.87L313.17,32.88L313.47,32.91L313.75,33.43L314.08,33.07L314.08,32.01L314.51,34.68L314.51,34.68L315.08,35.49L315.09,36.95L315.45,32.63L315.77,33.46L315.86,34.01L316.83,39.98L316.84,39.19L317.13,39.16L317.14,37.81L317.75,42.61L317.75,41.88L318.03,41.27L318.16,44.55L318.43,39.99L318.49,41.71L318.83,41.99L319.11,41.32L319.11,41.32L319.12,42.14L319.12,40.85L319.65,45.22L319.66,44.67L319.97,44.8L319.98,43.95L320.62,49.41L320.66,48.57L320.93,48.57L321.23,48.08L321.23,48.12L321.23,47.4L321.74,43.96L322.19,44.92L322.78,42.18L323.1,42.39L323.38,42.38L323.45,43.38L324.09,32.35L324.09,32.35L324.39,33.33L324.39,32.5L324.5,37.28L324.81,33.97L325.22,34.98L325.94,36.76L325.94,36.6L325.95,37.32L326.25,37.31L326.64,38.34L326.65,37.1L327.39,40.02L327.39,40.02L327.4,40.04L327.62,41.7L327.67,43.73L328.07,45.22L328.07,43.12L328.08,43.09L328.36,44.63L328.67,41.55L328.81,41.56L328.91,42.85L328.96,46.33L329.65,41.79L329.65,41.79L330,41.75L330.07,42.97L330.43,41.69L330.74,41.69L330.74,41.42L331.06,41.38L331.06,41.38L331.09,43.32L331.41,43.32L331.41,43.32L331.42,42.35L332.01,39.08L332.01,39.08L332.38,38.45L333.05,40.4L333.07,39.75L333.57,40.56L333.58,40.6L334.29,34.2L334.53,34.58L334.83,34.52L334.83,34.54L334.84,32.6L334.84,33.94L335.51,33.02L336.02,33.91L336.44,34.67L336.44,34.66L336.44,33.84L336.45,31.56L337.11,35.2L337.11,35.2L337.22,35.64L337.53,35.7L337.53,34.9L338.01,35.78L338.02,34.58L338.02,34.58L338.02,33.59L338.43,36.74L338.73,35.76L339.05,35.74L339.69,37.65L339.71,36.13L340.16,36.94L340.76,38.83L340.78,34.58L341.06,35.02L341.38,35.88L341.68,33.6L341.7,33.61L341.93,33.83L342.48,38.1L342.49,37.09L342.92,37.98L342.94,39.75L343.63,38.63L343.63,37.91L343.64,38.24L344.11,35.46L344.12,35.52L344.56,36.32L344.56,35.94L345.18,38.74L345.18,38.63L345.49,38.6L345.5,38.19L345.8,40.44L346.12,39.16L346.42,39.14L346.88,37.43L346.88,38.23L347.2,38.24L347.52,35.5L347.98,36.3L347.99,35.45L348.7,36.14L348.77,37.06L349.25,37.81L349.25,37.05L349.39,37.4L349.68,37.41L350.29,36.12L350.29,36.94L350.7,37.79L351.32,36.46L351.32,36.46L351.62,34.41L352.77,36.28L352.77,35.43L352.77,34.02L353.49,36.12L353.49,36.11L353.81,36.11L353.89,38.34L354.33,32.24L354.34,32.32L354.77,33.15L354.77,33.62L355.23,33.61L355.64,33.79L356.29,30.75L356.58,30.73L356.58,28.86L357.27,33.18L357.27,33.18L357.57,33.18L357.89,33.95L357.89,33.95L357.89,33.97L357.9,35.46L358.56,33.67L358.57,33.69L358.88,33.68L358.88,34.05L358.9,32.74L359.35,33.89L359.64,33.9L360.27,30.84L360.28,30.87L360.4,31.34L360.73,32.79L361.03,30.32L361.04,30.36L361.34,30.09L361.36,30.06L362.05,33L362.15,33.77L362.61,39.36L362.93,38.47L363.24,38.5L363.71,40.56L363.75,42.39L363.76,42.78L363.77,41.88L364.35,42.23L364.66,41.42L365.23,41.11L365.23,40.73L365.23,40.7L365.29,41.94L365.61,38.06L365.62,38.54L365.91,37.69L365.93,33.01L366.61,36.25L366.89,36.22L367.32,36.99L367.32,34.33L367.61,34.34L367.93,34.08L367.93,36.09L368.26,34.95L368.56,34.92L368.57,36.43L369.21,33.08L369.22,33.48L369.5,33.17L370.12,31.72L370.18,33.29L370.19,32.92L370.48,32.9L370.49,34.8L371.14,34.77L371.43,34.74L371.43,36.47L371.74,34.43L372.16,36.09L372.46,36.07L372.56,37.56L372.59,34.14L372.97,36.76L373.26,36.77L373.26,37.12L373.58,34.84L373.9,35.2L374.19,35.19L375.69,34.41L375.69,34.41L375.69,34.39L376.18,34.27L376.18,33.19L376.28,31.98L376.92,36.82L376.92,36.81L377.33,37.72L377.33,38.09L377.99,32.08L378.04,34.89L378.35,34.88L379.07,29.63L379.37,29.78L379.67,27.46L379.99,28.37L380.29,28.36L382.4,28.32L382.4,28.31L382.41,27.44L382.71,27.45L382.71,27.45L382.71,25.56L383.02,25.52L383.06,27.6L383.68,27.88L383.69,28.26L383.69,28.62L383.75,31.66L384.27,29.52L384.46,29.72L385.04,35.69L385.65,35.51L385.65,33.42L385.83,33.53L386.58,27.86L386.86,27.85L387.53,25.07L387.53,25.11L387.83,25.11L388.43,25.03L388.43,25.03L388.51,25.82L389.19,28.8L389.49,28.3L389.82,28.32L390.3,29.74L390.3,29.72L390.6,29.72L391.24,30.82L391.25,28.74L391.36,29.15L391.69,30.63L391.7,28.95L392,28.97L392.31,28.95L392.65,26.57L392.94,26.95L393.12,27.26L393.85,28.5L393.87,27.5L393.87,27.15L394.53,25.35L394.82,24.98L395.2,24.41L395.4,27.55L395.4,27.55L395.69,27.55L396.08,29.19L396.48,28.85L396.73,29.03L397.46,31.34L397.47,29.27L397.47,28.93L398.1,28.12L398.11,31.09L398.14,31.05L398.48,31.05L398.58,32.11L398.6,29.68L398.6,29.69L399.11,29.67L399.78,30.66L399.78,31.19L400.39,28.15L400.71,28.15L401.05,29.26L401.42,28.76L401.85,28.76L402.07,25.53L402.56,25.97L402.86,25.95L403.37,27.09L403.45,29.2L404,29.33L404.01,28.76L404.01,29.61L404.13,30.62L404.59,29.12L404.62,30.44L404.95,30.44L405.26,29.69L405.27,30.45L405.58,30.04L405.88,30.04L406.24,30.59L406.27,25.3L406.59,26.45L406.89,26.45L407.23,26L407.23,26.01L407.23,25.47L407.88,24.38L408.19,24.37L408.95,24.65L408.95,24.65L408.95,23.9L409.6,24L409.6,23.99L409.6,25.95L410.26,24.52L410.27,24.54L410.57,24.57L410.91,24.47L410.92,24.84" style="vector-effect: non-scaling-stroke; fill: none; stroke: rgb(239, 85, 59); stroke-opacity: 1; stroke-width: 2px; opacity: 1;"/></g><g class="points"/><g class="text"/></g><g class="trace scatter tracefba2d4" style="stroke-miterlimit: 2; opacity: 1;"><g class="fills"/><g class="errorbars"/><g class="lines"><path class="js-line" d="M0,296.45L0.55,205.14L0.83,108.71L1.34,108.71L1.64,31.71L2.57,31.17L2.86,31.17L3.49,31.17L3.77,26.36L7.07,26.36L7.34,21.16L120.21,20.84L120.21,20.84L120.5,20.15L122.52,20.15L122.78,17.31L410.92,16.91L410.92,16.91" style="vector-effect: non-scaling-stroke; fill: none; stroke: rgb(239, 85, 59); stroke-opacity: 1; stroke-width: 2px; opacity: 1; stroke-dasharray: 9px, 9px;"/></g><g class="points"/><g class="text"/></g><g class="trace scatter trace5d84c3" style="stroke-miterlimit: 2; opacity: 1;"><g class="fills"/><g class="errorbars"/><g class="lines"><path class="js-line" d="M61.71,98.75L64.42,92.21L64.54,92.6L65.81,90.71L65.89,91.76L65.98,92.85L67.27,89.29L67.69,88.84L68.9,86.36L69.31,85.27L71.26,83.34L71.77,82.93L72.26,82.47L72.36,83.35L72.42,85.47L73.26,84.96L73.37,85.71L75.54,85.66L75.93,84.42L76.81,84.39L76.81,84.4L76.92,85.15L78.44,84.87L79.09,83.68L81.43,83.67L81.43,83.61L81.52,85.39L84.21,81.76L84.64,81.75L85.75,82.26L86.07,81.3L86.55,85.15L86.9,83.63L87.2,83.63L87.48,83.63L87.54,84.92L88.7,84.54L88.76,85.81L89.03,85.74L89.03,87.88L89.85,86.02L90.12,86.01L90.69,86.07L90.97,84.7L91.23,84.67L91.23,86.8L91.57,87.63L91.89,87.49L92.15,87.5L92.75,88.65L93.06,87.07L93.63,87.07L93.63,87.04L93.63,85.55L94.45,90.35L94.72,90.32L94.72,88.72L94.72,86.69L95.32,88.18L95.59,88.18L96.14,88.22L96.19,89.99L96.29,91.84L96.83,90.17L97.12,89.08L98.03,87.45L98.3,87.46L98.57,87.23L98.84,85.26L99.16,85.87L99.45,83.78L99.73,83.78L99.78,85.73L99.86,86.33L100.13,85.43L100.39,85.43L100.67,85.44L101.76,85.47L102.04,84.57L102.58,84.62L102.84,83.02L103.1,83.02L103.1,82.12L103.62,81.65L103.67,83.41L105.44,78.77L105.7,78.77L105.96,74.85L106.25,74.86L106.52,74.31L107.18,74.31L107.18,73.3L107.85,71.08L107.9,73.05L107.99,73.55L108.59,73.56L108.89,72.1L108.89,71.9L109.04,74.3L109.39,74.3L109.73,74.32L110.12,74.33L110.19,75.55L110.47,75.54L110.47,74.08L110.78,72.56L111.05,72.56L111.36,72.61L111.65,72.66L111.71,73.6L112.45,75.6L112.72,75.61L114.45,75.95L114.52,76.59L115.61,73.71L115.61,75.15L117.56,74.96L117.78,74.51L119.07,78.87L119.35,77.12L122.7,76.83L122.7,75.58L123.01,73.03L123.29,73.04L123.58,73.26L124.09,73.49L124.38,72.17L124.66,72.17L124.73,72.94L125.85,70.38L126.13,70.39L126.75,70.19L126.8,72.17L127.14,73.74L127.42,73.44L127.71,73.51L128.82,70.77L128.88,70.93L129.62,78.19L129.91,78.23L130.46,77.8L130.73,76.03L131.38,78.26L131.7,78.39L132.53,76.93L132.82,76.96L133.99,73.78L134.26,73.79L134.97,74.03L134.97,72.59L135.51,70.59L135.78,70.59L136.91,70.64L137.18,69L137.45,68.94L137.74,66.98L138.82,66.34L138.87,68.35L139.7,68.32L139.7,68.32L139.75,70.28L141.31,70.32L141.38,71.17L141.66,71.18L141.66,69.45L142.32,72.39L142.61,72.39L143.18,72.29L143.24,73.78L143.52,73.78L144.54,73.79L144.59,75.78L144.89,75.78L144.89,76.16L145.2,74.64L145.79,74.69L145.79,72.71L146.68,72.22L146.97,72.25L147.27,72.29L147.27,72.29L147.27,70.45L147.27,69.86L147.77,83.02L148.06,82.97L148.85,84.33L149.13,84.36L149.99,84.45L149.99,83.96L150.07,84.98L150.35,85.01L150.64,83.16L150.93,83.2L151,84.14L151.06,85.53L151.65,84.03L151.93,84.03L152.79,84.1L152.87,85.01L153.16,85.05L153.22,87.11L153.51,87.09L153.51,86.76L153.79,86.23L154.07,86.25L154.2,84.69L154.49,84.78L154.55,86.84L154.83,86.87L154.9,85.95L155.62,88.65L155.92,88.65L156.8,88.3L156.89,88.87L157.17,88.9L157.17,88.86L157.24,90.92L159.86,90.64L159.97,90.28L160.82,96.95L160.89,96.9L161.18,96.9L161.74,93.4L162.15,93.82L162.22,95.7L162.63,96.12L162.91,95.92L163.2,95.94L165.36,86.69L165.65,86.72L167.43,82.75L167.5,83.93L168.34,83.97L168.63,82.06L169.23,82.12L169.23,82.05L169.31,83.75L169.62,83.49L169.7,84.23L169.99,84.26L170.67,85.27L170.96,85.29L171.82,85.65L171.9,86.49L172.47,86.59L172.56,87.37L173.22,86.69L173.28,88.09L173.85,88.14L174.14,86.16L174.44,86.1L174.51,88.01L175.21,90.02L175.48,89.99L176.58,86.28L176.84,86.24L177.44,87.59L177.71,86.11L178.25,88.92L178.51,88.54L179.35,94.28L179.66,94.45L180.73,94.65L180.73,95.68L181.32,89.83L181.6,88.81L183.47,78.89L183.54,80.04L183.84,80.05L184.4,78.96L184.69,78.94L185.84,78.98L186.13,77.96L186.41,77.85L186.7,76.92L187.25,75.5L187.33,76.32L187.62,76.36L188.73,76.2L188.73,75.31L189,75.28L189.09,74.04L189.78,75.88L190.05,75.84L190.62,75.36L190.89,73.3L191.19,71.24L191.46,71.36L191.74,71.36L191.8,73.25L192.3,72.11L192.57,72.07L192.69,74.8L193.25,74.29L193.32,73.14L193.47,76.5L194.01,76.43L194.29,76.38L195.11,76.69L195.19,77.32L196.99,70.22L197.27,70.19L198.41,69.86L198.69,67.97L199.82,67.5L199.89,68.47L201.92,68.29L202,69.3L203.11,69.25L203.11,69.25L203.11,68.44L203.62,70.87L203.98,70.78L204.25,70.99L205.06,70.9L205.06,70.91L205.06,71.8L206.03,71.85L206.31,70.98L207.12,71.06L207.13,71.93L207.72,72.8L207.79,74.67L208.73,75.97L208.79,77.84L209.34,75.76L209.7,76.67L209.75,77.2L210.03,77.17L210.03,77.92L210.29,77.93L210.52,79.2L210.79,77.28L211.08,75.39L211.14,76.34L211.69,75.43L211.96,75.44L212.23,75.44L212.23,75.47L212.3,76.45L213.47,75.9L213.54,76.97L213.8,76.98L214.08,76.05L214.35,76.05L214.35,74.39L214.98,71.51L215.03,73.27L215.33,73.31L216.48,70.08L216.54,71.71L216.81,71.73L217.08,70.71L217.36,70.9L217.4,72.87L219.06,73.18L219.34,72.12L220.16,71.43L220.16,70.24L221.02,70.32L221.07,72.34L221.63,72.39L221.69,74.05L221.98,73.99L221.98,73.99L222.04,75.28L222.6,75.3L222.68,76.67L222.97,76.69L223.25,75.87L223.82,75.83L223.87,77.74L224.15,77.75L224.21,79.62L224.54,80.1L224.81,79.17L225.64,78.2L225.91,78.21L226.19,78.22L226.25,79.45L226.31,80.71L226.59,78.68L226.97,80.52L227.2,80.88L228.3,78.09L228.57,78.07L229.24,75.94L229.52,75.96L229.87,77.29L230.29,77.2L230.36,77.46L230.92,77.18L231.19,76.5L231.47,76.49L231.53,77.76L232.09,77.36L232.09,77.29L232.15,78.56L232.99,78.4L233.04,79.54L234.4,79.84L234.46,80.33L236.56,80.12L236.84,79.08L237.48,80L237.75,80.01L237.95,82.19L238.49,81.28L238.77,80.21L239.49,80.35L239.76,80.36L240.34,77.72L240.41,78.78L240.7,77.99L241.49,79.68L241.63,80.13L242.19,78.9L242.47,77.01L244.14,72.92L244.41,72.91L245.28,70.28L245.35,72.08L245.64,71.62L245.79,72.73L245.85,74.58L246.72,73.63L246.72,74.45L247.3,74.44L247.58,73.44L248.44,73.43L248.44,72.3L248.73,72.27L249.02,71.21L250.72,70.98L251,69.2L251.29,69.18L251.37,70L251.94,68.76L252.01,69.71L252.31,69.75L252.58,69.75L252.58,70.61L252.67,70.75L253.23,68.56L253.5,68.56L253.81,68.59L253.9,69.42L256.09,69.15L256.17,69.98L256.44,70.02L256.44,70.94L256.72,70.89L256.72,68.87L257.09,69.75L257.37,68.07L257.46,68.96L257.75,69L258.3,69.02L258.57,67.74L259.15,66.36L259.22,67.26L259.3,68.17L259.92,69.18L260.2,67.28L260.84,65.01L260.91,65.92L261.19,65.93L262.37,65.5L262.64,64.22L263.89,63.96L263.89,63.6L264.17,63.58L264.25,64.45L265.09,64.48L265.37,63.5L266.43,61.17L266.71,61.17L267.89,60.47L267.89,60.46L267.9,60.42L268.17,60.42L268.45,59.15L269.29,59.22L269.56,57.96L270.14,58.52L270.14,58.51L270.14,57.38L271.63,57.77L271.8,58.29L272.46,57.85L272.75,57.86L273.08,59.79L273.35,59.78L273.62,59.4L274.18,59.4L274.18,58.5L274.77,58.47L274.84,60.38L275.12,60.39L275.43,59.46L276.14,62.58L276.15,62.18L276.43,62.28L277.8,62.37L278.07,61.31L278.34,61.28L278.62,60.36L279.17,60.38L279.17,59.42L279.44,59.41L279.5,60.42L280.06,60L280.13,61.12L281.05,61.77L281.11,63.58L282.21,63.43L282.49,62.58L282.76,62.59L282.76,61.77L283.56,59.79L283.67,60.78L283.95,60.85L284.21,60.85L284.28,62.73L284.82,61.91L284.82,61.91L284.87,63.9L285.15,63.92L285.21,65.02L286.2,75.32L286.49,75.01L286.62,75.5L287.17,77.66L287.28,77.21L287.55,77.24L287.56,75.39L288.11,75.42L288.38,75.61L288.57,75.06L288.75,75.47L289.04,75.96L289.94,78.77L290.32,78.9L291.14,82.05L291.45,82.42L291.84,83.42L291.85,81.61L292.16,81.06L293.26,82.35L293.58,82.78L293.91,82.93L293.91,82.03L297.09,84.71L297.56,85.99L298.48,84.43L298.94,85.6L299.57,85.01L299.9,85.23L300.21,85.32L300.5,85.34L300.5,85.33L300.56,86.84L300.88,87.25L300.94,89.02L300.95,88.75L301.41,89.95L301.71,90.02L302.47,90.57L302.52,92.27L304.88,92.89L305.04,93.31L305.61,92.6L305.61,92.6L305.61,92.59L305.96,94.69L306.25,94.23L306.53,93.21L307.7,93.45L307.7,91.52L309.42,93.01L309.87,94.23L310.94,86.91L311.24,87.06L311.56,87.24L312.15,87.7L312.21,89.18L312.77,89.12L312.83,90.39L313.86,90.8L313.86,90.79L314.16,91.01L314.47,91.24L314.77,89.34L315.14,90.85L315.34,90.31L315.64,90.29L315.64,89.69L316.27,91.56L316.56,91.55L317.42,89.7L317.7,89.7L318.31,91.78L318.61,91.82L318.96,93.88L319.24,89.96L319.55,90.02L320.5,93.96L320.5,91.96L321.2,91.32L321.49,91.34L321.78,87.91L322.07,85.94L322.46,84.86L322.74,82.98L323.31,80.58L323.59,78.75L324.67,77.41L324.67,77.41L324.94,77.4L325.9,77.3L326.02,77.79L326.12,80.27L326.53,79.15L326.8,78.6L327.65,78.7L327.65,77.83L328.33,75.9L328.62,74.98L328.9,74.58L328.95,76.65L329.26,76.89L329.54,76.41L329.54,75.9L330.09,74.01L330.37,73.66L330.68,73.73L330.73,75.13L331.4,73.85L331.45,75.5L332.31,75.38L332.32,74.11L332.89,73.46L333.18,73.27L333.46,73.08L333.51,75.13L333.79,75.15L334.08,73.9L334.62,73.22L334.62,73L334.91,71.63L335.3,75.75L335.4,76.18L336.56,74.45L336.85,74.47L337.13,74.48L337.4,72.98L337.47,74.52L337.76,72.77L338.03,72.76L338.31,72.77L339.75,68.64L339.8,70.54L340.64,69.99L340.74,70.47L341.03,70.51L341.6,70.15L341.6,70.13L341.6,69.7L342.23,70.52L342.51,70.54L342.85,69.25L343.14,71.32L343.41,71.3L345.22,71.03L345.28,71.99L345.54,71.4L345.55,70.17L345.55,69.57L345.95,71.89L346.22,71.53L346.5,71.56L346.77,71.12L346.77,69.54L347.13,70.56L347.4,69.28L347.7,69.02L348.55,68.95L348.59,70.82L348.79,71.85L349.07,69.74L349.35,69.73L350.02,70.2L350.3,68.45L351,68.78L351.27,68.79L351.64,69.3L351.92,67.51L352.55,68.6L352.55,66.54L353.67,66.53L353.97,64.66L354.29,62.84L354.73,65.37L355,64.91L356.12,64.94L356.17,67.01L357.02,66.5L357.02,65.59L357.64,66.93L357.93,66.94L358.63,69.08L358.91,69.08L359.56,69.71L359.71,70.13L360.27,69.7L360.56,69.24L361.71,66.05L361.77,68.05L362.97,68.54L362.97,67.4L362.97,66.41L363.63,66.75L363.92,66.77L364.75,64.45L364.79,65.97L365.62,65.88L365.9,64.51L366.48,65.48L366.76,65.16L366.82,67.16L367.62,65.02L367.62,65.02L367.91,65.06L368.82,65.62L369.09,63.57L369.48,66.37L369.75,66.36L370.03,66.35L370.86,62.14L370.91,63.73L370.97,65.06L371.24,64.98L371.24,65.59L371.29,67.65L371.96,69.97L372.22,68.02L372.6,69.54L372.88,69.53L373.16,69.38L373.81,70.53L374.12,68.48L375.55,68.63L375.64,69.31L376.48,68.5L376.75,68.49L377.3,66.01L377.56,66.01L378.39,66.21L378.47,66.91L379.03,67.29L379.08,68.54L379.36,68.52L379.64,67.23L380,67.96L380.27,67.96L381.12,67.96L381.13,66.46L381.76,70.25L382.04,70.25L382.38,71.83L382.68,70.77L382.97,70.76L384.22,71.29L384.22,69.2L384.22,68.36L384.95,72.78L385,74.72L385.85,74.29L386.13,73.91L387.34,74.25L387.61,74.6L387.76,74.7L388.03,73.86L389.14,73.8L389.2,75.76L389.26,77.32L389.9,75.38L390.22,73.59L391.89,73.46L392.15,71.38L392.87,73.3L393.15,73.31L394.27,70.88L394.37,71.42L394.63,71.43L394.69,73.43L395.24,71.26L395.39,73.35L395.46,74.58L396.28,74.64L396.34,75.64L397.17,75.57L397.18,73.56L398.73,74.1L399.02,73.75L400.5,73.27L400.58,74.36L401.41,74.55L401.41,74.27L401.7,73.59L402.27,73.44L402.54,71.42L405.06,71.24L405.34,69.59L406.05,70.27L406.34,70.29L406.63,70.28L406.7,71.64L407.85,68.28L407.96,68.23L408.88,65.01L409.08,64.65L410.29,64.49L410.29,63.47L410.58,63.32L410.64,65.09L410.7,66.95L410.97,66.92" style="vector-effect: non-scaling-stroke; fill: none; stroke: rgb(0, 204, 150); stroke-opacity: 1; stroke-width: 2px; opacity: 1;"/></g><g class="points"/><g class="text"/></g><g class="trace scatter tracefd5860" style="stroke-miterlimit: 2; opacity: 1;"><g class="fills"/><g class="errorbars"/><g class="lines"><path class="js-line" d="M0.01,251.3L0.95,98.86L1.04,98.86L2.05,98.27L2.21,96.07L2.73,96.07L2.73,96.07L3.07,20.83L4.03,20.83L4.03,20.83L4.35,19.2L13.01,18.79L13.38,17.58L18.13,17.21L18.53,16.36L410.97,16" style="vector-effect: non-scaling-stroke; fill: none; stroke: rgb(0, 204, 150); stroke-opacity: 1; stroke-width: 2px; opacity: 1; stroke-dasharray: 9px, 9px;"/></g><g class="points"/><g class="text"/></g></g></g><g class="overplot"/><path class="xlines-above crisp" d="M86,420.5H498" style="fill: none; stroke-width: 1px; stroke: rgb(36, 36, 36); stroke-opacity: 1;"/><path class="ylines-above crisp" d="M86.5,100V420" style="fill: none; stroke-width: 1px; stroke: rgb(36, 36, 36); stroke-opacity: 1;"/><g class="overlines-above"/><g class="xaxislayer-above"><path class="xtick ticks crisp" d="M0,421v5" transform="translate(180.37,0)" style="stroke: rgb(68, 68, 68); stroke-opacity: 1; stroke-width: 1px;"/><path class="xtick ticks crisp" d="M0,421v5" transform="translate(273.82,0)" style="stroke: rgb(68, 68, 68); stroke-opacity: 1; stroke-width: 1px;"/><path class="xtick ticks crisp" d="M0,421v5" transform="translate(367.28,0)" style="stroke: rgb(68, 68, 68); stroke-opacity: 1; stroke-width: 1px;"/><path class="xtick ticks crisp" d="M0,421v5" transform="translate(460.73,0)" style="stroke: rgb(68, 68, 68); stroke-opacity: 1; stroke-width: 1px;"/><g class="xtick"><text text-anchor="middle" x="0" y="442.8" transform="translate(180.37,0)" style="font-family: Arial, monospace; font-size: 14px; fill: rgb(36, 36, 36); fill-opacity: 1; white-space: pre; opacity: 1;">50</text></g><g class="xtick"><text text-anchor="middle" x="0" y="442.8" style="font-family: Arial, monospace; font-size: 14px; fill: rgb(36, 36, 36); fill-opacity: 1; white-space: pre; opacity: 1;" transform="translate(273.82,0)">100</text></g><g class="xtick"><text text-anchor="middle" x="0" y="442.8" style="font-family: Arial, monospace; font-size: 14px; fill: rgb(36, 36, 36); fill-opacity: 1; white-space: pre; opacity: 1;" transform="translate(367.28,0)">150</text></g><g class="xtick"><text text-anchor="middle" x="0" y="442.8" style="font-family: Arial, monospace; font-size: 14px; fill: rgb(36, 36, 36); fill-opacity: 1; white-space: pre; opacity: 1;" transform="translate(460.73,0)">200</text></g></g><g class="yaxislayer-above"><path class="ytick ticks crisp" d="M86,0h-5" transform="translate(0,382.09)" style="stroke: rgb(68, 68, 68); stroke-opacity: 1; stroke-width: 1px;"/><path class="ytick ticks crisp" d="M86,0h-5" transform="translate(0,294.73)" style="stroke: rgb(68, 68, 68); stroke-opacity: 1; stroke-width: 1px;"/><path class="ytick ticks crisp" d="M86,0h-5" transform="translate(0,207.37)" style="stroke: rgb(68, 68, 68); stroke-opacity: 1; stroke-width: 1px;"/><path class="ytick ticks crisp" d="M86,0h-5" transform="translate(0,120)" style="stroke: rgb(68, 68, 68); stroke-opacity: 1; stroke-width: 1px;"/><g class="ytick"><text text-anchor="end" x="78.2" y="4.8999999999999995" transform="translate(0,382.09)" style="font-family: Arial, monospace; font-size: 14px; fill: rgb(36, 36, 36); fill-opacity: 1; white-space: pre; opacity: 1;">−1500</text></g><g class="ytick"><text text-anchor="end" x="78.2" y="4.8999999999999995" style="font-family: Arial, monospace; font-size: 14px; fill: rgb(36, 36, 36); fill-opacity: 1; white-space: pre; opacity: 1;" transform="translate(0,294.73)">−1000</text></g><g class="ytick"><text text-anchor="end" x="78.2" y="4.8999999999999995" style="font-family: Arial, monospace; font-size: 14px; fill: rgb(36, 36, 36); fill-opacity: 1; white-space: pre; opacity: 1;" transform="translate(0,207.37)">−500</text></g><g class="ytick"><text text-anchor="end" x="78.2" y="4.8999999999999995" style="font-family: Arial, monospace; font-size: 14px; fill: rgb(36, 36, 36); fill-opacity: 1; white-space: pre; opacity: 1;" transform="translate(0,120)">0</text></g></g><g class="overaxes-above"/></g></g><g class="polarlayer"/><g class="smithlayer"/><g class="ternarylayer"/><g class="geolayer"/><g class="funnelarealayer"/><g class="pielayer"/><g class="iciclelayer"/><g class="treemaplayer"/><g class="sunburstlayer"/><g class="glimages"/><defs id="topdefs-b12f9f"><g class="clips"/><clipPath id="legendb12f9f"><rect width="132" height="138" x="0" y="0"/></clipPath></defs><g class="layer-above"><g class="imagelayer"/><g class="shapelayer"/></g><g class="infolayer"><g class="legend" pointer-events="all" transform="translate(506.22,100)"><rect class="bg" shape-rendering="crispEdges" style="stroke: rgb(68, 68, 68); stroke-opacity: 1; fill: rgb(255, 255, 255); fill-opacity: 1; stroke-width: 0px;" width="132" height="138" x="0" y="0"/><g class="scrollbox" transform="" clip-path="url(#legendb12f9f)"><g class="groups"><g class="traces" transform="translate(0,15.6)" style="opacity: 1;"><text class="legendtext" text-anchor="start" x="40" y="5.46" style="font-family: Arial, monospace; font-size: 14px; fill: rgb(36, 36, 36); fill-opacity: 1; white-space: pre;">Anneal mean</text><g class="layers" style="opacity: 1;"><g class="legendfill"/><g class="legendlines"><path class="js-line" d="M5,0h30" style="fill: none; stroke: rgb(99, 110, 250); stroke-opacity: 1; stroke-width: 2px;"/></g><g class="legendsymbols"><g class="legendpoints"/></g></g><rect class="legendtoggle" x="0" y="-10.6" width="126.375" height="21.2" style="fill: rgb(0, 0, 0); fill-opacity: 0;"/></g><g class="traces" transform="translate(0,36.8)" style="opacity: 1;"><text class="legendtext" text-anchor="start" x="40" y="5.46" style="font-family: Arial, monospace; font-size: 14px; fill: rgb(36, 36, 36); fill-opacity: 1; white-space: pre;">Anneal max</text><g class="layers" style="opacity: 1;"><g class="legendfill"/><g class="legendlines"><path class="js-line" d="M5,0h30" style="fill: none; stroke: rgb(99, 110, 250); stroke-opacity: 1; stroke-dasharray: 9px, 9px; stroke-width: 2px;"/></g><g class="legendsymbols"><g class="legendpoints"/></g></g><rect class="legendtoggle" x="0" y="-10.6" width="126.375" height="21.2" style="fill: rgb(0, 0, 0); fill-opacity: 0;"/></g><g class="traces" transform="translate(0,58)" style="opacity: 1;"><text class="legendtext" text-anchor="start" x="40" y="5.46" style="font-family: Arial, monospace; font-size: 14px; fill: rgb(36, 36, 36); fill-opacity: 1; white-space: pre;">NSGA2 mean</text><g class="layers" style="opacity: 1;"><g class="legendfill"/><g class="legendlines"><path class="js-line" d="M5,0h30" style="fill: none; stroke: rgb(239, 85, 59); stroke-opacity: 1; stroke-width: 2px;"/></g><g class="legendsymbols"><g class="legendpoints"/></g></g><rect class="legendtoggle" x="0" y="-10.6" width="126.375" height="21.2" style="fill: rgb(0, 0, 0); fill-opacity: 0;"/></g><g class="traces" transform="translate(0,79.19999999999999)" style="opacity: 1;"><text class="legendtext" text-anchor="start" x="40" y="5.46" style="font-family: Arial, monospace; font-size: 14px; fill: rgb(36, 36, 36); fill-opacity: 1; white-space: pre;">NSGA2 max</text><g class="layers" style="opacity: 1;"><g class="legendfill"/><g class="legendlines"><path class="js-line" d="M5,0h30" style="fill: none; stroke: rgb(239, 85, 59); stroke-opacity: 1; stroke-dasharray: 9px, 9px; stroke-width: 2px;"/></g><g class="legendsymbols"><g class="legendpoints"/></g></g><rect class="legendtoggle" x="0" y="-10.6" width="126.375" height="21.2" style="fill: rgb(0, 0, 0); fill-opacity: 0;"/></g><g class="traces" transform="translate(0,100.39999999999999)" style="opacity: 1;"><text class="legendtext" text-anchor="start" x="40" y="5.46" style="font-family: Arial, monospace; font-size: 14px; fill: rgb(36, 36, 36); fill-opacity: 1; white-space: pre;">Tabu mean</text><g class="layers" style="opacity: 1;"><g class="legendfill"/><g class="legendlines"><path class="js-line" d="M5,0h30" style="fill: none; stroke: rgb(0, 204, 150); stroke-opacity: 1; stroke-width: 2px;"/></g><g class="legendsymbols"><g class="legendpoints"/></g></g><rect class="legendtoggle" x="0" y="-10.6" width="126.375" height="21.2" style="fill: rgb(0, 0, 0); fill-opacity: 0;"/></g><g class="traces" transform="translate(0,121.6)" style="opacity: 1;"><text class="legendtext" text-anchor="start" x="40" y="5.46" style="font-family: Arial, monospace; font-size: 14px; fill: rgb(36, 36, 36); fill-opacity: 1; white-space: pre;">Tabu max</text><g class="layers" style="opacity: 1;"><g class="legendfill"/><g class="legendlines"><path class="js-line" d="M5,0h30" style="fill: none; stroke: rgb(0, 204, 150); stroke-opacity: 1; stroke-dasharray: 9px, 9px; stroke-width: 2px;"/></g><g class="legendsymbols"><g class="legendpoints"/></g></g><rect class="legendtoggle" x="0" y="-10.6" width="126.375" height="21.2" style="fill: rgb(0, 0, 0); fill-opacity: 0;"/></g></g></g><rect class="scrollbar" rx="20" ry="3" width="0" height="0" style="fill: rgb(128, 139, 164); fill-opacity: 1;" x="0" y="0"/></g><g class="g-gtitle"/><g class="g-xtitle"><text class="xtitle" x="292.5" y="472.7125" text-anchor="middle" style="font-family: Arial, monospace; font-size: 17px; fill: rgb(36, 36, 36); opacity: 1; font-weight: normal; white-space: pre;">time in minutes</text></g><g class="g-ytitle" transform="translate(3.025390625,0)"><text class="ytitle" transform="rotate(-90,11.974999999999994,260)" x="11.974999999999994" y="260" text-anchor="middle" style="font-family: Arial, monospace; font-size: 17px; fill: rgb(36, 36, 36); opacity: 1; font-weight: normal; white-space: pre;">fitness</text></g></g></svg>