<svg class="main-svg" xmlns="http://www.w3.org/2000/svg" xmlns:xlink="http://www.w3.org/1999/xlink" width="450" height="350" style="" viewBox="0 0 450 350"><rect x="0" y="0" width="450" height="350" style="fill: rgb(255, 255, 255); fill-opacity: 1;"/><defs id="defs-c03909"><g class="clips"><clipPath id="clipc03909xyplot" class="plotclip"><rect width="241" height="297"/></clipPath><clipPath class="axesclip" id="clipc03909x"><rect x="72" y="0" width="241" height="350"/></clipPath><clipPath class="axesclip" id="clipc03909y"><rect x="0" y="0" width="450" height="297"/></clipPath><clipPath class="axesclip" id="clipc03909xy"><rect x="72" y="0" width="241" height="297"/></clipPath></g><g class="gradients"/><g class="patterns"/></defs><g class="bglayer"/><g class="layer-below"><g class="imagelayer"/><g class="shapelayer"/></g><g class="cartesianlayer"><g class="subplot xy"><g class="layer-subplot"><g class="shapelayer"/><g class="imagelayer"/></g><g class="minor-gridlayer"><g class="x"/><g class="y"/></g><g class="gridlayer"><g class="x"/><g class="y"/></g><g class="zerolinelayer"/><path class="xlines-below"/><path class="ylines-below"/><g class="overlines-below"/><g class="xaxislayer-below"/><g class="yaxislayer-below"/><g class="overaxes-below"/><g class="plot" transform="translate(72,0)" clip-path="url(#clipc03909xyplot)"><g class="scatterlayer mlayer"><g class="trace scatter tracecc1494" style="stroke-miterlimit: 2; opacity: 1;"><g class="fills"/><g class="errorbars"/><g class="lines"><path class="js-line" d="M10.58,275.63L10.75,279.38L11.28,278.72L11.47,278.13L12.59,276.31L12.93,276.7L13.89,278.13L14.11,277.78L14.32,276.41L14.46,282.15L14.91,279.97L15.27,280.65L15.6,281.34L15.81,280.48L16.03,280.21L16.44,279.03L16.74,279.36L17.03,279.51L18.06,279.94L18.26,279.05L18.86,273.75L18.96,272.32L19.89,268.54L19.95,269.28L20.25,269.06L20.98,275.74L21.19,274.63L21.27,273.39L22.05,264.11L22.38,265.14L22.48,264.56L22.58,264.82L22.94,260.33L22.97,259.74L23.14,256.9L23.28,259.13L23.33,259.37L23.65,256.91L23.77,258.22L23.79,258.65L24.21,261.41L24.6,260.76L24.69,260.38L24.92,259.29L25.37,260.8L25.4,261.3L25.69,271.76L26.3,269.05L26.5,267.16L28.25,251.49L28.54,255.13L28.58,255.79L29.57,261.61L29.84,262.44L31.04,270.1L31.3,268.54L31.34,268.55L32.92,252.83L33.25,253.26L33.44,253.44L33.83,254.2L34.03,253.27L34.23,253.34L34.44,252.35L35.21,245.25L35.28,244.4L36.66,239.68L36.85,239.4L37.9,250.66L38.15,247.36L38.2,246.52L38.4,246.85L38.93,239.9L39.16,242.26L39.19,242.31L39.4,246.55L39.43,248.27L40.51,265.75L40.54,265.96L40.57,266.23L40.99,264.36L41.16,263.67L44.08,252.57L44.35,252.29L45.47,247.86L45.51,247.46L45.64,250.94L45.67,252.18L46.88,271.84L46.92,272.28L46.95,272.64L47.34,269.73L47.54,268.42L49.85,252.74L50.08,251.64L51.76,243.45L51.8,242.73L52.92,235.51L53.11,234.1L54.74,225.98L54.83,224.67L55.86,216.05L56.02,215.45L58.26,207.92L58.33,206.82L58.89,201.91L59.16,200.88L60.39,195.99L60.46,196.3L60.51,196.47L62.22,213.12L62.43,213.34L63.18,214.27L63.37,213.81L63.57,213.47L65.05,212.7L65.05,213.11L66.75,211.05L66.83,210.49L68.43,197.3L68.47,196.42L68.56,194.06L69.22,194.41L69.47,194.38L69.92,194.63L70.12,194.23L70.32,193.83L71.63,184.68L71.81,186.96L71.98,187.97L73.65,199.96L73.69,200.59L75.03,218.05L75.24,218.27L76.05,216.82L76.28,215.95L77.55,205.44L77.59,204.58L77.68,202.89L78.2,204L78.42,203.76L79.28,203.26L79.32,204L79.75,206.14L80.12,205.15L80.19,204.9L80.4,203.86L80.45,203.65L82.09,192.51L82.14,192.31L82.83,189.22L83.1,190.54L83.14,190.79L83.41,191.6L83.68,191.11L83.77,190.95L83.88,190.82L83.96,191.66L84,192.09L84.17,193.45L84.6,192.23L84.72,191.75L88.09,180.78L88.44,181.04L88.77,180.98L89.87,178.25L90.12,178.55L90.21,178.38L90.75,176.63L90.78,176.84L91,175.19L94.04,152.58L94.27,152.06L95.24,148.36L95.44,146.46L95.77,146L95.81,146.71L95.86,147.32L96.38,145.74L96.42,147.48L96.83,147.41L96.88,148.68L97.68,146.23L98.03,147.17L98.07,147.93L100.61,137.46L100.68,137.65L100.73,138.05L101.92,176.76L101.95,178.26L102.99,199.71L103.04,201.37L105.72,217.32L105.76,217.59L106.16,222.03L106.64,220.74L106.74,220.33L107.48,224.7L107.6,224.27L107.68,223.19L107.72,222.55L108.08,224.05L108.37,224.86L109.71,233.23L109.77,233.64L110.16,237.29L110.39,236.09L110.61,235.34L111,235.47L111.22,233.68L111.66,233.81L111.89,232.46L112.33,232.53L112.33,233.34L112.86,233.79L113.04,232.31L113.64,231.36L113.7,232.32L113.91,231.82L114.21,231.25L114.3,232.59L114.3,233.17L115.36,239.38L115.67,238.06L115.74,237.68L115.81,237.91L116.01,236.43L116.06,235.57L117.84,219.71L118.01,218.17L120.36,197.38L120.56,195.9L123.94,173.56L124.14,172.68L126.55,152.9L126.63,151.48L126.66,152.23L127.23,149.42L127.41,148.36L129.48,141.96L129.57,143L129.6,143.69L129.76,143.56L129.81,145.14L130.36,139.45L130.86,140.19L131,140.46L132.11,139.07L132.15,139.12L132.23,139.45L132.58,140.23L132.86,139.9L133.16,139.79L133.16,139.17L133.76,139.75L134.02,139.5L134.77,140.06L135.05,139.82L135.05,139L135.72,137.27L136.02,137.46L136.23,137.38L136.23,135.67L136.64,135.32L136.85,135.88L137.04,136.51L137.26,135.52L137.68,136.38L137.89,137.19L140.11,143.14L140.32,142.81L140.82,144.2L141.03,143.42L141.03,142.02L142.6,142.23L142.6,141.65L143.05,140.23L143.28,140.28L143.39,139.55L144.54,132.97L144.77,132.26L145.14,132.59L146.34,129.87L146.56,129.29L147.69,125.37L147.91,125.19L147.97,125.89L148.43,125.12L148.51,125.33L148.72,125.22L148.94,124.91L149.14,125.82L149.36,125.75L149.77,124.98L149.77,125.64L149.88,126.12L150.46,130.05L150.66,129.84L151.47,129.65L151.51,131.21L152.33,133.67L152.53,133.25L152.73,133.25L153.42,135.52L153.62,135.31L154.98,133.52L155.05,133.71L155.24,132.05L155.63,131.52L156.04,132.14L156.23,130.92L156.43,130.7L156.63,129.14L157.24,128.2L157.45,126.51L157.86,126.08L158.06,124.14L159.02,118.63L159.23,118.43L159.71,116.01L159.99,116.91L160.02,118.28L163.28,109.14L163.48,108.03L165.18,101.95L165.38,101.98L167.08,97.41L167.28,96.66L168.55,93.72L168.6,95.55L168.65,96.55L169.12,94.37L169.35,93.52L170.07,90.04L170.07,90.9L170.29,90.19L172.19,85.15L172.39,84.77L173.9,82.52L173.98,83.05L174.82,82.7L175.03,82.29L175.03,82.62L175.25,81.39L175.67,81.67L175.88,81.87L176.6,80.97L176.8,80.97L177.21,81.02L177.41,79.14L178.67,77.41L178.88,76.71L179.08,76.74L179.29,75.96L179.69,75.35L179.87,76.05L180.08,76.06L180.29,75.31L180.7,75.72L180.91,75.91L181.25,76.59L181.46,75.5L183.97,70.51L184.17,70.5L184.94,66.56L185.2,67.58L185.41,67.62L185.6,67.61L185.8,66.58L187.51,67.13L187.71,66.35L187.9,66.32L187.9,66.64L187.99,67.09L188.18,66.8L188.66,67.55L188.87,68.17L188.87,67.19L189.48,68.99L189.75,69.96L189.95,70.62L190.36,70.59L190.59,70.58L190.81,70.57L190.88,72.16L192.4,69.68L192.44,71.44L192.76,71.41L192.82,72.21L193.14,70.11L193.41,71.41L193.63,71.12L194.28,69.39L194.31,70.78L194.5,71.56L194.9,70.88L195.1,70.64L197.02,71.26L197.07,72.23L197.1,73.69L197.7,72.51L197.88,72.48L198.16,74.2L198.55,73.9L198.76,73.67L198.96,73.36L199,74.7L199.62,74.12L199.65,74.94L200.86,74.27L201.06,74.25L201.33,75.16L201.67,75.08L201.88,75.03L202.58,72.94L202.74,73.2L204,73.17L204,71.77L204.2,71.71L204.24,73.45L205.14,73.39L205.2,74L205.29,74.36L205.34,76.15L205.95,75.09L206.1,75.38L207.41,74.72L207.61,73.89L208.69,72.62L208.89,72.97L208.94,73.7L209.82,73.24L209.86,74.63L210.67,74.56L210.71,76.01L211.13,78.62L211.54,78.48L211.74,78.48L211.95,78.48L211.99,80.11L212.81,78.38L212.85,80.18L213.53,79.34L213.56,81.02L213.79,81.86L213.84,82.89L214.02,83.01L214.06,84.43L214.71,87.75L214.84,87.94L215.87,87.88L215.97,87.15L216.79,87.69L217,86.88L217.57,86.51L217.77,85.82L218.36,86.25L218.57,85.91L218.77,85.47L219.02,85.91L221.57,81.57L221.62,82.43L223.53,82.33L223.72,81.83L223.92,81.81L224.12,80.03L224.74,80.14L224.95,78.82L225.65,79.92L225.95,80.72L226.23,77.46L226.66,78.9L226.86,78.9L227.29,77.84L227.65,78.28L227.95,78.89L228,82.01L228.71,81.88L228.71,80.09L229.59,82.95L230.01,81.86L230.23,82.1L231.08,81L231.29,81.03L231.5,79.73L231.86,80.6L232.08,81.05L232.57,80.35L232.62,81.42L232.71,82.14L233.33,82.23L233.65,83.1L234.3,81.1L234.34,81.83L234.68,82.79L234.91,82.1L235.21,82.42L235.55,83.36L235.87,83.01L236.1,83.34L236.42,84.21L236.63,85.74L236.84,84.12L237.06,84.15L237.76,84.27L237.98,82.53L238.41,82.53L238.61,83.3L239.05,84.09L239.39,83.89L239.52,82.92L240.97,84.06" style="vector-effect: non-scaling-stroke; fill: none; stroke: rgb(99, 110, 250); stroke-opacity: 1; stroke-width: 2px; opacity: 1;"/></g><g class="points"/><g class="text"/></g><g class="trace scatter tracee55e07" style="stroke-miterlimit: 2; opacity: 1;"><g class="fills"/><g class="errorbars"/><g class="lines"><path class="js-line" d="M0,16.02L240.97,16.02" style="vector-effect: non-scaling-stroke; fill: none; stroke: rgb(99, 110, 250); stroke-opacity: 1; stroke-width: 2px; opacity: 1; stroke-dasharray: 9px, 9px;"/></g><g class="points"/><g class="text"/></g><g class="trace scatter trace53b5cc" style="stroke-miterlimit: 2; opacity: 1;"><g class="fills"/><g class="errorbars"/><g class="lines"><path class="js-line" d="M17.86,201.45L17.9,202.09L18.37,199.31L18.55,200.47L18.58,200.42L18.64,204.56L19.33,202.58L19.38,202.89L19.67,203.57L19.67,201.95L19.71,200.85L19.98,201.73L20.02,203.33L20.18,203.05L20.18,204L20.39,203.7L20.39,201.87L21,206.08L21.21,204.16L21.44,203.26L21.75,200.75L22.06,201.58L22.1,202.66L22.24,199.55L22.66,201.94L22.88,201.56L23.39,198.77L23.43,199.58L23.69,199.81L23.69,198.46L24.3,206.36L24.43,204.87L24.46,205.89L25.25,203.91L25.29,205.38L25.29,206.1L25.46,204.91L25.99,209.17L26.08,208.45L26.32,204.45L26.46,204.9L26.46,203.26L26.88,205.06L27.22,204.11L27.22,202.9L27.35,204.46L27.71,200.51L27.9,201.73L28.11,201.78L28.7,207.93L28.86,205.81L28.9,206.42L29.43,207.9L29.53,205.68L29.54,204.47L30.09,199.57L30.11,199.69L30.41,200.35L30.59,202.97L31.14,197.52L31.14,198.73L31.19,199.03L31.19,197.89L31.86,200.6L32.1,199.8L32.55,192.06L32.82,194.38L33,192.82L33.69,190.92L33.71,193.67L33.9,192.92L34.67,191.66L34.67,192.04L34.72,192.57L34.72,193.52L35.38,189.86L35.41,190.05L35.53,189.5L35.87,184.24L36.21,185.24L36.49,185.99L36.92,183.92L36.92,186L36.96,186.52L37.27,182.34L37.7,187.93L37.91,186.84L38.13,191.13L38.57,186.15L38.6,188.47L38.73,188.71L39.26,190.43L39.31,187.31L39.53,187.07L39.93,191.95L40.3,190.71L40.48,190.12L40.66,190.62L41.15,186.44L41.38,186.62L41.57,191.72L41.7,184.05L41.91,184.04L42.14,182.77L42.14,185.93L42.14,185.48L42.18,186.11L42.51,178.94L42.7,179.68L43.01,179.51L43.59,174.23L43.87,173.65L43.87,170.83L44.59,174.25L44.64,174.68L44.7,173.17L44.96,176.9L45.12,175.78L45.45,174.47L45.53,173.52L46.1,173.62L46.35,173.39L46.73,176.43L46.73,175.2L47.13,175.06L47.66,178.2L47.82,172.11L48.06,170.58L48.06,169.42L48.66,172.96L48.86,172.18L48.86,173.99L49.34,170.77L49.41,172.47L49.62,171.25L49.67,171.68L49.9,170.48L50.24,171.07L50.48,169.84L51.23,177.8L51.23,176.94L51.45,175.52L51.82,178.7L52.17,173.3L52.2,175.2L52.23,176.6L52.62,176.7L52.62,177.34L53.29,173.66L53.34,177.67L53.34,177.45L53.55,175.91L53.58,178.77L54.17,174.42L54.35,174.95L54.39,177.55L54.86,176.33L55.17,175.98L55.82,172.94L55.86,174.04L56.08,173.59L56.24,177.16L56.66,169.11L56.87,169.1L57.1,165.82L57.22,172.55L57.53,172.31L57.74,172.61L58.25,173.11L58.45,170.99L58.45,170.13L59.27,165.64L59.27,166.12L59.48,164.65L59.48,164.84L59.7,159.26L60.22,162.62L60.26,163.14L60.26,164.66L60.81,157.95L61.01,159.35L61.02,158.49L61.38,154.57L61.58,158.38L61.81,157.74L62.01,161.14L62.22,150.35L62.3,151.13L62.35,151.06L63.04,158.3L63.13,155.44L63.33,154.71L63.34,151.63L63.84,155.94L63.84,155.6L64.07,155.74L64.31,155.26L64.52,156.42L64.79,156.38L64.95,156.36L64.95,155.18L65.27,156.02L65.49,152.04L65.5,153.78L65.73,153.04L66.26,150.91L66.39,155.89L66.58,154.56L66.95,156.46L67.29,148.22L67.41,148.17L68.28,137.61L68.58,138.61L68.61,140.23L69.33,129.94L69.33,130.9L69.6,130.9L70.31,128.01L70.35,128.09L70.41,128.13L70.76,128.86L70.76,126.72L71.01,127.26L71.21,127.22L71.26,129.27L71.49,126.38L71.53,125.97L71.86,121.95L72.28,126.37L72.28,125.46L72.29,127.2L72.35,125.9L73.02,138.34L73.03,137.87L73.24,137.26L73.24,136.68L73.74,140.57L73.94,139.47L74.18,140.5L74.54,140.94L74.54,139.14L74.54,138.47L75.17,144.77L75.17,143.7L75.38,143.51L75.38,142L75.5,148.95L76.1,143.84L76.29,143.9L76.62,146.82L76.62,144.11L76.62,143.49L76.83,140.9L76.87,143.97L77.16,143.06L77.38,143.04L77.42,143.41L78.12,133.63L78.12,134.29L78.18,133.96L78.68,130.57L78.7,133.48L78.99,134L79.25,134.13L80.1,126.3L80.1,125.52L80.29,126.14L80.29,125.43L80.29,125L80.98,114.26L81.07,114.21L81.48,114.7L81.48,111.81L81.73,112.31L81.99,112.71L82.13,110.04L82.48,119.29L82.73,113.55L82.78,114.5L83.21,113L83.53,119.95L83.6,120.63L84.25,127.29L84.45,128.21L84.5,129.08L84.71,120.7L84.71,119.67L84.99,119.47L84.99,120.36L85.31,121.14L85.31,121.76L86.02,116.49L86.02,118.21L86.13,118.08L86.14,120.71L86.56,112.99L86.84,114.59L87.04,113.95L87.04,114.8L87.6,100.24L87.79,101.4L87.98,100.72L88.17,100.31L88.52,103.78L88.72,102.35L88.79,102.81L89.29,107.3L89.29,101.9L89.34,102.82L89.49,103.11L90,105.88L90.11,98.33L90.3,97.95L90.3,95.38L90.94,105.86L90.99,104.18L91.18,105.09L91.19,103.32L91.68,108.07L91.88,105.49L92.07,104.99L92.46,106.82L92.7,99.81L92.7,102.51L92.89,101.9L93.02,105.6L93.46,94.06L93.54,95.45L93.69,95.85L93.69,92.71L94.33,102.35L94.33,101.7L94.53,101.68L94.87,95.48L95.01,106.27L95.25,98.37L95.43,97.81L95.43,98.79L95.43,92.95L96.03,94.69L96.21,94.4L96.41,95.77L96.41,94.08L96.42,95.61L96.42,96.25L96.62,94.21L97.07,101.48L97.25,101.36L97.84,112.41L97.92,111.27L98.18,111.62L98.63,111.59L98.93,121.5L98.93,119.46L99.21,120.36L99.21,121.28L99.96,111.32L99.96,111.62L100.05,111.07L100.06,103.33L100.61,145.47L100.81,145.09L100.94,151.23L101.53,150.71L101.57,151.82L101.72,148.79L102.06,150.07L102.35,150.35L103.05,143.16L103.06,147.91L103.25,147.25L103.25,148.32L103.31,140.72L103.99,144.71L104.18,144.15L104.19,142.82L104.88,156.15L104.89,154.84L105.1,154.84L105.33,157.57L105.8,149.47L105.8,150.01L105.92,150.04L105.92,152.64L106.47,147.21L106.59,147.73L106.8,148.57L106.92,149.74L106.93,145.96L106.97,149.7L107.01,149.83L107.01,149.55L107.12,154.09L107.72,153.09L107.93,153.08L108.04,155.5L108.47,151.31L108.47,152.28L108.67,151.5L108.89,145.61L109.24,154.68L109.24,154.68L109.45,154.08L109.78,152.16L110.14,156.84L110.14,156.2L110.35,155.36L110.81,156.4L111.03,149.43L111.08,150.44L111.29,150.28L111.55,150.63L111.78,148.41L111.78,148.06L111.78,149.1L112.15,146.2L112.36,147.53L112.56,146.88L114.84,137.74L115.08,138.52L115.08,139.55L115.09,144.36L115.71,142.47L115.91,142.46L116.42,150.48L116.66,144.97L116.88,145.07L116.92,146.25L117.49,134.09L117.54,134.77L117.76,134.14L117.76,131.24L118.19,136.11L118.41,135.82L118.61,135.17L118.61,135.82L119.27,129.79L119.33,131.19L119.53,130.53L119.94,130.06L120.2,132.11L120.2,132.11L120.33,131.43L120.34,134.07L121.03,126.67L121.03,127.97L121.24,127.3L121.86,123.82L121.87,126.73L122.07,126.18L122.37,130.76L122.81,129.66L122.84,130.51L122.84,128.17L123.58,134.4L123.58,134.4L123.61,134.84L123.61,134.99L124.35,131.28L124.35,131.28L124.63,131.38L124.63,132.03L125.37,128.1L125.37,128.1L125.55,127.59L125.55,125.66L125.59,129.43L126.23,126.8L126.42,126.59L126.42,127.23L127.06,119.71L127.26,119.03L127.48,115.57L127.78,116.21L128.08,116.28L128.14,116.73L128.55,114.39L128.55,113.66L128.56,108.46L129.26,118.5L129.26,117.66L129.45,117.66L129.45,115.48L130.03,119.74L130.03,118.45L130.21,118.56L130.49,122.56L130.9,116.69L131.11,116.04L131.37,116.78L131.84,112.66L131.89,112.72L131.89,113.15L132.5,98.14L132.77,98.36L133.22,98.87L133.46,92.3L133.74,92.55L133.95,93.81L134.24,92.22L134.24,92.44L134.24,91.79L134.51,90.38L134.51,93.04L134.67,92.21L135.01,92.47L135.82,83.59L135.83,87.4L135.83,87.98L135.83,88.01L136.35,84.86L136.58,87.52L136.59,88.38L136.63,89.54L137.07,86.74L137.07,86.74L137.39,87.58L137.39,86.85L137.43,92.85L138.13,89.93L138.17,91.76L138.65,101.41L138.88,101.33L139.1,101.34L139.1,102.8L139.66,99.86L139.87,99.02L139.87,99.67L140.41,89.09L140.47,90.62L140.67,89.96L140.67,90.25L140.87,84.73L141.13,85.96L141.43,86.65L142.08,82.3L142.13,83.05L142.33,82.82L143.05,60.43L143.05,60.43L143.33,61.17L143.6,54.45L143.95,56.77L144.15,56.48L144.42,56.31L144.42,57.4L144.49,58.01L144.95,51.66L145.24,53.11L145.41,53.47L145.42,52.61L145.48,55.08L146.14,54.62L146.35,54.62L146.35,53.07L146.9,57.3L147.05,53.76L147.28,53.77L147.53,56.15L147.86,50.48L147.86,51.23L148.06,52.02L148.06,54.84L148.75,47.99L148.95,48.1L149.39,46.43L149.72,47.16L149.78,48.12L150.06,44.88L150.44,45.65L150.68,45.64L151.43,40.27L151.43,40.29L151.69,40.43L151.79,41L152.26,39.97L152.47,40.69L152.47,40.04L152.48,36.67L153.09,43.21L153.09,42.45L153.3,42.43L153.51,39.21L154.02,44.72L154.22,44.69L154.23,43.06L154.64,46.5L154.86,44.09L155.03,44.38L155.2,44.1L155.21,45.66L155.21,45.66L155.21,46.31L155.91,33.02L155.92,35.36L156.15,35.66L156.18,35.37L156.88,44.49L156.88,44.49L156.99,44.38L156.99,45.03L157.65,32.79L157.71,36.65L157.86,36.98L157.87,36.21L158.49,38.14L158.5,38.14L158.8,38.83L158.81,38.54L159.29,42.65L159.3,40.95L159.5,41.69L159.71,42.38L159.91,41L159.91,40.14L159.91,40.79L160.57,33.75L160.58,35.49L160.68,35.81L160.83,38.72L161.24,37.45L161.44,38.14L161.77,38.82L161.77,38.44L161.77,39.09L162.01,39.07L162.44,42.85L162.44,42.85L162.74,43.73L163.26,48.82L163.38,44.64L163.6,44.91L163.6,44.53L164.35,50.25L164.58,50.44L165.24,44.64L165.24,44.64L165.39,44.4L165.65,44.86L165.98,41.02L165.98,41.02L166.19,41L166.64,41.99L166.87,41.35L166.87,40.63L167.09,39.97L167.09,39.97L167.09,40.83L167.09,41.23L167.56,34.61L167.77,37.08L167.9,37.44L168.12,39.51L168.54,36.87L168.54,36.87L168.77,36.97L168.77,37.73L169.02,32.31L169.44,33.38L169.65,33.38L170.31,32.37L170.35,35.96L170.35,34.29L170.57,35.05L170.57,34.41L171.32,39.13L171.32,38.88L171.33,38.88L171.75,37.24L172.03,41.62L172.06,39.27L172.06,38.42L172.51,40.89L172.61,34.8L172.62,37.83L172.82,37.82L173.25,35.34L173.47,35.64L173.68,35.69L174.23,36.68L174.23,32.98L174.33,33.35L174.54,33.63L174.54,32.94L175.23,35.21L175.24,35.18L175.43,35.21L175.44,34.56L175.93,36.5L176.14,34.68L176.24,35.04L176.47,31.96L176.95,36.01L176.95,32.69L177.07,32.97L177.38,38.55L177.79,37.83L178,38.49L178.55,39.7L178.55,39.7L178.55,38.5L178.93,41.77L178.94,39.69L178.94,39.04L179.2,40.48L179.6,36.06L179.6,37.8L179.81,37.83L180.02,37.79L180.02,38.44L180.03,40.15L180.24,39.42L180.78,43.86L181,43.87L181,44.52L181.11,39.46L181.74,39.51L182.03,40.25L182.24,40.87L182.24,40.87L182.24,39.9L182.89,37.65L183.11,37.78L183.38,40.03L183.61,32.38L183.76,33.99L183.94,34.14L184.71,40.65L184.72,37.8L184.92,37.9L185.36,40.67L185.58,33.92L185.63,34.88L185.9,35.28L185.92,33.75L186.65,36.74L186.65,34.79L186.66,33.74L186.86,33.73L186.86,33.74L186.86,34.61L187.5,38.93L187.58,37.81L187.8,37.79L187.8,37L188.35,39.57L188.36,37.05L188.57,37.03L189.39,42.52L189.39,40.51L189.6,40.55L189.83,32.48L190.11,34.53L190.41,35.25L190.41,34.32L190.86,40.79L190.86,40.79L191.17,41.52L191.18,37.49L191.18,42.84L191.76,40.18L191.97,40.18L192.06,46.24L192.5,34.11L192.67,36.5L192.88,36.48L193.51,35.23L193.51,38.88L193.51,38.88L193.66,39.23L194.09,43.02L194.33,38.63L194.33,38.63L194.55,38.6L195.21,31.44L195.42,31.48L195.63,29.73L196.13,33.14L196.13,33.14L196.34,33.13L196.64,31.15L196.77,36.11L196.97,36.09L197.17,35.2L197.89,37.95L197.89,37.95L198.09,37.94L198.69,44.8L198.71,41.18L198.94,40.89L199.35,40.81L199.35,40.81L199.35,39.1L199.98,39.49L200,37.42L200,37.43L200.22,37.44L200.68,31.35L200.92,32.44L201.15,32.47L201.83,33.62L201.83,33.51L202.03,34.21L202.46,35.78L202.67,30.76L202.67,30.76L202.9,30.95L203.32,35.79L203.54,34.74L203.76,34.77L204,28.8L204.4,31.84L204.61,31.44L204.97,29.31L205.24,30.56L205.45,30.51L206.82,47.67L207.05,43.06L207.24,43.8L207.76,38.51L208.01,39.42L208.01,40.06L208.35,32.91L208.76,34.44L208.77,34.43L208.99,33.75L209,35.29L209.21,34.04L209.21,32.57L209.52,30.08L209.95,30.98L210.03,31.28L210.77,36.19L210.77,35.19L211,35.19L211.24,32.66L211.58,36.61L211.58,36.61L211.8,37.03L212.02,35.58L212.41,39.06L212.41,39.06L212.61,39.04L212.62,34.49L213.21,38.15L213.43,38.26L213.93,39.5L214.15,34.65L214.15,34.86L214.37,35.24L214.85,37.45L214.85,37.45L214.85,38.1L215.53,32.54L215.76,32.54L215.76,31.18L216.44,34.67L216.44,34.67L216.67,35.38L216.68,37.11L216.69,33.89L217.34,34.73L217.59,34.72L218.03,34.39L218.03,35.95L218.05,35.68L218.05,36.54L218.57,37.31L218.87,37.21L218.87,36.26L219.08,36.36L219.08,35.58L219.08,35.58L219.08,34.87L219.09,37.05L219.7,33.03L219.8,33.16L219.99,33.13L220.5,32.5L220.5,34.24L220.5,34.89L220.72,34.23L221.09,39.06L221.1,36.59L221.3,37L221.55,38.99L221.78,35.67L222.01,37.09L222.22,37.51L222.41,34.33L222.94,37.19L223.16,37.59L223.48,38.56L223.87,29.05L223.96,29.5L223.97,31.49L224.18,29.2L224.62,30.01L224.81,30.41L225.05,29.14L225.36,31.56L225.36,31.56L225.77,32.29L225.77,33.59L226.03,29.73L226.38,33.34L226.6,33.41L226.83,31.94L227.23,36.46L227.24,35.39L227.46,36.23L227.97,40.39L228.21,37.85L228.45,38.11L228.66,37.5L228.66,37.92L228.66,37.08L229.04,40.99L229.27,39.85L229.48,39.88L229.73,43.01L229.73,43.88L229.74,44.74L230.37,39.95L230.38,42.14L230.53,41.72L231.28,38.27L231.51,38.46L231.71,38.45L231.76,39.35L232.22,29.48L232.51,31.93L232.52,31.93L232.52,33.89L232.74,30.92L233.03,31.83L233.33,32.64L233.55,31.81L234.75,37.84L234.79,39.66L235.07,40.99L235.08,39.09L235.28,39.68L235.5,39.66L235.5,37.71L235.71,41.98L236.2,37.92L236.46,37.89L236.5,38.98L236.99,37.56L236.99,37.56L237.21,37.55L237.47,39.29L237.9,35.5L237.9,35.5L238.16,34.94L238.64,36.68L238.65,36.1L239.01,36.82L239.02,36.86L239.53,31.13L239.71,31.45L239.92,31.42L239.92,29.67L240.4,30.08L240.77,30.87L241,30.95" style="vector-effect: non-scaling-stroke; fill: none; stroke: rgb(239, 85, 59); stroke-opacity: 1; stroke-width: 2px; opacity: 1;"/></g><g class="points"/><g class="text"/></g><g class="trace scatter traceead8b3" style="stroke-miterlimit: 2; opacity: 1;"><g class="fills"/><g class="errorbars"/><g class="lines"><path class="js-line" d="M0,174.87L1.8,174.87L1.84,107.22L2.05,107.22L2.15,91.53L3.47,91.53L3.51,89.73L17.53,89.73L17.58,83.53L18.64,83.53L18.64,82.4L19.42,24.05L19.42,24.05L19.63,24.05L26.46,24.05L26.46,24.05L26.46,23.27L37,23.27L37.21,17.4L76.49,16.77L76.49,16.77L76.49,265.75L77.08,19.47L77.16,19.47L77.38,19.47L103.79,19.18L103.79,19.18L103.79,18.57L104.61,18.57L104.61,18.57L104.61,16.02L241,16.02" style="vector-effect: non-scaling-stroke; fill: none; stroke: rgb(239, 85, 59); stroke-opacity: 1; stroke-width: 2px; opacity: 1; stroke-dasharray: 9px, 9px;"/></g><g class="points"/><g class="text"/></g><g class="trace scatter tracecacd98" style="stroke-miterlimit: 2; opacity: 1;"><g class="fills"/><g class="errorbars"/><g class="lines"><path class="js-line" d="M44.21,88.88L46.57,82.83L46.86,82.47L47.16,81.69L47.21,82.63L47.28,83.6L48.5,80.01L48.8,79.55L50.24,75.36L50.62,75.34L51.77,74.32L51.85,75.1L51.89,77L52.5,76.54L52.57,77.22L52.9,77.23L54.13,77.17L54.41,76.06L56.21,76.47L56.67,75.4L58.35,75.39L58.35,75.34L58.41,76.93L60.34,73.68L60.65,73.67L61.44,74.12L61.67,73.27L61.8,76.72L62.27,75.35L62.49,75.35L62.68,75.36L62.73,76.5L63.55,76.17L63.6,77.31L63.79,77.24L63.79,79.15L64.58,77.49L64.78,77.52L64.98,77.53L65.18,76.31L65.37,76.28L65.37,78.19L66.07,79.85L66.27,79.84L66.46,79.84L66.68,78.43L67.09,78.43L67.09,78.4L67.09,77.07L67.68,81.37L67.91,79.38L68.1,79.39L68.88,79.46L68.92,81.05L68.99,82.7L69.59,80.23L69.78,79.32L69.82,78.73L70.43,78.78L70.63,78.77L71.26,75.48L71.46,75.49L71.55,77.77L72.13,76.97L72.34,77L72.92,77L73.11,76.2L73.5,76.24L73.69,74.81L73.87,74.81L73.87,74L74.25,73.58L74.28,75.16L76.54,67.03L76.8,67.02L77.28,64.13L77.38,66.34L77.59,66.34L77.81,66.34L78.02,65.04L78.02,64.86L78.63,67.03L78.68,67.02L78.9,67.03L79.16,68.12L79.37,65.45L79.57,65.45L79.79,65.49L80,65.54L80.05,66.38L80.77,68.18L80.96,68.18L82.01,68.49L82.05,69.06L82.84,66.48L82.84,67.77L83.04,67.79L84.24,67.6L84.39,67.19L85.31,71.1L85.52,69.53L87.92,69.27L87.92,68.15L88.14,65.87L88.55,66.08L88.72,66.29L88.92,66.28L89.12,65.1L89.38,65.79L89.58,64.67L89.97,64.63L90.18,63.5L90.82,63.33L90.86,65.1L91.1,66.51L91.51,66.3L91.7,64.57L91.9,64.59L92.1,63.85L92.34,63.99L92.38,65.75L92.58,65.76L92.58,64.73L93.28,70.54L93.48,70.14L93.67,68.56L94.14,70.55L94.36,70.67L95.6,66.48L95.8,66.49L96.71,66.77L96.71,65.48L97.1,63.69L97.29,63.69L97.49,63.71L98.1,63.73L98.29,62.26L98.49,62.21L98.69,60.46L99.47,59.89L99.5,61.68L100.1,61.66L100.1,61.66L100.14,63.41L101.25,63.45L101.31,64.21L101.5,64.2L101.5,64.21L101.5,62.67L102.18,65.66L102.39,65.67L102.59,65.21L102.64,66.54L102.84,66.54L103.57,66.55L103.61,68.33L103.82,68.33L103.82,68.67L104.04,67.31L104.46,67.35L104.46,65.58L105.31,65.17L105.52,65.21L105.52,63.03L106.18,75.71L106.39,75.67L106.39,75.05L107.06,76.04L107.27,76.07L107.47,76.09L107.47,75.65L107.53,76.56L107.73,76.59L107.94,74.94L108.15,74.97L108.2,75.81L108.24,77.05L108.66,75.71L108.86,75.71L109.07,75.71L109.48,75.77L109.53,76.59L109.74,76.62L109.79,78.46L109.99,78.49L109.99,78.16L110.19,77.68L110.4,77.69L110.49,76.3L110.7,76.38L110.74,78.22L110.94,78.25L110.99,77.43L111.72,79.85L111.94,79.55L112.62,80.04L112.67,81.87L114.54,81.63L114.63,81.31L115.23,87.27L115.49,87.22L115.69,85.48L115.89,84.1L116.24,86.15L116.32,86.57L116.94,86.37L117.14,85.04L118.48,78.09L118.69,78.12L118.9,77.4L119.1,77.26L119.3,75.5L119.56,76.23L119.77,74.72L119.97,74.57L120.02,75.62L120.62,75.66L120.83,73.95L121.26,74L121.26,73.94L121.32,75.46L121.54,75.23L121.59,75.89L121.8,75.92L121.87,76.72L123.12,77.16L123.17,77.92L124.12,78.09L124.16,79.35L124.57,79.38L124.78,77.62L124.99,77.56L125.04,79.27L125.54,81.07L125.74,81.04L125.93,79.52L126.71,77.69L126.75,78.84L126.95,78.83L127.14,78.9L127.34,77.57L127.95,81.41L128.14,81.41L128.33,81.23L128.33,82.12L128.33,83.05L128.9,85.19L129.1,85.16L129.3,85.2L129.5,85.21L129.5,86.13L130.12,79.99L130.32,78.24L131.46,71.11L131.73,71.23L131.93,71.21L133.16,71.2L133.37,70.28L133.57,70.18L133.78,69.35L134.17,68.08L134.44,68.85L134.64,68.81L135.23,68.71L135.23,67.91L135.43,67.88L135.49,66.78L135.98,68.42L136.18,68.38L136.38,68.01L136.59,67.95L136.78,66.11L137,64.27L137.43,66.04L137.56,64.9L138.03,65.8L138.07,67.45L138.52,65.97L138.57,66.79L138.57,68.19L138.63,68.98L139.21,68.86L139.41,68.81L139.86,69.71L140.05,68.36L140.27,67.2L141.15,63.36L141.35,63.33L142.17,63.03L142.37,61.34L143.18,60.92L143.22,61.79L144.61,61.2L144.69,61.63L144.74,62.53L145.53,62.48L145.53,62.48L145.53,61.76L146.35,64.05L146.54,64.03L146.93,63.96L146.93,63.97L146.93,64.77L147.62,64.81L147.83,64.04L148.41,64.11L148.41,64.88L148.84,65.66L148.89,67.34L149.56,68.5L149.61,70.17L150,68.31L150.3,69.6L150.49,69.57L150.84,71.39L151.24,67.98L151.29,68.84L152.07,68.03L152.07,68.05L152.12,68.93L152.96,68.44L153,69.4L153.2,69.4L153.39,68.57L153.59,68.58L153.59,67.09L154.04,64.51L154.29,66.13L154.48,65.21L154.52,65.42L154.91,63.56L154.91,63.4L154.91,63.21L155.35,64.71L155.55,63.79L155.74,63.96L156.34,65.83L156.54,65.83L156.96,66L157.16,65.06L157.75,64.44L157.75,63.38L158.37,63.44L158.4,65.25L158.8,65.3L158.84,66.78L159.05,66.73L159.05,66.73L159.1,67.88L159.5,67.9L159.56,69.13L159.96,68.41L159.97,68.39L160.37,68.38L160.41,70.08L160.61,70.09L160.65,71.77L160.89,72.19L161.08,71.36L161.87,70.5L162.08,70.51L162.8,72.89L162.99,72.09L164.06,68.49L164.26,68.48L164.46,68.49L164.5,69.63L165.46,69.58L165.66,68.97L165.85,68.97L165.9,70.1L166.3,69.74L166.3,69.68L166.34,70.81L166.94,70.68L166.98,71.69L169.2,72.33L169.31,72.68L169.71,71.29L170.16,72.11L170.35,72.11L170.5,74.07L171.09,72.3L171.29,72.08L171.8,72.42L171.8,71.59L172.02,71.61L172.21,70.07L172.72,70.96L172.78,71.82L173.14,72.22L174.94,65.77L175.13,65.77L175.75,63.41L176.06,64.74L176.12,65.6L176.16,67.25L176.79,67.14L176.99,67.12L177.2,67.13L177.4,66.24L178.01,66.23L178.02,65.22L178.22,65.19L178.43,64.24L179.65,64.03L179.85,62.45L180.06,62.42L180.12,63.16L180.31,62.02L180.52,62.05L180.58,62.9L180.98,63.7L180.98,62.21L181.04,63.83L181.44,61.87L181.64,61.87L181.86,61.9L182.14,62.69L182.66,62.41L182.89,62.4L183.55,63.14L183.75,63.18L183.75,64L184.42,61.43L184.48,62.23L184.69,62.26L185.08,62.28L185.27,61.14L185.69,59.9L185.8,61.52L185.85,62.37L186.24,62.43L186.44,60.73L186.7,58.7L187.15,59.52L187.35,59.51L188,59.14L188.19,57.98L189.08,57.76L189.09,57.43L189.29,57.42L189.94,58.22L190.14,57.34L191.11,55.26L191.31,55.26L192.15,54.59L192.35,53.45L192.95,53.52L193.15,52.39L193.56,52.89L193.57,51.87L193.76,51.87L194.44,52.32L194.63,52.22L194.75,52.68L195.23,52.29L195.44,52.3L195.67,54.03L196.06,53.68L196.26,53.68L196.46,53.68L196.46,52.87L196.88,52.85L196.93,54.55L197.13,54.56L197.36,53.73L197.87,56.52L198.07,56.25L198.27,56.26L199.05,56.33L199.24,55.38L199.44,55.36L199.64,54.54L200.03,54.55L200.03,54.55L200.04,53.69L200.23,53.69L200.27,54.59L200.67,54.21L200.72,55.21L200.92,55.24L201.38,55.78L201.38,55.8L201.42,57.42L202.21,57.28L202.41,56.52L202.6,56.53L202.6,55.8L202.79,54.89L202.99,54.87L203.18,54.02L203.69,56.65L203.88,55.92L204.08,55.92L205.07,67.92L205.07,67.91L205.28,67.64L205.77,70.01L206.04,69.63L206.04,68.77L206.77,67.69L206.77,67.69L206.89,68.08L208.03,71.12L208.09,71.88L208.89,74.85L209.11,75.17L209.34,73.05L209.79,73.5L210.01,73.85L210.6,74.73L210.93,74.24L211.17,74.44L213.21,77.47L213.44,76.75L213.44,75.9L215.11,76.87L215.31,76.89L216.19,81.07L216.5,81.23L216.73,81.57L216.77,83.08L218.45,83.63L218.57,84.02L218.98,83.38L218.98,83.37L219.02,84.92L219.23,85.25L219.44,84.84L219.64,83.92L220.47,84.15L220.47,84.14L220.47,82.41L221.71,83.74L222.03,84.84L222.79,78.29L223.24,78.58L223.44,78.6L224.11,80.27L224.15,81.4L225.11,81.96L225.33,82.16L225.54,80.46L226.17,80.78L226.37,80.79L226.62,82.45L227.03,80.8L227.23,80.81L227.64,80.78L227.69,82.62L228.29,82.68L228.34,84.51L228.54,84.52L228.75,82.75L228.75,81.01L229.24,84.58L229.45,84.58L229.65,84.59L229.74,82.21L230.36,82.25L230.56,81.39L231.26,74.01L231.46,73.52L232.06,70.21L232.22,70.19L233.45,69.64L233.45,69.32L233.68,72.35L233.97,71.35L234.16,70.85L234.77,70.95L234.77,70.16L235.47,67.62L235.67,67.25L235.92,69.32L236.32,67.32L236.52,66.75L236.94,66.49L236.98,67.75L237.46,66.6L237.5,68.08L238.11,67.97L238.11,66.84L238.73,66.08L238.93,65.91L239.17,67.77L239.57,66.6L239.77,66.04L239.97,64.62L240.32,68.69L240.53,67.65L240.95,67.45" style="vector-effect: non-scaling-stroke; fill: none; stroke: rgb(0, 204, 150); stroke-opacity: 1; stroke-width: 2px; opacity: 1;"/></g><g class="points"/><g class="text"/></g><g class="trace scatter trace5f7ab0" style="stroke-miterlimit: 2; opacity: 1;"><g class="fills"/><g class="errorbars"/><g class="lines"><path class="js-line" d="M0,225.35L0.84,88.98L0.96,88.45L1.47,88.45L1.58,86.48L1.96,86.48L1.96,86.48L2.2,19.17L2.89,19.17L2.89,19.17L3.12,17.71L9.33,17.35L9.59,16.26L12.99,15.94L13.28,15.17L240.95,14.85" style="vector-effect: non-scaling-stroke; fill: none; stroke: rgb(0, 204, 150); stroke-opacity: 1; stroke-width: 2px; opacity: 1; stroke-dasharray: 9px, 9px;"/></g><g class="points"/><g class="text"/></g></g></g><g class="overplot"/><path class="xlines-above crisp" d="M71,297.5H313" style="fill: none; stroke-width: 1px; stroke: rgb(36, 36, 36); stroke-opacity: 1;"/><path class="ylines-above crisp" d="M71.5,0V297" style="fill: none; stroke-width: 1px; stroke: rgb(36, 36, 36); stroke-opacity: 1;"/><g class="overlines-above"/><g class="xaxislayer-above"><path class="xtick ticks crisp" d="M0,298v5" transform="translate(138.91,0)" style="stroke: rgb(68, 68, 68); stroke-opacity: 1; stroke-width: 1px;"/><path class="xtick ticks crisp" d="M0,298v5" transform="translate(205.87,0)" style="stroke: rgb(68, 68, 68); stroke-opacity: 1; stroke-width: 1px;"/><path class="xtick ticks crisp" d="M0,298v5" transform="translate(272.83000000000004,0)" style="stroke: rgb(68, 68, 68); stroke-opacity: 1; stroke-width: 1px;"/><g class="xtick"><text text-anchor="middle" x="0" y="319.8" transform="translate(138.91,0)" style="font-family: 'Times new roman', monospace; font-size: 14px; fill: rgb(36, 36, 36); fill-opacity: 1; white-space: pre; opacity: 1;">50</text></g><g class="xtick"><text text-anchor="middle" x="0" y="319.8" style="font-family: 'Times new roman', monospace; font-size: 14px; fill: rgb(36, 36, 36); fill-opacity: 1; white-space: pre; opacity: 1;" transform="translate(205.87,0)">100</text></g><g class="xtick"><text text-anchor="middle" x="0" y="319.8" style="font-family: 'Times new roman', monospace; font-size: 14px; fill: rgb(36, 36, 36); fill-opacity: 1; white-space: pre; opacity: 1;" transform="translate(272.83000000000004,0)">150</text></g></g><g class="yaxislayer-above"><path class="ytick ticks crisp" d="M71,0h-5" transform="translate(0,252.9)" style="stroke: rgb(68, 68, 68); stroke-opacity: 1; stroke-width: 1px;"/><path class="ytick ticks crisp" d="M71,0h-5" transform="translate(0,174.75)" style="stroke: rgb(68, 68, 68); stroke-opacity: 1; stroke-width: 1px;"/><path class="ytick ticks crisp" d="M71,0h-5" transform="translate(0,96.59)" style="stroke: rgb(68, 68, 68); stroke-opacity: 1; stroke-width: 1px;"/><path class="ytick ticks crisp" d="M71,0h-5" transform="translate(0,18.43)" style="stroke: rgb(68, 68, 68); stroke-opacity: 1; stroke-width: 1px;"/><g class="ytick"><text text-anchor="end" x="63.2" y="4.8999999999999995" transform="translate(0,252.9)" style="font-family: 'Times new roman', monospace; font-size: 14px; fill: rgb(36, 36, 36); fill-opacity: 1; white-space: pre; opacity: 1;">−1500</text></g><g class="ytick"><text text-anchor="end" x="63.2" y="4.8999999999999995" style="font-family: 'Times new roman', monospace; font-size: 14px; fill: rgb(36, 36, 36); fill-opacity: 1; white-space: pre; opacity: 1;" transform="translate(0,174.75)">−1000</text></g><g class="ytick"><text text-anchor="end" x="63.2" y="4.8999999999999995" style="font-family: 'Times new roman', monospace; font-size: 14px; fill: rgb(36, 36, 36); fill-opacity: 1; white-space: pre; opacity: 1;" transform="translate(0,96.59)">−500</text></g><g class="ytick"><text text-anchor="end" x="63.2" y="4.8999999999999995" style="font-family: 'Times new roman', monospace; font-size: 14px; fill: rgb(36, 36, 36); fill-opacity: 1; white-space: pre; opacity: 1;" transform="translate(0,18.43)">0</text></g></g><g class="overaxes-above"/></g></g><g class="polarlayer"/><g class="smithlayer"/><g class="ternarylayer"/><g class="geolayer"/><g class="funnelarealayer"/><g class="pielayer"/><g class="iciclelayer"/><g class="treemaplayer"/><g class="sunburstlayer"/><g class="glimages"/><defs id="topdefs-c03909"><g class="clips"/><clipPath id="legendc03909"><rect width="132" height="138" x="0" y="0"/></clipPath></defs><g class="layer-above"><g class="imagelayer"/><g class="shapelayer"/></g><g class="infolayer"><g class="legend" pointer-events="all" transform="translate(317.82,0)"><rect class="bg" shape-rendering="crispEdges" width="132" height="138" x="0" y="0" style="stroke: rgb(68, 68, 68); stroke-opacity: 1; fill: rgb(255, 255, 255); fill-opacity: 1; stroke-width: 0px;"/><g class="scrollbox" transform="" clip-path="url(#legendc03909)"><g class="groups"><g class="traces" transform="translate(0,15.6)" style="opacity: 1;"><text class="legendtext" text-anchor="start" x="40" y="5.46" style="font-family: 'Times new roman', monospace; font-size: 14px; fill: rgb(36, 36, 36); fill-opacity: 1; white-space: pre;">SA mean</text><g class="layers" style="opacity: 1;"><g class="legendfill"/><g class="legendlines"><path class="js-line" d="M5,0h30" style="fill: none; stroke: rgb(99, 110, 250); stroke-opacity: 1; stroke-width: 2px;"/></g><g class="legendsymbols"><g class="legendpoints"/></g></g><rect class="legendtoggle" x="0" y="-10.6" width="126.921875" height="21.2" style="fill: rgb(0, 0, 0); fill-opacity: 0;"/></g><g class="traces" transform="translate(0,36.8)" style="opacity: 1;"><text class="legendtext" text-anchor="start" x="40" y="5.46" style="font-family: 'Times new roman', monospace; font-size: 14px; fill: rgb(36, 36, 36); fill-opacity: 1; white-space: pre;">SA max</text><g class="layers" style="opacity: 1;"><g class="legendfill"/><g class="legendlines"><path class="js-line" d="M5,0h30" style="fill: none; stroke: rgb(99, 110, 250); stroke-opacity: 1; stroke-dasharray: 9px, 9px; stroke-width: 2px;"/></g><g class="legendsymbols"><g class="legendpoints"/></g></g><rect class="legendtoggle" x="0" y="-10.6" width="126.921875" height="21.2" style="fill: rgb(0, 0, 0); fill-opacity: 0;"/></g><g class="traces" transform="translate(0,58)" style="opacity: 1;"><text class="legendtext" text-anchor="start" x="40" y="5.46" style="font-family: 'Times new roman', monospace; font-size: 14px; fill: rgb(36, 36, 36); fill-opacity: 1; white-space: pre;">NSGA-II mean</text><g class="layers" style="opacity: 1;"><g class="legendfill"/><g class="legendlines"><path class="js-line" d="M5,0h30" style="fill: none; stroke: rgb(239, 85, 59); stroke-opacity: 1; stroke-width: 2px;"/></g><g class="legendsymbols"><g class="legendpoints"/></g></g><rect class="legendtoggle" x="0" y="-10.6" width="126.921875" height="21.2" style="fill: rgb(0, 0, 0); fill-opacity: 0;"/></g><g class="traces" transform="translate(0,79.19999999999999)" style="opacity: 1;"><text class="legendtext" text-anchor="start" x="40" y="5.46" style="font-family: 'Times new roman', monospace; font-size: 14px; fill: rgb(36, 36, 36); fill-opacity: 1; white-space: pre;">NSGA-II max</text><g class="layers" style="opacity: 1;"><g class="legendfill"/><g class="legendlines"><path class="js-line" d="M5,0h30" style="fill: none; stroke: rgb(239, 85, 59); stroke-opacity: 1; stroke-dasharray: 9px, 9px; stroke-width: 2px;"/></g><g class="legendsymbols"><g class="legendpoints"/></g></g><rect class="legendtoggle" x="0" y="-10.6" width="126.921875" height="21.2" style="fill: rgb(0, 0, 0); fill-opacity: 0;"/></g><g class="traces" transform="translate(0,100.39999999999999)" style="opacity: 1;"><text class="legendtext" text-anchor="start" x="40" y="5.46" style="font-family: 'Times new roman', monospace; font-size: 14px; fill: rgb(36, 36, 36); fill-opacity: 1; white-space: pre;">TS mean</text><g class="layers" style="opacity: 1;"><g class="legendfill"/><g class="legendlines"><path class="js-line" d="M5,0h30" style="fill: none; stroke: rgb(0, 204, 150); stroke-opacity: 1; stroke-width: 2px;"/></g><g class="legendsymbols"><g class="legendpoints"/></g></g><rect class="legendtoggle" x="0" y="-10.6" width="126.921875" height="21.2" style="fill: rgb(0, 0, 0); fill-opacity: 0;"/></g><g class="traces" transform="translate(0,121.6)" style="opacity: 1;"><text class="legendtext" text-anchor="start" x="40" y="5.46" style="font-family: 'Times new roman', monospace; font-size: 14px; fill: rgb(36, 36, 36); fill-opacity: 1; white-space: pre;">TS max</text><g class="layers" style="opacity: 1;"><g class="legendfill"/><g class="legendlines"><path class="js-line" d="M5,0h30" style="fill: none; stroke: rgb(0, 204, 150); stroke-opacity: 1; stroke-dasharray: 9px, 9px; stroke-width: 2px;"/></g><g class="legendsymbols"><g class="legendpoints"/></g></g><rect class="legendtoggle" x="0" y="-10.6" width="126.921875" height="21.2" style="fill: rgb(0, 0, 0); fill-opacity: 0;"/></g></g></g><rect class="scrollbar" rx="20" ry="3" width="0" height="0" x="0" y="0" style="fill: rgb(128, 139, 164); fill-opacity: 1;"/></g><g class="g-gtitle"/><g class="g-xtitle" transform="translate(0,-3.7124999999999773)"><text class="xtitle" x="192.5" y="349.7125" text-anchor="middle" style="font-family: 'Times new roman', monospace; font-size: 17px; fill: rgb(36, 36, 36); opacity: 1; font-weight: normal; white-space: pre;">time in minutes</text></g><g class="g-ytitle" transform="translate(14.603515625,0)"><text class="ytitle" transform="rotate(-90,0.3968749999999943,148.5)" x="0.3968749999999943" y="148.5" text-anchor="middle" style="font-family: 'Times new roman', monospace; font-size: 17px; fill: rgb(36, 36, 36); opacity: 1; font-weight: normal; white-space: pre;">fitness</text></g></g></svg>