<svg class="main-svg" xmlns="http://www.w3.org/2000/svg" xmlns:xlink="http://www.w3.org/1999/xlink" width="450" height="450" style="" viewBox="0 0 450 450"><rect x="0" y="0" width="450" height="450" style="fill: rgb(255, 255, 255); fill-opacity: 1;"/><defs id="defs-070c0c"><g class="clips"><clipPath id="clip070c0cxyplot" class="plotclip"><rect width="238" height="397"/></clipPath><clipPath class="axesclip" id="clip070c0cx"><rect x="75" y="0" width="238" height="450"/></clipPath><clipPath class="axesclip" id="clip070c0cy"><rect x="0" y="0" width="450" height="397"/></clipPath><clipPath class="axesclip" id="clip070c0cxy"><rect x="75" y="0" width="238" height="397"/></clipPath></g><g class="gradients"/><g class="patterns"/></defs><g class="bglayer"/><g class="layer-below"><g class="imagelayer"/><g class="shapelayer"/></g><g class="cartesianlayer"><g class="subplot xy"><g class="layer-subplot"><g class="shapelayer"/><g class="imagelayer"/></g><g class="minor-gridlayer"><g class="x"/><g class="y"/></g><g class="gridlayer"><g class="x"/><g class="y"/></g><g class="zerolinelayer"/><path class="xlines-below"/><path class="ylines-below"/><g class="overlines-below"/><g class="xaxislayer-below"/><g class="yaxislayer-below"/><g class="overaxes-below"/><g class="plot" transform="translate(75,0)" clip-path="url(#clip070c0cxyplot)"><g class="scatterlayer mlayer"><g class="trace scatter trace6b3cfc" style="stroke-miterlimit: 2; opacity: 1;"><g class="fills"/><g class="errorbars"/><g class="lines"><path class="js-line" d="M32.14,329.58L32.21,329.89L32.58,329.07L32.67,327.7L33.79,318.32L33.87,318.87L33.96,319.47L34.78,321.82L35.36,322.58L36.49,324.15L37.06,323.4L38.64,325.2L39.06,323.62L41.12,325.68L41.24,327.02L41.39,326.52L41.69,327.29L41.83,327.8L42.45,334.05L42.78,332.9L42.86,331.78L43.36,326.69L43.65,330.4L43.73,329.9L44.04,331.1L44.08,331.87L44.62,337.26L44.8,335.83L44.84,335.96L44.99,335.76L45.03,337.87L46.03,351.01L46.12,351.24L46.3,352.71L46.31,353.89L47.03,362.76L47.23,362.11L47.41,361.23L47.71,361.16L47.76,361.69L47.81,362.3L48.67,366.03L48.76,365.89L48.8,365.78L48.93,365.97L49.49,362.62L49.99,362.72L51.03,361.33L51.54,361.48L52.77,361.58L53.15,360.87L55.07,359.02L55.4,358.96L57.28,363.96L57.28,363.59L59.21,364.39L59.27,365.72L62.04,361.89L62.5,361.78L63.19,364.75L63.7,363.96L64.37,365.7L64.88,365.95L65.06,368.52L65.1,369.78L65.5,369.31L66.06,375.37L66.11,376.31L66.17,377.15L66.68,375.28L66.94,374.64L68.59,369.14L68.65,370.73L68.81,373.56L69.3,369.84L69.37,369.85L69.44,368.86L69.8,369.09L69.96,368.79L70.05,370.17L70.25,369.98L70.31,371.25L70.46,371.41L70.95,370.36L71.21,372.6L71.27,373.69L71.35,374.47L71.72,372.37L71.84,372.37L71.85,370.99L72.54,371.24L73.01,370.07L75.59,362.11L75.59,361.67L76.02,355.63L76.48,358.58L76.56,358.32L77.63,362.75L77.8,361.84L80.35,351.72L80.7,350.73L81.21,346.86L81.52,344.58L83.59,333.48L83.88,332.74L85.03,331.26L85.4,330.6L86.24,328.5L86.37,329.6L86.43,331L87.07,335.33L87.4,335.2L87.4,333.73L87.54,333.86L87.66,332.91L88.03,333.33L88.1,333.8L89.28,323.49L89.41,325.51L89.47,326.76L90.8,340.76L90.84,342.48L91.79,362.83L91.92,361.87L91.99,361.23L92.04,362.43L92.53,359.86L92.7,360.88L92.77,360.33L94.14,353.89L94.51,353.73L96.87,346.65L97.24,346.49L98.97,358.87L99.45,358.03L101.04,357.92L101.81,356.97L102.81,354.67L103.02,353.38L103.49,351.86L103.7,350.74L104.64,347.72L104.89,348.05L105.07,347.96L105.59,347.41L106.31,347.79L106.47,347.59L106.82,348.51L107.64,351.36L107.79,353.1L108.5,361.83L108.6,364.3L108.81,364.26L109.03,365.2L109.75,361.63L110.06,363.45L110.21,364.45L110.77,368.44L110.91,369.89L111.34,370.48L111.58,369.91L111.69,369.55L112.04,370.94L113.39,365.53L113.87,364.3L116.83,355.63L117,356.81L117,358L117.51,357.31L117.68,358.13L118.63,357.31L119.05,358.58L119.57,358.21L120.07,358.25L120.58,358.24L121.1,356.8L123.47,351.4L124,350.38L126.04,343.39L126.12,342.27L126.79,340.1L127.3,339.71L127.94,338.59L128.06,339.66L128.11,340.35L130.71,316.81L131.18,315.49L131.65,313.57L132.08,312.2L132.2,312.97L132.77,308.59L132.92,310.79L132.97,311.73L133.25,313.86L133.47,311.33L133.57,310.21L135.01,303.21L135.21,302.47L136.4,294.79L136.76,292.54L137.14,291.47L137.28,293.33L137.43,291.25L139.18,274.43L139.37,273.81L141.42,268.92L141.51,269.23L141.89,266.71L142.3,265.73L147.37,254.8L147.57,253.37L147.94,249.2L148.34,249.52L148.69,249.9L149.81,250.16L150.05,250.12L151.02,249.84L151.04,250.98L151.8,251.48L151.84,252.06L152.01,250.47L152.54,253.91L152.62,253.18L152.73,252.62L152.84,251.89L153.08,254.78L153.13,256.5L153.4,258.12L153.99,257.32L154.06,256.3L155.02,288.36L155.57,286.71L155.7,286.45L156.53,282.31L156.72,280.99L156.76,280.68L157.81,288L157.84,289.31L158.02,294.85L158.46,288.36L158.64,286.26L159.96,279.69L160.09,279.78L160.39,282.6L160.9,281.36L161.08,281.1L161.34,280.74L161.42,281.76L161.46,283.19L161.52,286.6L162.06,275.86L162.11,274.31L162.21,271.04L162.8,274.65L162.84,276.18L164.61,299.27L164.64,299.39L164.71,299.98L165.01,297.64L165.17,298.98L165.25,298.24L166.61,291.09L166.78,291.56L167.71,295.87L168.13,295.48L168.36,295.16L168.6,295.72L168.72,294.57L168.77,293.85L169.93,283.87L170.07,281.75L171.42,261.68L171.61,263.48L171.66,264.13L171.93,269.86L172.33,266.18L172.33,264.79L172.88,250.23L173.32,255.27L173.4,255.66L173.73,256.85L174.06,255.79L174.23,255.23L174.4,255.1L174.46,255.96L174.46,257.74L174.91,262.36L175.27,261.19L175.44,260.72L175.61,260.24L175.87,261.03L175.9,262.31L177.65,286.5L177.69,286.25L177.74,285.04L177.92,287.86L178.25,285.25L178.42,284.05L178.84,282.23L179,280.04L180.43,272.68L180.71,272.83L180.74,273.72L181.12,281.86L181.59,281.08L181.75,280.87L181.91,280.73L182.06,281.47L182.22,282.17L183.21,284.99L183.37,283.1L185.43,266.2L185.47,266.74L185.52,266.74L185.67,267.06L185.72,266.48L185.76,266.52L185.81,265.28L188.74,251.69L188.83,251.22L188.91,250.36L189.34,252.24L189.41,250.99L189.44,252.78L189.61,251.88L189.68,249.88L196.3,193.6L196.43,194.95L196.48,196.11L197.4,204.71L197.55,204.48L197.58,204.71L197.72,203.41L197.76,202.41L198.64,195.77L198.83,195.96L199.71,196.16L199.89,196.12L201.19,199.8L201.35,200.61L202.12,204.58L202.29,203.91L202.47,203.17L203.8,201.17L204.05,201.57L204.3,200.64L204.3,199.85L205,199.63L205.06,199.36L205.38,201.29L205.72,198.84L205.89,197.58L205.97,198.45L206.32,195.89L206.49,194.69L207.57,190.05L207.73,188.87L208.21,187.17L208.24,188.94L208.27,190.77L208.62,188.02L208.78,187.51L209.92,186.04L209.94,187.72L210.3,186.98L210.58,187.72L210.75,187.78L210.79,188.5L211.13,186.2L211.21,186.8L211.48,187.19L211.52,187.71L211.87,184.12L211.91,184.7L212.06,184.7L212.54,184.74L212.6,185.33L212.77,185.01L215.34,211.31L215.36,212.61L216.5,242.18L216.69,242.46L216.83,243.14L217.35,241.98L217.55,241.97L218.14,241.67L218.39,244.06L218.48,244.6L218.66,244.22L218.71,245.06L219.07,244.96L219.25,244.85L219.31,247L220.01,245.95L220.18,245.64L220.74,246.18L220.85,245.79L220.93,245.26L221.46,243.9L221.92,244.12L221.96,244.44L222.4,252.51L222.48,251.46L222.52,253.84L222.81,253.3L222.81,259L223.27,256.24L223.34,254.34L223.7,255.38L223.94,252.69L224.09,253.5L224.13,255.06L225.33,259.67L225.5,257.42L225.86,255.13L226.2,257.74L226.24,259.1L226.39,258.76L226.51,259.37L226.63,259.11L226.66,261.45L226.78,259.87L227.01,263.86L227.08,263.57L227.11,265.59L227.81,269.68L228.02,269.53L228.12,269.61L228.42,268.98L228.47,269.07L228.5,270.43L228.7,270.73L231.01,259.5L231.05,260.08L231.57,256.43L231.58,254.66L231.65,255.12L232.84,242.19L232.9,242.12L233.59,233.01L233.72,232.45L234.93,228.21L234.93,225.77L237.09,218.75L237.09,216.92L237.59,216.5L237.71,215.95L237.94,217.13L238,216.68" style="vector-effect: non-scaling-stroke; fill: none; stroke: rgb(99, 110, 250); stroke-opacity: 1; stroke-width: 2px; opacity: 1;"/></g><g class="points"/><g class="text"/></g><g class="trace scatter trace4e0ebf" style="stroke-miterlimit: 2; opacity: 1;"><g class="fills"/><g class="errorbars"/><g class="lines"><path class="js-line" d="M0,241.75L0.97,241.75L1.07,147.95L1.99,126.19L2.06,126.19L3.87,126.19L4.09,123.7L9.37,123.7L9.37,123.7L9.57,114.06L10.59,96.77L10.59,96.77L10.73,96.77L12.66,96.77L13.16,57.96L13.63,57.96L14.13,31.6L81.86,31.24L82.21,29.36L113.39,29.36L113.87,28.35L114.63,28.35L115.06,26.56L116.43,25.91L116.83,24.81L178.84,24.43L179,23.91L207.41,23.91L207.57,22.32L238,22.32" style="vector-effect: non-scaling-stroke; fill: none; stroke: rgb(99, 110, 250); stroke-opacity: 1; stroke-width: 2px; opacity: 1; stroke-dasharray: 9px, 9px;"/></g><g class="points"/><g class="text"/></g><g class="trace scatter trace85b9dd" style="stroke-miterlimit: 2; opacity: 1;"><g class="fills"/><g class="errorbars"/><g class="lines"><path class="js-line" d="M14.44,278.61L14.85,275.65L15.06,282.93L15.24,281.89L15.24,279.96L15.32,278.92L15.7,281.21L15.86,280.74L15.89,281.56L15.93,277.79L16.62,283.89L16.82,284.03L16.97,285.04L17.58,277.65L17.61,278.77L17.83,278.8L17.86,280.3L17.97,275.99L18.49,276.47L18.73,275.6L19.14,276.35L19.14,274.47L19.24,275.62L19.24,277.37L19.64,285.42L19.94,283.35L20.05,283.4L20.41,282.04L20.44,286.18L20.44,285.18L20.47,286.46L20.58,283.42L21,289.33L21.07,288.33L21.24,286.65L21.32,288.15L21.39,281.13L21.78,283.58L22,282.3L22.1,282.8L22.39,277.31L22.72,280.26L22.89,280.93L23.2,287.61L23.6,286.81L23.74,286.04L23.78,287.56L24.31,276.01L24.34,276.17L24.58,277.09L24.73,280.73L25.16,273.17L25.21,273.69L25.38,273.95L25.58,275.09L25.61,276.18L25.75,277.44L25.94,276.26L25.94,275.12L26.31,265.6L26.67,265.64L26.84,264.53L27.22,264.02L27.24,267.83L27.44,266.05L27.68,266.1L28.06,267.62L28.53,264.08L28.53,264.19L28.57,265.38L28.99,254.75L29.26,256.14L29.49,257.18L29.84,254.31L29.87,257.91L29.9,259.24L30.12,259.33L30.12,252.12L30.37,256.71L30.4,257.85L30.64,257.42L30.82,264.3L31.17,258.45L31.17,257.4L31.73,263.33L31.77,259L31.95,258.68L32.27,265.45L32.72,262.91L32.72,261.09L32.86,263.6L33.26,257.81L33.47,258.99L33.48,260.42L33.56,259.95L33.59,265.13L33.6,261.04L33.63,259.92L34.36,247.41L34.36,248.54L34.51,248.43L34.76,248.19L34.76,246.74L35.45,236.15L35.45,237.39L35.81,237.71L35.98,237.56L35.98,236.32L36.33,244.57L36.73,240.53L36.8,240.18L37.45,239.5L37.48,241.22L37.69,240.92L38.51,246.37L38.52,245.32L38.65,244.97L38.84,234.2L39.32,239.11L39.49,238.03L39.49,240.53L39.87,236.07L40.14,237.29L40.33,236.54L40.8,234.78L40.8,238.32L40.95,237.17L41.11,236.55L41.11,236.3L41.62,245.94L41.83,244.34L41.88,245.61L41.88,247.07L42.17,239.58L42.56,242.14L42.75,241.9L43.07,240.08L43.3,247.17L43.54,246.2L43.54,246.36L43.78,241.14L44.09,244.68L44.34,243.78L44.58,242.76L44.8,242.99L44.97,240.63L45.45,244.93L45.65,236.21L45.76,235.79L46.15,229.21L46.24,238.54L46.49,238.21L46.66,238.62L47.08,239.32L47.23,236.38L47.23,235.19L48.25,220.11L48.25,221.34L48.28,223.48L48.28,221.19L48.7,227.6L48.87,223.36L49.06,222.25L49.1,222.7L49.6,213.61L49.77,218.9L49.95,218L50.11,222.72L50.28,207.76L50.46,211.51L50.63,211.99L50.94,218.78L51.19,209.54L51.19,210.68L51.36,211.17L52.15,216.17L52.36,216.12L52.49,216.08L52.93,210.1L53.16,213.66L53.32,213.91L53.55,208.53L54.04,215.68L54.11,216.22L54.79,202.42L54.96,201.52L54.96,202.14L55.55,187.62L55.73,187.76L55.73,189.72L56.42,177.66L56.42,177.92L56.54,176.87L56.54,178.1L57.19,174.98L57.22,175.46L57.38,175.74L57.55,175.67L57.59,176.41L57.59,177.35L57.59,178.53L58.08,168.37L58.24,174.36L58.42,174.5L58.42,170.54L59.02,191.11L59.02,190.44L59.19,189.6L59.19,188.8L59.59,194.19L59.75,192.66L59.95,194.1L60.24,194.7L60.24,191.28L60.27,194.45L60.27,195.34L61.02,205.82L61.02,203.56L61.24,203.82L61.92,196.12L62.09,195.85L62.13,198.91L62.79,191.95L62.79,192.82L62.95,191.54L63.58,180.33L63.61,184.35L63.84,185.08L64.05,185.27L64.89,172.6L64.89,171.12L65.51,156.57L65.68,155.64L65.85,158.31L66.38,151.86L66.4,157.79L66.5,158.28L66.5,154.91L66.66,164.69L67.24,156.93L67.48,157.44L67.48,156.85L68.09,175.78L68.25,177.05L68.29,178.26L68.69,164.94L69.05,166.22L69.23,166.01L69.48,166.52L69.48,165.05L69.48,165.81L69.48,164.64L69.61,166.65L69.96,155.95L70.18,158.16L70.34,157.28L70.34,158.46L70.8,138.26L70.95,139.88L71.1,138.93L71.26,138.36L71.85,144.65L71.85,143.27L71.87,145.62L72.16,148.05L72.16,140.57L72.57,141.43L72.74,140.51L72.74,146.08L72.98,131.53L73.43,136.49L73.5,136.9L73.5,136.74L74.09,149.12L74.09,145.29L74.26,145.55L74.51,144.22L74.72,145.59L74.72,147.39L75.46,132.69L75.46,133.33L75.53,133.18L75.72,127.82L76.23,141.19L76.23,140.29L76.4,140.26L76.79,146.63L77.13,128.16L77.13,129.71L77.17,129.97L77.38,135.27L77.58,128.8L77.92,132.47L78.09,131.43L78.09,129.91L78.77,152.31L78.83,150.52L78.99,150.49L78.99,149.83L79.35,159.06L79.71,155.52L79.88,155.73L79.92,154.72L79.95,167.75L80.62,161.69L80.78,160.48L80.87,142.56L81.47,204.43L81.53,204.39L81.54,205.29L81.78,203.96L82.09,209.8L82.29,207.45L82.45,206.54L82.72,207.76L82.77,200.42L82.94,200.61L83.1,199.72L83.29,206.17L83.49,194.4L83.72,200.74L83.88,200.08L83.88,197.05L84.58,210L84.58,209.7L84.67,209.26L85.12,217.76L85.29,213.24L85.45,212.47L86.04,203.4L86.14,204.12L86.31,205.29L86.41,201.67L86.48,207.64L86.48,207.34L86.48,208.24L86.48,206.65L86.57,212.95L87.23,210.58L87.25,211.76L87.32,214.9L88,201.19L88.03,201.71L88.28,213.76L88.78,213.46L88.94,213L89.01,216.76L89.56,214.96L89.72,214.14L89.72,215.69L90.34,202.39L90.36,204.96L90.52,204.05L90.63,202L90.63,204.83L90.8,204.09L90.8,204.9L90.8,205.09L91.39,198.81L91.39,200.06L91.56,199.14L92.26,195.47L92.42,194.77L92.81,190.26L93.01,199.46L93.17,197.3L93.35,196.38L93.51,194.74L94.09,207.93L94.09,204.02L94.12,205.02L94.85,186.16L94.85,186.16L94.95,185.21L95.17,181.26L95.52,188L95.69,187.6L95.86,186.7L95.86,187.6L96.39,179.25L96.6,181.4L96.77,180.54L96.93,179.62L97.14,182.46L97.25,181.91L97.25,183.1L97.25,185.18L97.98,173.68L97.98,173.68L98.15,172.77L98.49,170.97L98.89,180.58L98.9,177.7L98.93,179.23L99.28,176.99L99.28,185.36L99.63,184.62L99.81,184.05L99.9,186.45L100.49,181.31L100.49,181.31L100.72,181.45L100.72,182.35L101.47,173.52L101.47,173.52L101.5,175.86L101.5,178.74L102.01,174.33L102.17,175.59L102.34,174.67L103.02,159.52L103.06,161.68L103.27,161.76L103.9,149.66L103.94,157.99L104.12,156.86L104.13,156.53L104.62,163.67L104.62,163.32L104.85,164.56L105.41,161.25L105.46,169.22L105.46,167.04L105.62,167.02L105.78,167.48L105.78,165.36L105.78,165.36L105.78,165.07L105.78,165.96L105.96,158.24L106.38,159.61L106.55,158.51L107.3,134.76L107.3,135.75L107.35,135.48L107.66,136.36L107.86,127.26L108.08,127.6L108.25,128.7L108.26,129.35L108.7,124.6L108.83,127.13L109.11,127.49L109.77,115.17L109.78,119.36L110.03,120.4L110.19,116.93L110.42,123.43L110.77,119.54L111.03,120.71L111.03,119.7L111.71,132.73L111.89,132.85L111.89,129.95L112.42,141.81L112.57,138.02L112.81,138.11L112.87,140.8L113.47,122.8L113.52,124.92L113.69,124.01L113.69,124.42L113.85,116.76L114.3,118.64L114.46,117.38L115.07,110.86L115.24,110.84L115.91,77.73L115.91,77.73L116.05,77.36L116.77,79.7L116.8,73.36L116.8,73.36L116.97,72.14L117.14,70.9L117.58,75.64L117.74,75.62L118.05,72.63L118.46,78.31L118.46,74.79L118.71,75.79L118.72,78.71L119.41,71.01L119.41,73.14L119.49,73.5L119.66,75.31L120.22,65.81L120.38,65.96L121,62.23L121.05,65.99L121.05,65.09L121.27,63.85L121.78,58.29L121.99,58.32L122.04,58.98L122.09,59.6L122.38,55.1L122.38,55.12L122.59,55.32L122.67,56.11L123.05,54.68L123.22,54.79L123.22,53.36L123.23,50.11L123.72,59.18L123.9,56.08L124.06,54.85L124.06,53.63L124.48,61.27L124.77,61.05L124.93,61.17L124.98,63.73L125.44,57.06L125.61,57.08L125.61,54.68L126,45.05L126.23,57.5L126.33,57.21L126.57,58.25L126.73,56.84L126.87,61.7L126.88,57.95L126.88,57.05L127.41,44.73L127.58,49.47L127.73,50.01L127.73,49.92L128.39,58.14L128.4,56.84L128.55,57.81L128.73,58.4L129.23,54.92L129.23,55.82L129.42,54.92L129.77,46.06L130.14,51.99L130.31,51.98L130.31,50.96L130.93,54.9L130.93,54.89L131.11,54.89L131.12,53.62L131.73,66.08L131.78,65.99L131.94,66.96L132.21,61.01L132.54,63.9L132.71,63.87L133,69.2L133.36,62.16L133.36,63.06L133.54,63.06L134.14,56.14L134.14,56.14L134.31,56.12L134.67,57.49L134.86,55.61L134.86,55.61L135.04,55.57L135.04,56.43L135.41,47.26L135.69,52.31L135.87,53.14L135.87,54.05L136.6,44.06L136.6,45.05L136.77,46L137.2,47.33L137.46,44.62L137.63,45.65L137.64,44.14L138.29,52.64L138.29,52.64L138.46,52.61L138.8,50.91L139.03,56.97L139.06,53.12L139.25,54.21L139.42,55.95L139.5,47.52L139.86,49.54L140.01,50.5L140.5,45.31L140.75,47.2L140.8,48.29L140.8,50.13L141.06,44.94L141.44,47.15L141.61,47.14L142.18,49.87L142.35,47.36L142.43,47.85L142.62,43.58L143,49.2L143.16,48.82L143.34,49.03L143.34,46.7L143.98,54.3L143.98,54.3L144.14,54.34L144.3,54.3L144.3,54.3L144.3,52.65L144.61,57.18L144.62,54.12L144.79,53.08L144.82,55.39L145.15,49.27L145.49,54.48L145.66,53.92L146.28,60.99L146.37,54.87L146.37,53.97L147.27,55.07L147.27,55.07L147.27,55.97L147.99,50.73L147.99,51.66L148.16,52.95L148.2,54.77L148.38,44.16L148.91,52.86L148.95,54.05L149.28,53.68L149.28,53.71L149.28,54.61L149.81,55.66L149.98,46.3L150.02,47.63L150.24,48.18L150.85,50.2L150.85,46.04L151.01,46.03L151.53,53.24L151.59,51.69L151.77,51.66L151.77,50.56L152.22,54.13L152.44,51.89L152.61,52.77L153.05,58.23L153.24,48.9L153.24,48.94L153.4,49.9L153.41,44.3L153.9,52.74L153.91,52.19L154.09,52.03L154.09,51.06L154.5,58.67L154.7,53.54L154.86,54.11L154.97,52.76L155.15,56.18L155.15,56.18L155.19,57.54L155.22,63.38L155.57,46.55L155.88,48.95L156.05,50L156.21,49.99L156.21,50.42L156.21,49.22L156.38,48.11L156.85,58.91L156.86,55.84L157.05,55.9L157.76,42.86L157.93,42.91L158.1,40.48L158.51,45.22L158.68,44.31L158.72,45.62L158.92,42.46L159.02,49.34L159.39,49.28L159.54,49.33L160.13,54.17L160.14,53.57L160.14,54.77L160.57,61.39L160.78,55.97L160.94,55.95L161.11,55.85L161.11,55.85L161.11,53.48L161.62,54.02L161.82,48.06L161.82,48.06L161.99,48.03L162.19,42.73L162.2,50.8L162.61,44.44L162.84,45.48L163.27,47.9L163.27,47.9L163.27,48.8L163.62,48.88L163.77,44.75L163.78,44.87L163.78,43.85L163.79,41.92L164.32,48.89L164.49,47.44L164.67,47.47L164.86,39.19L165.36,41.69L165.52,41.67L165.65,39.9L166.51,46.57L166.51,46.57L166.51,47.47L167.14,65.37L167.15,58.99L167.33,58.98L167.49,59.99L167.49,55.98L167.73,57.01L167.73,56.12L167.9,56.13L167.91,55.2L168.38,44.89L168.55,47.02L168.71,46.99L168.91,48.2L169.08,44.42L169.08,44.42L169.08,44.23L169.33,40.97L169.74,43.53L169.91,43.5L170.33,49.44L170.53,47.76L170.7,46.77L170.72,44.55L171.38,51.84L171.54,52.93L171.83,53.4L171.83,51.22L171.83,50.2L171.83,47.08L172.49,52.31L172.49,51.66L172.74,52.66L172.89,54.04L173.06,47.3L173.49,49.18L173.63,49.72L173.64,52.13L174.37,42.49L174.37,42.54L174.55,42.53L175.11,50.71L175.12,46.25L175.32,46.32L175.39,48.29L176,47.99L176.2,48.02L176.2,46.94L176.43,50.99L176.88,49.54L177.05,49.69L177.06,50.64L177.55,45.07L177.79,45.2L177.85,44.68L177.96,44.28L178.2,47.64L178.38,46.73L178.38,49.09L178.38,47.83L178.68,53.42L179.06,49.84L179.23,49.82L179.59,51.27L179.74,46.87L179.93,49.9L180.17,50.88L180.61,52.74L180.62,52.3L180.62,49.91L180.93,39.54L181.35,40.8L181.52,40.83L181.88,39.67L182.46,44.04L182.46,44.04L182.46,44.94L182.67,40.49L183.13,46.61L183.13,44.81L183.31,44.86L183.32,43.55L184,52.86L184,51.96L184.16,51.2L184.24,55.27L184.4,49.61L184.88,54.01L184.94,54.88L185.1,56.1L185.29,54.52L185.45,54.56L185.66,60.1L185.66,60.1L185.67,61.3L186.31,54.53L186.57,55.73L187.31,50.31L187.31,50.31L187.47,50.29L187.67,40.14L188.09,42.14L188.33,43.39L189.66,50.14L189.66,50.14L189.66,51.38L189.66,50.21L189.98,56.1L190.41,51.56L190.46,53.17L190.49,57.47L191.1,51.8L191.13,52.85L191.34,52.84L191.71,51.33L191.73,53.74L191.92,51.53L192.18,52.54L192.47,47.67L192.87,49.32L193.16,50.32L193.17,50.37L193.9,40.4L193.9,42.1L194.09,42.09L194.28,40.51L194.58,42.03L194.77,42.18L194.83,39.15L195.46,44.29L195.46,43.32L195.73,44.32L195.74,41.64L195.98,45.58L196.34,45.4L196.52,45.47L196.99,44.72L197.06,46.83L197.06,46.81L197.33,48.16L197.86,41.68L198.08,44.3L198.14,45.3L198.59,49.31L198.81,48.91L198.99,48.91L199.26,43.99L199.63,47.02L199.88,48.06L200.07,47.38L200.25,50.17L200.6,48.56L200.6,48.6L201.24,44.04L201.51,45.04L201.51,43.98L202.24,46.9L202.24,45.96L202.32,46.4L202.49,46.54L202.49,46.54L202.49,45.22L202.84,44.81L202.85,45.79L203.08,46.91L203.44,45.24L203.44,45.24L203.61,42.69L204.28,45.01L204.28,44L204.28,43.06L204.93,47.57L204.99,40.56L205,41.18L205.18,41.24L205.19,40L205.44,41.71L205.7,41.7L205.94,41.92L206.49,35.8L206.49,36.62L206.74,37.65L207.25,44L207.45,41.81L207.64,41.82L207.82,41.79L207.82,42.24L207.82,41.32L208.08,42.12L208.44,38.65L208.45,38.72L208.62,38.73L208.89,40.68L209.25,37.3L209.25,38.23L209.47,39.29L209.98,48.83L210.16,47.73L210.34,47.76L210.61,50.32L210.64,52.59L210.64,53.08L211.16,51.38L211.33,51.45L211.49,51L211.53,52.03L211.9,40.95L212.29,44.97L212.46,44.94L212.7,45.9L213.06,42.28L213.06,44.31L213.24,44.32L213.43,45.19L213.97,40.25L213.97,40.74L214.15,40.76L214.33,39.35L214.54,43.18L214.88,41.81L214.91,42.4L214.91,41.95L215.09,45.25L215.51,44.78L215.68,44.74L215.74,46.6L215.76,42.35L216.33,43.27L216.51,43.67L217.2,43.59L217.2,43.64L217.38,42.71L217.55,43.61L217.89,39.67L218.06,40.73L218.14,41.16L218.5,47.25L218.56,40.32L218.75,40.35L218.88,40.73L218.91,43.28L219.51,36.75L219.68,36.94L219.86,34.06L220.41,34.8L220.57,34.85L221.44,34.46L221.44,35.12L221.44,34.04L221.62,34.05L221.62,34.05L221.62,31.71L221.8,31.67L221.82,34.24L222.18,34.59L222.18,34.61L222.18,35.07L222.91,43.77L222.91,43.74L222.97,44.28L223.69,34.58L223.69,34.58L223.86,34.57L224.02,34.55L224.02,34.59L224.02,33.69L224.22,34.48L224.75,30.61L224.75,31.06L224.93,31.05L225.83,36.19L225.83,36.17L226.01,36.21L226.56,38.24L226.56,35.66L226.65,36.99L226.82,37.07L226.82,38L227.37,32.96L227.54,33.44L227.65,33.82L228.07,35.35L228.09,32.83L228.28,33.31L228.45,33.28L228.85,30.28L229.19,36.16L229.19,36.15L229.36,36.14L229.55,35L229.74,36.04L229.9,37.06L230.16,38.88L230.53,34.89L230.55,38.52L230.75,38.52L230.81,39.84L231.11,36.81L231.3,37.5L231.5,37.52L231.51,38.75L232.04,34.92L232.24,36.28L232.44,36.26L232.83,31.67L233.11,32.22L233.29,32.19L233.58,33.61L233.63,36.23L233.95,36.39L233.95,35.69L233.95,36.73L234.02,37.98L234.29,36.13L234.68,37.75L234.85,37.76L235.24,37.95L235.26,31.39L235.45,32.81L235.62,32.81L235.82,32.26L235.82,32.27L235.82,31.6L236.37,30.24L236.46,30.61L236.64,30.6L236.81,30.54L236.81,30.58L236.81,29.65L237.19,29.76L237.19,29.76L237.19,32.19L237.76,30.37L237.94,30.41L237.95,30.42L237.95,30.83L237.95,30.82" style="vector-effect: non-scaling-stroke; fill: none; stroke: rgb(239, 85, 59); stroke-opacity: 1; stroke-width: 2px; opacity: 1;"/></g><g class="points"/><g class="text"/></g><g class="trace scatter trace1048a6" style="stroke-miterlimit: 2; opacity: 1;"><g class="fills"/><g class="errorbars"/><g class="lines"><path class="js-line" d="M0,367.78L0.32,254.5L0.48,134.87L0.78,134.87L0.95,39.34L1.86,38.67L2.02,38.67L2.93,32.71L3.06,32.71L4.1,32.71L4.25,26.25L69.61,25.85L69.61,25.85L69.78,25L70.95,25L71.1,21.47L237.95,20.98L237.95,20.98" style="vector-effect: non-scaling-stroke; fill: none; stroke: rgb(239, 85, 59); stroke-opacity: 1; stroke-width: 2px; opacity: 1; stroke-dasharray: 9px, 9px;"/></g><g class="points"/><g class="text"/></g><g class="trace scatter tracec26859" style="stroke-miterlimit: 2; opacity: 1;"><g class="fills"/><g class="errorbars"/><g class="lines"><path class="js-line" d="M35.73,122.52L37.63,114.13L37.87,113.62L38.21,115.19L40.6,103.77L40.91,103.74L41.84,102.32L41.9,103.4L42.48,106.34L42.75,106.35L43.74,106.27L43.97,104.73L44.48,104.7L44.48,104.71L44.54,105.64L45.42,105.3L45.8,103.81L47.15,103.8L47.15,103.73L47.2,105.94L49.01,101.42L49.01,101.46L49.19,101.45L49.66,102.05L49.84,100.86L49.95,105.65L50.5,103.75L50.66,103.76L51.4,106.46L51.55,106.42L51.55,109.02L52.19,106.71L52.35,106.76L52.52,106.78L52.68,105.08L52.83,105.04L52.83,107.69L53.4,109.99L53.56,109.98L53.71,109.98L54.22,106.13L54.48,107.73L54.51,110.13L54.7,112.09L54.85,107.55L55.2,109.4L55.35,109.39L55.67,109.45L55.7,111.65L55.76,113.94L56.24,110.52L56.39,109.26L57.24,105.78L57.27,106.53L57.75,103.94L57.83,107.1L57.98,105.98L58.14,105.98L58.93,106.04L59.09,104.92L59.4,104.98L59.55,103L59.7,103L59.7,101.88L60.03,103.48L60.51,100.06L60.55,98.55L61.01,98.46L61.06,97.73L62.06,88.56L62.11,90.41L62.28,90.63L62.45,88.18L62.54,91.25L63.06,89.2L63.09,91.46L63.97,93.72L63.97,91.9L64.15,90.02L64.69,91.31L64.73,92.84L66.28,94.23L66.31,95.02L66.95,91.45L67.11,93.27L67.29,93.32L68.2,92.44L68.42,93.12L68.45,95.58L68.61,95.52L68.64,97.8L68.95,97.85L69.11,95.67L70.54,96.05L70.73,96.05L71.05,92.34L71.23,90.61L71.86,91.17L72.02,89.54L72.19,89.54L72.23,90.49L73.23,87.08L73.4,87.08L73.63,91.49L74.11,88.8L74.27,88.82L74.59,87.79L74.66,90.44L74.82,90.44L74.82,89.02L75.39,97.08L75.55,96.52L75.7,94.33L76.26,97.26L76.42,95.44L76.59,95.5L76.94,95.45L77.1,93.67L77.43,91.46L77.84,91.89L78,91.85L78.16,91.84L78.16,90.06L78.63,87.57L78.79,87.61L78.95,87.6L79.28,87.64L79.44,85.6L79.6,85.52L79.76,83.1L80.39,82.31L80.42,84.79L80.9,84.77L80.93,87.2L81.83,87.24L81.87,88.29L82.03,88.29L82.03,88.31L82.03,86.17L82.75,90.32L82.91,89.69L83.73,94.02L83.9,94.02L83.9,94.48L84.59,89.61L84.77,89.6L85.28,89.68L85.28,89.68L85.28,87.4L85.28,86.67L86.02,104.58L86.19,104.62L86.85,104.77L86.85,104.16L86.9,105.43L87.06,105.47L87.23,103.17L87.4,103.22L87.44,104.39L87.47,106.11L87.81,104.25L88.15,104.25L88.31,104.3L88.48,104.33L88.52,105.47L88.69,105.51L88.73,108.07L88.89,108.1L88.89,107.64L89.06,106.97L89.22,107L89.29,105.07L89.46,105.18L89.5,107.73L89.66,107.77L89.7,106.63L90.29,109.99L90.47,109.57L90.63,109.56L90.85,110.26L91.01,110.29L91.55,112.92L91.72,112.91L91.89,112.94L92.57,112.45L92.64,112.01L93.13,120.28L93.33,120.21L93.5,117.8L93.66,115.88L94.01,119.3L94.17,119.25L94.5,119.03L94.67,117.19L96.09,106.56L96.26,106.4L96.96,102.67L97,104.12L97.16,104.15L97.48,104.17L97.65,101.8L98,101.88L98,101.8L98.04,103.91L98.22,103.58L98.27,104.5L98.44,104.54L98.49,105.64L99.5,106.26L99.54,107.31L99.87,107.43L99.92,108.4L100.15,107.54L100.51,109.33L100.67,109.34L101.01,106.82L101.09,111.58L101.25,110.56L101.29,111.67L101.62,111.64L101.77,109.54L102.4,107L102.44,108.59L102.6,108.58L102.75,108.67L102.91,106.83L103.4,112.16L103.56,112.15L103.71,111.9L104.17,117.39L104.33,117.36L104.5,117.41L104.66,117.42L104.66,118.7L105.32,107.76L105.48,105.28L106.24,97.87L106.62,98L106.78,97.96L107.62,97.99L107.78,96.72L107.95,96.58L108.11,95.43L108.43,93.67L108.81,94.68L108.96,94.64L109.29,94.54L109.29,93.43L109.45,93.39L109.5,91.86L109.9,94.14L110.22,93.57L110.38,93.49L110.72,88.39L111.17,89.26L111.36,89.46L111.51,89.42L111.55,90.5L112.03,94.91L112.35,94.82L112.51,94.75L112.67,95.2L112.98,95.15L113.03,95.92L114.23,87.08L114.4,87.21L114.57,87.21L115.55,83.68L115.71,83.74L115.75,84.94L116.87,84.13L116.93,84.72L116.97,85.97L117.62,85.91L117.62,84.91L118.27,88.08L118.43,88.05L118.58,88.01L118.74,87.96L118.74,87.97L118.74,89.08L119.3,89.14L119.47,88.06L119.94,88.16L119.94,89.24L120.25,89.6L120.29,90.31L120.91,96.57L121.07,95.61L121.22,93.99L121.91,98.25L122.06,95.88L122.23,93.53L122.9,93.62L122.94,94.84L123.46,94.25L123.62,94.16L123.81,95.5L124.12,91.91L124.29,89.65L124.33,91.02L124.49,88.71L124.88,89.98L125.04,87.67L125.36,86.95L125.39,88.97L125.55,88.99L125.71,87.72L125.87,87.96L125.89,90.4L126.85,90.79L127.01,89.48L127.49,88.62L127.49,87.15L127.99,87.24L128.02,89.75L128.34,89.81L128.37,91.87L128.54,91.8L128.54,91.8L128.58,93.4L128.9,93.42L128.95,95.12L129.12,95.14L129.28,94.13L129.61,94.08L129.64,96.44L129.8,96.46L129.83,98.78L130.02,99.37L130.18,98.22L130.98,97.04L131.02,98.57L131.21,97.61L131.57,100.34L131.72,99.22L131.88,96.9L132.36,96.85L132.36,96.84L132.36,95.71L132.91,94.24L132.94,95.82L133.11,95.88L133.36,95.78L133.39,96.1L133.72,95.75L133.88,94.9L134.04,94.9L134.07,96.47L134.4,95.97L134.4,95.89L134.43,97.46L134.92,97.27L134.95,98.68L135.74,99.05L135.77,99.66L136.99,99.4L137.15,98.11L137.79,101.97L137.95,100.87L138.11,100.84L139.18,96.42L139.21,97.73L139.38,96.75L139.92,99.41L140.09,99.08L140.25,97.89L141.38,90.46L141.53,90.46L142.04,87.19L142.29,89.04L142.33,90.23L142.37,92.52L143.04,92.34L143.2,92.35L144.52,88.2L144.69,88.34L145.18,88.06L145.35,85.86L145.52,85.82L145.56,86.84L145.72,85.27L146.26,86.53L146.26,87.6L146.31,87.77L146.64,85.06L146.97,85.1L147.03,86.12L148.14,85.79L148.29,85.79L148.5,88.01L148.66,85.45L148.88,86.54L149.04,84.44L149.57,85.63L149.73,84.01L149.91,82.32L150.07,82.33L150.11,83.44L150.52,85.83L150.68,81.1L150.84,81.13L151.04,80.66L151.09,81.79L151.41,81.79L151.56,81.78L151.93,81.26L152.09,79.67L152.81,79.35L152.81,78.9L152.97,78.88L153.02,79.95L153.51,79.99L153.67,78.77L154.61,75.89L154.77,75.9L156.59,71.18L156.65,71.79L156.81,71.79L157.94,71.78L157.97,74.18L158.77,73.7L158.77,72.58L159.11,72.54L159.15,74.91L159.32,74.92L159.5,73.77L159.76,77.66L160.23,77.27L160.4,77.31L160.87,77.38L161.02,76.06L161.18,76.03L161.34,74.89L161.66,74.9L161.66,74.9L161.66,73.72L161.82,73.71L161.85,74.96L162.18,74.43L162.21,75.82L162.38,75.86L162.75,76.63L162.78,78.88L163.42,78.69L163.58,77.64L163.74,77.65L163.74,77.65L163.74,76.64L164.2,74.17L164.58,75.5L164.62,77.82L164.93,76.81L165.12,79.3L165.16,80.67L166.29,96.35L166.36,95.79L166.52,95.82L166.52,94.63L167.1,93.13L167.21,93.63L167.38,94.24L168.22,100.11L168.38,99.51L169,103.49L169,101.24L169.18,100.56L172.03,105.09L172.31,106.68L172.49,104.51L172.84,104.74L173.11,106.19L173.29,105.36L173.85,105.85L174.01,105.89L174.71,111.68L174.97,111.9L176.12,115.42L176.12,115.41L176.29,114.76L177.18,117.48L177.34,116.91L177.51,115.64L178.18,115.96L178.18,115.94L178.18,113.54L179.18,115.39L179.44,116.91L180.05,107.83L180.58,108.26L180.76,108.81L181.42,112.64L181.59,112.62L182.1,113.19L182.27,110.83L182.98,113.57L183.14,113.59L183.31,113.57L183.47,111.31L183.97,111.28L184.01,113.83L184.5,113.91L184.53,116.45L184.7,116.47L184.86,114.01L184.87,111.6L185.59,116.57L185.6,114.05L185.67,113.26L186.17,113.32L186.33,112.13L187.06,100.56L187.22,99.96L188.17,96.03L188.33,96.03L188.66,95.38L188.72,95.91L188.79,96.51L188.85,99.59L189.4,97.57L189.57,97.62L189.73,97.64L189.73,96.56L190.46,92.52L190.49,95.09L190.66,95.39L190.83,94.8L190.83,94.16L191.31,91.38L191.52,93.2L191.68,92.73L191.9,91.62L191.94,93.67L192.43,93.52L192.44,91.95L193.1,90.66L193.13,93.21L193.29,93.24L193.94,88.86L194.13,91.53L194.16,93.97L194.22,94.51L194.73,92.79L194.9,92.54L195.59,90.28L195.74,90.28L195.91,90.28L196.08,88.83L196.23,88.96L196.4,87.61L196.58,87.29L196.74,85.2L196.77,87.51L197.48,87.48L197.65,87.48L197.81,86.48L198.18,87.49L198.34,87.51L198.54,85.91L198.7,88.48L199.02,88.17L199.19,88.22L199.91,88.12L199.94,89.31L200.1,88.58L200.1,87.05L200.33,89.18L200.81,86.25L200.85,87.26L201.01,87.54L201.68,85.52L201.83,85.54L201.86,87.86L201.98,89.14L202.3,86.51L202.46,86.53L202.61,86.54L202.69,87.09L202.85,84.91L203.09,85.31L203.25,85.33L203.63,85.97L203.79,83.75L204.15,85.1L204.15,82.55L204.8,82.53L204.97,80.22L205.16,77.96L205.42,81.09L205.57,80.52L205.74,80.56L206.22,80.57L206.25,83.14L206.43,83.2L206.58,82.52L206.74,82.5L206.74,81.35L207.32,84.39L207.48,84.38L207.64,83.87L208.3,87L208.46,86.99L208.62,87L208.62,86.47L208.79,85.91L209.46,81.94L209.65,84.4L209.81,84.35L210.18,85.04L210.19,82.39L210.41,82.83L210.57,82.81L210.74,82.84L210.9,80.28L211.22,79.96L211.24,81.85L211.72,81.73L211.89,80.04L212.22,81.23L212.38,80.84L212.41,83.33L212.88,80.67L213.21,80.72L213.37,80.56L213.53,80.56L213.57,81.41L213.73,78.87L213.96,82.33L214.11,82.33L214.28,82.32L214.76,77.09L214.98,81.37L215,83.93L215.39,86.81L215.76,86.27L215.92,86.26L216.09,86.07L216.12,87.28L216.29,87.16L216.47,87.5L216.64,84.96L217.47,85.15L217.52,85.99L218.8,81.89L218.96,82.08L219.12,82.14L219.16,83.01L219.32,82.93L219.32,83.52L219.49,83.48L219.52,85.03L219.68,85L219.84,83.41L220,83.4L220.05,84.32L220.7,84.32L220.7,82.46L221.42,89.12L221.43,87.8L221.6,87.8L222.15,88.42L222.33,88.47L222.49,88.44L222.49,85.86L222.49,84.81L222.94,92.7L223.1,92.7L223.26,92.13L224.3,92.12L224.45,92.55L224.54,92.67L224.7,91.64L224.86,91.63L225.34,91.56L225.38,93.99L225.41,95.93L225.96,91.3L226.13,91.25L226.93,91.22L226.93,91.14L227.09,88.55L227.66,90.95L227.82,89.29L227.98,89.24L228.14,87.9L228.52,88.62L228.55,91.1L228.87,88.41L229.16,92.62L229.31,92.64L229.47,92.6L229.51,93.84L229.99,93.76L229.99,91.26L230.89,91.93L231.06,91.49L231.22,91.5L231.92,90.9L231.97,92.26L232.45,92.49L232.45,92.14L232.61,91.3L232.94,91.11L233.1,88.61L234.23,88.71L234.39,88.02L234.56,88.39L234.72,86.34L235.51,88.87L235.67,86.33L237.06,80.05L237.22,79.37L237.59,80.01L237.59,78.71L237.76,78.55L237.82,83.06L237.98,83.02" style="vector-effect: non-scaling-stroke; fill: none; stroke: rgb(0, 204, 150); stroke-opacity: 1; stroke-width: 2px; opacity: 1;"/></g><g class="points"/><g class="text"/></g><g class="trace scatter trace8b6201" style="stroke-miterlimit: 2; opacity: 1;"><g class="fills"/><g class="errorbars"/><g class="lines"><path class="js-line" d="M0,311.77L0.88,121.91L0.97,121.91L1.19,121.91L1.28,119.19L1.58,119.19L1.58,119.19L1.78,25.85L2.34,25.85L2.34,25.85L2.52,23.82L7.54,23.32L7.75,21.81L10.5,21.36L10.73,20.29L237.98,19.85" style="vector-effect: non-scaling-stroke; fill: none; stroke: rgb(0, 204, 150); stroke-opacity: 1; stroke-width: 2px; opacity: 1; stroke-dasharray: 9px, 9px;"/></g><g class="points"/><g class="text"/></g></g></g><g class="overplot"/><path class="xlines-above crisp" d="M74,397.5H313" style="fill: none; stroke-width: 1px; stroke: rgb(36, 36, 36); stroke-opacity: 1;"/><path class="ylines-above crisp" d="M74.5,0V397" style="fill: none; stroke-width: 1px; stroke: rgb(36, 36, 36); stroke-opacity: 1;"/><g class="overlines-above"/><g class="xaxislayer-above"><path class="xtick ticks crisp" d="M0,398v5" transform="translate(129.07,0)" style="stroke: rgb(68, 68, 68); stroke-opacity: 1; stroke-width: 1px;"/><path class="xtick ticks crisp" d="M0,398v5" transform="translate(183.19,0)" style="stroke: rgb(68, 68, 68); stroke-opacity: 1; stroke-width: 1px;"/><path class="xtick ticks crisp" d="M0,398v5" transform="translate(237.3,0)" style="stroke: rgb(68, 68, 68); stroke-opacity: 1; stroke-width: 1px;"/><path class="xtick ticks crisp" d="M0,398v5" transform="translate(291.41999999999996,0)" style="stroke: rgb(68, 68, 68); stroke-opacity: 1; stroke-width: 1px;"/><g class="xtick"><text text-anchor="middle" x="0" y="419.8" transform="translate(129.07,0)" style="font-family: Arial, monospace; font-size: 14px; fill: rgb(36, 36, 36); fill-opacity: 1; white-space: pre; opacity: 1;">50</text></g><g class="xtick"><text text-anchor="middle" x="0" y="419.8" style="font-family: Arial, monospace; font-size: 14px; fill: rgb(36, 36, 36); fill-opacity: 1; white-space: pre; opacity: 1;" transform="translate(183.19,0)">100</text></g><g class="xtick"><text text-anchor="middle" x="0" y="419.8" style="font-family: Arial, monospace; font-size: 14px; fill: rgb(36, 36, 36); fill-opacity: 1; white-space: pre; opacity: 1;" transform="translate(237.3,0)">150</text></g><g class="xtick"><text text-anchor="middle" x="0" y="419.8" style="font-family: Arial, monospace; font-size: 14px; fill: rgb(36, 36, 36); fill-opacity: 1; white-space: pre; opacity: 1;" transform="translate(291.41999999999996,0)">200</text></g></g><g class="yaxislayer-above"><path class="ytick ticks crisp" d="M74,0h-5" transform="translate(0,371.65)" style="stroke: rgb(68, 68, 68); stroke-opacity: 1; stroke-width: 1px;"/><path class="ytick ticks crisp" d="M74,0h-5" transform="translate(0,328.29)" style="stroke: rgb(68, 68, 68); stroke-opacity: 1; stroke-width: 1px;"/><path class="ytick ticks crisp" d="M74,0h-5" transform="translate(0,284.94)" style="stroke: rgb(68, 68, 68); stroke-opacity: 1; stroke-width: 1px;"/><path class="ytick ticks crisp" d="M74,0h-5" transform="translate(0,241.59)" style="stroke: rgb(68, 68, 68); stroke-opacity: 1; stroke-width: 1px;"/><path class="ytick ticks crisp" d="M74,0h-5" transform="translate(0,198.23)" style="stroke: rgb(68, 68, 68); stroke-opacity: 1; stroke-width: 1px;"/><path class="ytick ticks crisp" d="M74,0h-5" transform="translate(0,154.88)" style="stroke: rgb(68, 68, 68); stroke-opacity: 1; stroke-width: 1px;"/><path class="ytick ticks crisp" d="M74,0h-5" transform="translate(0,111.52)" style="stroke: rgb(68, 68, 68); stroke-opacity: 1; stroke-width: 1px;"/><path class="ytick ticks crisp" d="M74,0h-5" transform="translate(0,68.17)" style="stroke: rgb(68, 68, 68); stroke-opacity: 1; stroke-width: 1px;"/><path class="ytick ticks crisp" d="M74,0h-5" transform="translate(0,24.82)" style="stroke: rgb(68, 68, 68); stroke-opacity: 1; stroke-width: 1px;"/><g class="ytick"><text text-anchor="end" x="66.2" y="4.8999999999999995" transform="translate(0,371.65)" style="font-family: Arial, monospace; font-size: 14px; fill: rgb(36, 36, 36); fill-opacity: 1; white-space: pre; opacity: 1;">−1600</text></g><g class="ytick"><text text-anchor="end" x="66.2" y="4.8999999999999995" style="font-family: Arial, monospace; font-size: 14px; fill: rgb(36, 36, 36); fill-opacity: 1; white-space: pre; opacity: 1;" transform="translate(0,328.29)">−1400</text></g><g class="ytick"><text text-anchor="end" x="66.2" y="4.8999999999999995" style="font-family: Arial, monospace; font-size: 14px; fill: rgb(36, 36, 36); fill-opacity: 1; white-space: pre; opacity: 1;" transform="translate(0,284.94)">−1200</text></g><g class="ytick"><text text-anchor="end" x="66.2" y="4.8999999999999995" style="font-family: Arial, monospace; font-size: 14px; fill: rgb(36, 36, 36); fill-opacity: 1; white-space: pre; opacity: 1;" transform="translate(0,241.59)">−1000</text></g><g class="ytick"><text text-anchor="end" x="66.2" y="4.8999999999999995" style="font-family: Arial, monospace; font-size: 14px; fill: rgb(36, 36, 36); fill-opacity: 1; white-space: pre; opacity: 1;" transform="translate(0,198.23)">−800</text></g><g class="ytick"><text text-anchor="end" x="66.2" y="4.8999999999999995" style="font-family: Arial, monospace; font-size: 14px; fill: rgb(36, 36, 36); fill-opacity: 1; white-space: pre; opacity: 1;" transform="translate(0,154.88)">−600</text></g><g class="ytick"><text text-anchor="end" x="66.2" y="4.8999999999999995" style="font-family: Arial, monospace; font-size: 14px; fill: rgb(36, 36, 36); fill-opacity: 1; white-space: pre; opacity: 1;" transform="translate(0,111.52)">−400</text></g><g class="ytick"><text text-anchor="end" x="66.2" y="4.8999999999999995" style="font-family: Arial, monospace; font-size: 14px; fill: rgb(36, 36, 36); fill-opacity: 1; white-space: pre; opacity: 1;" transform="translate(0,68.17)">−200</text></g><g class="ytick"><text text-anchor="end" x="66.2" y="4.8999999999999995" style="font-family: Arial, monospace; font-size: 14px; fill: rgb(36, 36, 36); fill-opacity: 1; white-space: pre; opacity: 1;" transform="translate(0,24.82)">0</text></g></g><g class="overaxes-above"/></g></g><g class="polarlayer"/><g class="smithlayer"/><g class="ternarylayer"/><g class="geolayer"/><g class="funnelarealayer"/><g class="pielayer"/><g class="iciclelayer"/><g class="treemaplayer"/><g class="sunburstlayer"/><g class="glimages"/><defs id="topdefs-070c0c"><g class="clips"/><clipPath id="legend070c0c"><rect width="132" height="138" x="0" y="0"/></clipPath></defs><g class="layer-above"><g class="imagelayer"/><g class="shapelayer"/></g><g class="infolayer"><g class="legend" pointer-events="all" transform="translate(317.76,0)"><rect class="bg" shape-rendering="crispEdges" width="132" height="138" x="0" y="0" style="stroke: rgb(68, 68, 68); stroke-opacity: 1; fill: rgb(255, 255, 255); fill-opacity: 1; stroke-width: 0px;"/><g class="scrollbox" transform="" clip-path="url(#legend070c0c)"><g class="groups"><g class="traces" transform="translate(0,15.6)" style="opacity: 1;"><text class="legendtext" text-anchor="start" x="40" y="5.46" style="font-family: Arial, monospace; font-size: 14px; fill: rgb(36, 36, 36); fill-opacity: 1; white-space: pre;">Anneal mean</text><g class="layers" style="opacity: 1;"><g class="legendfill"/><g class="legendlines"><path class="js-line" d="M5,0h30" style="fill: none; stroke: rgb(99, 110, 250); stroke-opacity: 1; stroke-width: 2px;"/></g><g class="legendsymbols"><g class="legendpoints"/></g></g><rect class="legendtoggle" x="0" y="-10.6" width="126.375" height="21.2" style="fill: rgb(0, 0, 0); fill-opacity: 0;"/></g><g class="traces" transform="translate(0,36.8)" style="opacity: 1;"><text class="legendtext" text-anchor="start" x="40" y="5.46" style="font-family: Arial, monospace; font-size: 14px; fill: rgb(36, 36, 36); fill-opacity: 1; white-space: pre;">Anneal max</text><g class="layers" style="opacity: 1;"><g class="legendfill"/><g class="legendlines"><path class="js-line" d="M5,0h30" style="fill: none; stroke: rgb(99, 110, 250); stroke-opacity: 1; stroke-dasharray: 9px, 9px; stroke-width: 2px;"/></g><g class="legendsymbols"><g class="legendpoints"/></g></g><rect class="legendtoggle" x="0" y="-10.6" width="126.375" height="21.2" style="fill: rgb(0, 0, 0); fill-opacity: 0;"/></g><g class="traces" transform="translate(0,58)" style="opacity: 1;"><text class="legendtext" text-anchor="start" x="40" y="5.46" style="font-family: Arial, monospace; font-size: 14px; fill: rgb(36, 36, 36); fill-opacity: 1; white-space: pre;">NSGA2 mean</text><g class="layers" style="opacity: 1;"><g class="legendfill"/><g class="legendlines"><path class="js-line" d="M5,0h30" style="fill: none; stroke: rgb(239, 85, 59); stroke-opacity: 1; stroke-width: 2px;"/></g><g class="legendsymbols"><g class="legendpoints"/></g></g><rect class="legendtoggle" x="0" y="-10.6" width="126.375" height="21.2" style="fill: rgb(0, 0, 0); fill-opacity: 0;"/></g><g class="traces" transform="translate(0,79.19999999999999)" style="opacity: 1;"><text class="legendtext" text-anchor="start" x="40" y="5.46" style="font-family: Arial, monospace; font-size: 14px; fill: rgb(36, 36, 36); fill-opacity: 1; white-space: pre;">NSGA2 max</text><g class="layers" style="opacity: 1;"><g class="legendfill"/><g class="legendlines"><path class="js-line" d="M5,0h30" style="fill: none; stroke: rgb(239, 85, 59); stroke-opacity: 1; stroke-dasharray: 9px, 9px; stroke-width: 2px;"/></g><g class="legendsymbols"><g class="legendpoints"/></g></g><rect class="legendtoggle" x="0" y="-10.6" width="126.375" height="21.2" style="fill: rgb(0, 0, 0); fill-opacity: 0;"/></g><g class="traces" transform="translate(0,100.39999999999999)" style="opacity: 1;"><text class="legendtext" text-anchor="start" x="40" y="5.46" style="font-family: Arial, monospace; font-size: 14px; fill: rgb(36, 36, 36); fill-opacity: 1; white-space: pre;">Tabu mean</text><g class="layers" style="opacity: 1;"><g class="legendfill"/><g class="legendlines"><path class="js-line" d="M5,0h30" style="fill: none; stroke: rgb(0, 204, 150); stroke-opacity: 1; stroke-width: 2px;"/></g><g class="legendsymbols"><g class="legendpoints"/></g></g><rect class="legendtoggle" x="0" y="-10.6" width="126.375" height="21.2" style="fill: rgb(0, 0, 0); fill-opacity: 0;"/></g><g class="traces" transform="translate(0,121.6)" style="opacity: 1;"><text class="legendtext" text-anchor="start" x="40" y="5.46" style="font-family: Arial, monospace; font-size: 14px; fill: rgb(36, 36, 36); fill-opacity: 1; white-space: pre;">Tabu max</text><g class="layers" style="opacity: 1;"><g class="legendfill"/><g class="legendlines"><path class="js-line" d="M5,0h30" style="fill: none; stroke: rgb(0, 204, 150); stroke-opacity: 1; stroke-dasharray: 9px, 9px; stroke-width: 2px;"/></g><g class="legendsymbols"><g class="legendpoints"/></g></g><rect class="legendtoggle" x="0" y="-10.6" width="126.375" height="21.2" style="fill: rgb(0, 0, 0); fill-opacity: 0;"/></g></g></g><rect class="scrollbar" rx="20" ry="3" width="0" height="0" x="0" y="0" style="fill: rgb(128, 139, 164); fill-opacity: 1;"/></g><g class="g-gtitle"/><g class="g-xtitle" transform="translate(0,-3.7124999999999773)"><text class="xtitle" x="194" y="449.7125" text-anchor="middle" style="font-family: Arial, monospace; font-size: 17px; fill: rgb(36, 36, 36); opacity: 1; font-weight: normal; white-space: pre;">time in minutes</text></g><g class="g-ytitle" transform="translate(15.025390625,0)"><text class="ytitle" transform="rotate(-90,-0.025000000000005684,198.5)" x="-0.025000000000005684" y="198.5" text-anchor="middle" style="font-family: Arial, monospace; font-size: 17px; fill: rgb(36, 36, 36); opacity: 1; font-weight: normal; white-space: pre;">fitness</text></g></g></svg>