<svg class="main-svg" xmlns="http://www.w3.org/2000/svg" xmlns:xlink="http://www.w3.org/1999/xlink" width="700" height="350" style="" viewBox="0 0 700 350"><rect x="0" y="0" width="700" height="350" style="fill: rgb(255, 255, 255); fill-opacity: 1;"/><defs id="defs-8ab545"><g class="clips"><clipPath id="clip8ab545xyplot" class="plotclip"><rect width="441" height="170"/></clipPath><clipPath class="axesclip" id="clip8ab545x"><rect x="80" y="0" width="441" height="350"/></clipPath><clipPath class="axesclip" id="clip8ab545y"><rect x="0" y="100" width="700" height="170"/></clipPath><clipPath class="axesclip" id="clip8ab545xy"><rect x="80" y="100" width="441" height="170"/></clipPath></g><g class="gradients"/><g class="patterns"/></defs><g class="bglayer"/><g class="layer-below"><g class="imagelayer"/><g class="shapelayer"/></g><g class="cartesianlayer"><g class="subplot xy"><g class="layer-subplot"><g class="shapelayer"/><g class="imagelayer"/></g><g class="minor-gridlayer"><g class="x"/><g class="y"/></g><g class="gridlayer"><g class="x"/><g class="y"/></g><g class="zerolinelayer"/><path class="xlines-below"/><path class="ylines-below"/><g class="overlines-below"/><g class="xaxislayer-below"/><g class="yaxislayer-below"/><g class="overaxes-below"/><g class="plot" transform="translate(80,100)" clip-path="url(#clip8ab545xyplot)"><g class="scatterlayer mlayer"><g class="trace scatter trace4ded83" style="stroke-miterlimit: 2; opacity: 1;"><g class="fills"/><g class="errorbars"/><g class="lines"><path class="js-line" d="M33.43,137.38L33.95,137.97L34.12,137.41L34.22,137.02L34.73,134.1L34.87,135.09L35.39,135.06L36.85,137.59L37.36,137.84L41.02,138.96L41.09,139.51L43.1,158.49L43.33,157.47L43.85,157.06L44.53,156.22L45.06,155.86L45.39,156.64L45.55,156.27L46.05,155.97L47.26,155.22L47.79,154.89L49.42,154.21L50,154.24L52.69,154.44L52.77,154.84L53.5,159.73L53.86,159.46L54.21,159.22L56.44,157.94L56.79,157.09L58.02,152.29L58.1,151.8L59.26,149.59L59.6,148.95L59.94,148.27L60.1,149.3L60.15,149.68L60.88,158.74L61.42,158.51L61.77,158.32L62.33,158.16L62.69,157.67L65.87,158.53L66.4,159.11L68.56,161.49L68.92,161.5L70,160.76L70.49,160.97L72.38,160.93L72.51,160.55L74.16,155.35L74.21,155.85L75.72,153.23L75.81,153.35L75.9,153.47L76.58,153.04L76.73,152.51L79.23,144.7L79.38,144.48L80.3,143.84L80.41,143.98L81.5,142.58L81.56,142.99L82.3,146.39L82.39,145.77L82.92,145.08L83.86,143.24L84.42,143.14L87.1,141.41L87.53,141.62L89.29,141.78L89.73,141.32L94.57,136L94.94,136.01L95.46,135.65L95.55,135.16L96.25,132.35L96.33,132.89L96.93,134.03L97.08,133.29L97.62,132.77L100.15,123.16L100.54,123.99L100.9,123.88L101.69,123.25L102.07,122.68L104.05,119.63L104.41,119.09L104.79,118.78L105.15,119.26L105.52,119.3L106.22,119.23L106.27,120.15L106.27,119.98L106.33,120.75L107.02,120.17L107.38,120.06L111.88,117.4L112.04,117.18L112.94,115.88L112.94,116.44L113.11,116.58L114.09,116.53L114.28,116.23L117.11,108.94L117.2,108.4L118.58,107.02L118.77,106.84L122.65,101.35L123.14,101.1L125.04,97.75L125.43,96.98L125.91,95.6L126.3,94.79L129.85,88.08L130.33,87.38L132.17,84.69L132.73,84.53L136.61,83.32L136.82,83.44L138.79,83.71L139.35,83.82L139.55,85.34L139.77,85.05L140.27,85.09L143.51,85.85L143.69,85.58L146.97,82.9L147.1,82.58L148.41,80.68L148.53,80.74L149.03,80.5L149.22,80.66L149.63,80.17L149.83,80.45L149.91,80.94L150.2,80.91L150.35,81.25L150.49,81.6L151.76,82.86L151.9,83.18L152.83,84.53L153.05,84.19L153.56,83.98L153.69,83.55L155.53,84.56L155.61,84.17L158.14,85.99L158.52,85.78L159,86.32L159.35,86.22L159.72,86.15L160.94,85.97L161.29,85.59L164.6,83.16L164.95,82.93L168.54,80.81L168.92,80.82L173.72,75.85L174.1,75.4L174.49,75.04L174.61,75.32L174.99,75.04L176.42,73.19L176.77,72.87L179.38,72.03L179.72,71.05L181.28,70.44L181.68,70.39L185.05,69.66L185.41,69.21L186.83,68.44L187.17,68.37L192.2,66.85L192.58,66.63L197.22,63.67L197.59,62.78L198.67,61.2L199.03,60.94L200.8,60.14L201.14,59.78L203.99,58.35L204.08,58.74L204.57,59.26L204.92,59.07L206.37,58.49L206.7,58.19L208.34,55.87L208.4,56.07L208.73,55.09L210.49,53.18L210.67,53.57L211.05,53.34L211.73,52.85L212.11,52.12L213.19,51.43L213.19,50.74L214.3,50.04L214.37,50.55L214.76,50.46L216.59,49.64L216.68,50.03L216.68,49.03L219.23,47.12L219.33,48.11L220.47,47.12L220.85,47.1L222.36,45.89L222.73,45.95L224.68,46.2L224.68,46.81L225.05,46.84L225.42,45.89L225.79,45.89L225.86,46.8L227.35,46.97L227.43,48.1L235.32,49.39L235.66,49.39L239.53,49.1L239.88,49.05L241.41,49.24L241.95,49.77L245.21,50.58L245.77,51.13L246.17,51.19L246.25,52.08L246.79,52.52L247.36,52.98L255.87,53.16L256.24,52.93L257.07,53.21L257.45,53.19L258.75,53.58L259.13,53.52L261.34,53.42L261.7,53.49L264.91,53.68L265.28,53.63L266.1,54.1L266.73,54.61L269.2,54.85L269.59,54.81L271.04,53.35L271.4,53.39L272.22,53.74L272.58,53.7L275.32,53.38L275.68,53.34L276.82,52.51L277.02,52.69L278.11,52.03L278.45,51.66L281.68,50.45L281.75,51L282.18,51.4L282.54,51.18L282.91,51.19L283.33,50.88L283.42,51.36L283.78,51.32L287.66,51.16L288.04,50.2L291.44,50.37L291.49,51.34L293.2,51.27L293.27,52.24L294.63,62.39L294.72,62.95L296.29,77.9L296.38,78.82L296.38,78.28L297.09,83.77L297.15,84.42L297.97,98.55L298.34,98.05L298.71,98.04L299.84,97.6L300.22,97.59L300.67,98.38L301.05,98.46L302.18,98.11L302.25,99.01L303.21,99.65L303.62,99.84L304.35,99.5L304.35,100.43L307.31,100.41L307.31,100.58L307.37,101.32L308.85,101.01L308.93,101.8L313.34,101.18L313.34,101.85L321.24,101.63L321.31,102.43L322.74,101.33L323.1,101.26L324.52,100.19L324.86,100.12L326.9,100.4L326.99,100.85L330.62,100.69L330.97,100.24L332.05,100L332.05,100.08L332.4,99.07L333.47,98.38L333.8,97.81L334.9,97.71L335.25,96.88L339.82,85.87L340.17,85.86L344.75,75.35L345.12,75.4L348.85,67.22L349.24,66.46L352.15,59.22L352.21,60L353.73,57.18L354.14,56.29L358.65,46.49L358.65,45.47L359.77,45.24L360,44.36L361.24,40.62L361.61,40.48L362.76,40.74L362.76,41.11L363.86,40.06L364.22,39.99L364.58,39.88L364.94,38.91L365,39.72L365.37,38.9L365.74,38.78L365.81,39.35L366.18,38.36L366.55,38.25L369.07,36.91L369.43,35.85L373.01,34.2L373.07,34.98L373.77,34.72L374.12,33.8L377.73,33.45L378.07,33.42L379.86,33.28L379.94,33.96L380.72,34.55L380.81,35.06L381.87,34.23L381.94,34.9L382.64,34.74L382.7,35.45L382.79,35.84L385.32,34.73L385.32,34.28L389.18,33.28L389.18,33.96L389.26,34.27L391.77,34.31L391.84,35L394.68,34.82L394.68,35.48L395.1,36.31L395.45,36.23L395.81,36.24L396.58,37.1L396.93,37.09L399.84,37.46L399.9,38.42L400.26,38.37L400.33,39.16L401.04,38.23L401.04,38.08L403.87,37.92L404.24,37.09L404.59,37.09L404.94,36.28L405.78,37.5L406.12,37.49L406.91,37.83L407.26,37.8L407.68,38.18L407.75,38.94L407.81,39.75L408.15,39.72L408.51,38.82L412.26,38.7L412.77,39.06L414.35,38.79L414.7,38.35L416.49,38.23L417.01,38.69L417.72,36.91L418.07,36.87L423.58,37.71L423.58,37.68L423.94,36.81L426.58,37.07L426.58,37.21L427.11,37.68L429.61,36.93L429.61,37.69L430.33,37.61L430.71,36.86L431.08,36.09L431.58,36.51L431.96,36.48L434.18,35.7L434.53,34.96L435.34,35.44L435.71,35.4L436.07,34.87L436.45,34.92L436.53,35.37L437.4,37.53L437.76,37.6L438.13,38.76L438.48,38.68L438.83,38.59L438.84,41.36L439.57,40.9L439.92,40.84L440.99,40.22" style="vector-effect: non-scaling-stroke; fill: none; stroke: rgb(99, 110, 250); stroke-opacity: 1; stroke-width: 2px; opacity: 1;"/></g><g class="points"/><g class="text"/></g><g class="trace scatter tracea2fdde" style="stroke-miterlimit: 2; opacity: 1;"><g class="fills"/><g class="errorbars"/><g class="lines"><path class="js-line" d="M0.05,62.26L11.41,62.26L11.84,61.49L14.01,61.49L14.41,60.28L18.03,60.28L18.39,39.36L20.06,39.12L20.13,39.12L29.07,39.12L29.41,37.23L29.75,37.23L30.08,23L160.59,22.35L160.94,22.09L170.32,22.09L170.68,12.28L179.72,12.28L180.11,10.2L373.42,9.73L373.77,9.43L381.94,9.43L382.29,8.57L440.99,8.5" style="vector-effect: non-scaling-stroke; fill: none; stroke: rgb(99, 110, 250); stroke-opacity: 1; stroke-width: 2px; opacity: 1; stroke-dasharray: 9px, 9px;"/></g><g class="points"/><g class="text"/></g><g class="trace scatter trace54b055" style="stroke-miterlimit: 2; opacity: 1;"><g class="fills"/><g class="errorbars"/><g class="lines"><path class="js-line" d="M28.93,126.21L29.59,126.67L29.59,126.66L29.8,126.34L30.38,122.99L30.48,123.51L31.15,123.45L31.71,121.93L31.82,122.16L32.19,121.34L32.2,120.52L32.7,122.38L32.7,122.18L32.96,121.79L34.31,120.58L34.68,120.12L35.31,120.24L35.31,121.01L35.41,121.28L35.81,120.46L35.81,119.65L35.92,118.27L36.35,120.67L36.49,119.7L36.6,119.6L36.77,119.8L37.13,119.31L37.14,118.95L37.23,119.7L37.23,118.65L37.23,119.17L37.91,118.69L38.52,118.98L38.65,118.36L38.65,117.8L38.86,117.24L38.94,118.11L39.02,118.11L39.6,117.82L39.6,117.06L39.99,119.12L40.22,118.75L40.58,118.61L40.77,118.33L40.78,119.45L41.32,119.17L41.77,118.47L41.77,119.47L42.35,119.53L42.62,119.66L42.62,118.99L42.72,118.85L43.07,116.41L43.07,116.65L43.07,116.19L43.16,116.99L43.53,116.25L43.53,115.81L44.52,114.61L44.62,114.59L44.62,115.45L45.34,113.54L45.42,113.32L45.42,113.12L45.69,115.13L46.15,115.04L46.22,115.69L46.97,112.35L47.05,112.46L47.26,113.4L47.63,111.79L48,111.66L48.19,114.26L48.73,113.68L49,113.15L49.07,114.19L49.66,113.58L50.03,113.57L50.23,111.67L50.68,115.2L50.79,115.26L51.29,117.65L51.47,117.25L52.07,117.22L52.18,119.08L52.55,116.69L52.62,117.76L53.01,117.53L53.1,117.58L53.31,116.13L53.31,116.66L53.83,116.28L54.07,116.77L54.54,115.31L54.54,116.35L54.91,116.53L54.99,116.72L55.52,115.56L55.61,116.24L55.71,116.2L55.92,116.03L55.92,116.5L55.92,116.83L56.42,115.81L56.8,115.29L57.28,114.95L57.47,115.65L57.47,115.87L58.14,111.88L58.14,112.47L58.24,112.88L59.23,113.05L59.23,113.84L59.34,113.44L59.34,115.24L59.75,114.33L59.84,114.56L59.96,112.79L60.49,116.01L60.49,115.71L60.85,115.3L60.85,115.93L61.39,114.76L61.39,115.2L61.75,115.14L61.97,112.55L62.48,112.66L62.99,112.88L63.71,109.2L63.71,109.86L63.8,109.65L63.8,110.38L64.36,108.54L64.36,108.55L64.81,108.99L64.81,108.72L65.36,110.01L65.36,109.07L65.95,109.02L66.48,109.81L66.48,108.11L66.57,109.43L66.9,108.97L67.15,111.84L67.58,111.25L68.13,110.93L68.31,111.71L68.69,110.95L68.88,110.61L69.73,111.58L69.73,111.32L69.73,110.99L70.22,115.67L70.44,115.16L70.52,116.01L70.52,116.78L70.93,115.82L71.33,114.98L71.41,114.72L71.51,116.52L71.91,115.89L72.06,113.04L72.5,114.1L72.88,113.83L72.88,114.23L73.26,113.7L73.66,113.74L73.66,114.26L74.35,112.43L74.35,112.47L74.44,112.12L75.06,114.28L75.07,113.93L75.44,113.63L75.93,112.41L76.38,112.06L76.61,112.23L76.61,112.65L76.62,113.06L77.27,109.57L77.27,109.89L77.66,109.36L77.75,110.3L78.19,109.98L78.6,109.44L78.6,110.3L79.21,107.5L79.78,107.86L79.85,108.98L80.21,106.38L80.74,106.17L80.79,107.19L81.28,105.96L81.38,105.96L81.77,105.49L82.44,103.06L82.67,102.7L83.04,100.3L83.04,99.9L83.11,100.05L83.19,98.69L83.19,98.23L83.77,98.38L83.77,98.2L83.77,97.19L83.77,96.01L83.77,97.8L84.42,96.17L84.8,96.16L85.28,97.4L85.28,97.18L85.88,96.68L85.88,97.15L86.56,94.17L86.66,94.26L86.66,94.76L87.38,94.18L87.49,94.16L88.21,95.48L88.21,95.47L88.31,96.1L88.48,96.62L88.48,95.1L88.49,94.76L88.49,95.2L88.91,94.3L89.03,94.88L89.42,94.46L89.55,96.31L90.07,94.34L90.16,94.85L90.28,94.41L90.29,95.14L90.93,93.52L90.93,94.13L91.39,93.44L91.54,94.37L91.81,92.11L91.92,93.74L92.33,93.12L92.88,94.47L92.88,92.43L92.88,93.11L93.29,93.11L93.42,93.44L93.78,92.34L93.88,93.56L94.12,93.25L94.44,93.34L94.74,90.95L94.85,91.45L95.39,91.88L95.4,90.34L95.97,93.02L96.14,91.97L96.14,91.6L96.23,92.24L96.51,90.15L96.72,90.59L96.72,90.01L96.87,91.42L97.25,91.25L97.62,90.98L97.62,91.2L98.22,88.46L98.59,88.47L99.5,88.07L99.5,88.74L99.57,89.38L99.8,89.62L99.91,87.98L100.39,88.63L100.76,88.36L102.82,88.36L102.82,88.68L102.82,87.59L102.93,89.56L103.42,88.94L103.78,88.57L103.8,88.32L104.35,90.8L104.72,90.01L105.7,90.34L105.7,90.42L105.7,89.77L105.7,88.89L106.02,91.87L106.27,89.56L106.51,89.56L107.25,86.17L107.32,87.09L107.68,87.06L108.15,83.91L108.61,83.78L109.59,82.59L109.59,81.71L109.81,82.98L110.3,82.67L110.41,82.97L110.78,82.73L111.16,84.12L111.16,83.73L111.54,83.44L111.94,81.62L111.94,83.57L111.94,82.91L112.3,82.54L112.54,80.27L113.01,80.41L113.22,80.3L113.22,80.46L113.77,76.81L113.77,77.1L114.13,76.35L114.51,75.04L114.51,76.79L114.6,75.95L114.99,75.74L114.99,75.73L115.49,78.39L115.77,78.47L115.77,78.88L115.77,77.61L116.36,77.93L116.64,77.77L116.89,77.18L117.04,77.89L117.04,78.16L117.04,77.92L117.7,80.01L117.71,79.32L117.93,79.07L117.93,78.99L118.49,83.19L118.49,82.86L118.73,82.95L118.73,83.01L119.03,79.16L119.12,80.11L119.51,79.92L119.77,83.16L119.77,82.98L120.35,82.92L120.35,83.42L120.76,81.59L120.88,82.08L121.25,82.06L122.36,78.89L122.44,79.73L122.82,79.06L123.21,77.06L123.37,80.65L123.37,80.38L123.75,80.01L123.75,80.17L124.34,74.98L124.44,75.56L124.55,75.12L124.66,76.23L124.84,73.53L124.92,74.24L125.43,74.66L125.97,74.33L126.06,75.87L126.06,75.87L126.45,75.93L126.45,76.39L127.14,74.38L127.24,74.99L127.71,76.84L127.72,71.46L127.72,72.5L128.09,72.24L128.21,73.25L128.21,71.53L128.21,71.67L128.22,71.44L129,70.93L129,70.23L129.08,70.07L129.44,74.85L129.53,70.99L130.02,71.04L130.75,66.66L130.75,66.66L130.86,66.92L131.22,66.69L131.37,68.99L131.37,67.92L131.74,67.89L132.12,67.08L132.23,71.09L132.24,70.15L132.6,69.79L132.6,70.07L133.04,66.96L133.04,67.89L133.7,68.18L133.7,68.6L134.11,67.86L134.2,68.51L134.58,68.25L134.58,68.61L135.33,66.89L135.34,67.22L135.34,69.32L135.83,68.36L136.18,68.37L136.18,67L136.44,71.31L136.97,71.33L137.22,70.89L137.69,73.92L137.69,73.22L138.06,73.26L138.44,70.8L139,70.75L139.07,71.73L139.45,68.11L139.57,68.39L139.93,68.34L139.93,69.57L140.67,66.11L140.77,66.8L140.95,67.19L141.12,64.09L141.12,64.36L141.68,64.02L141.76,64.49L142.15,62.27L142.15,62.27L142.52,62.11L142.52,63.15L143.25,58.55L143.25,59.49L143.62,59.45L144.23,59.82L144.32,58.58L144.32,59.28L144.71,59.32L145.19,59.93L145.19,59.7L145.76,59.8L146.05,58.83L146.4,61.52L146.4,61.42L146.76,61.01L147.29,63.47L147.29,63.47L147.89,63.86L147.89,64.13L148.28,62.08L148.28,62.17L148.65,62.11L148.65,60.45L149.31,61.17L149.78,61.26L150.39,56.34L150.39,57.64L150.76,57.59L150.85,57.47L151.43,59.78L151.43,58.92L151.94,59.04L152.33,59.07L152.33,58.37L152.33,57.7L152.83,57.8L152.83,58.11L152.83,58.81L152.83,58.66L153.37,60L153.37,59.86L153.74,59.79L153.74,58.3L154.13,58.33L154.51,57.71L154.51,58.12L155.05,56.3L155.05,56.3L155.62,55.69L156.2,55.23L156.79,55.64L156.86,56.53L156.86,54.99L157.43,55.31L157.91,55.94L158.3,56L158.3,55.45L158.3,55.21L158.3,54.55L158.31,58.04L158.88,56.37L159.43,56.73L159.83,58.81L159.83,58.81L160.31,59.53L160.96,61.01L160.96,59.06L160.96,59.13L160.96,58.43L160.96,59.13L160.96,57.28L161.5,57.99L161.96,57.72L162.7,55.42L162.7,56.46L163.08,56.46L163.08,55.43L163.59,60.59L163.6,59.88L163.99,59.04L163.99,59.42L163.99,58.53L164.38,59.13L164.77,58.53L165.7,58.92L165.7,58.42L165.71,58.13L165.71,56.98L165.71,58.38L166.09,57.65L166.65,58.02L167.23,60.46L167.23,60.46L167.61,60.13L167.61,60.5L168.09,57.73L168.09,58.41L168.48,58.45L168.48,57.85L169.06,58.74L169.06,58.74L169.44,58.72L170.05,57.56L170.05,57.67L170.05,57.11L170.6,57.19L170.6,57.89L170.69,59.16L171.06,57.13L171.43,56.9L171.68,56.31L171.78,57.61L171.78,57.17L172.35,57.5L172.35,56.92L172.87,58.92L172.87,58.26L173.18,58.08L173.55,57.34L173.55,57.72L173.55,57.06L173.55,57.11L174.16,54.77L174.53,54.77L174.54,53.46L175.14,57.15L175.14,54.93L175.72,55.28L175.72,55.27L176.13,56.09L176.13,56.06L176.51,56.14L177,54.3L177.37,54.2L177.74,51.48L177.74,52.24L178.13,52.27L178.14,51.05L178.7,53.32L178.7,52.55L179.07,52.47L179.08,51.37L179.55,54.37L179.55,54.33L179.85,53.97L179.85,53.74L180.3,54.08L180.3,54.08L180.68,53L180.68,52.2L181.14,54.34L181.52,54.35L181.9,53.77L181.9,53.07L181.91,53.45L182.32,50.99L182.33,52.44L182.72,52.46L183.34,54.32L183.34,50.92L183.45,53.06L183.99,53.36L184.4,50.99L184.51,51.59L184.9,51.63L184.9,51.3L185.38,52.19L185.38,52.19L185.75,52.16L185.95,51.65L186.39,52.66L186.76,52.68L187.28,50.45L187.37,54.9L187.37,54.9L187.56,54.96L188.01,58.93L188.39,58.9L188.4,57.84L188.6,59.91L188.97,58.44L189.21,58.45L189.59,58.51L189.59,57.78L189.59,56.84L189.7,57.9L190.08,55.72L190.09,56.74L190.67,57.07L190.68,58.22L190.94,52.56L191.23,53.29L191.44,53.45L192.04,51.49L192.09,52.63L192.1,53.09L192.1,51.5L192.61,54.01L192.62,53.45L192.99,53.39L193,52.87L193.56,56.28L193.57,56.17L193.86,56.29L193.86,57.69L194.26,55.78L194.65,55.8L194.66,52.24L195.06,52.27L195.45,52.31L196.08,55.82L196.09,53.52L196.31,53.27L196.68,51.87L196.89,53.85L196.9,52.85L197.07,52.94L197.67,55.82L197.68,52.41L197.68,53L198.11,52.68L198.12,59.2L198.57,58.58L198.95,58.55L199.07,56.35L199.1,60.48L199.61,58.64L200.06,57.83L200.08,59.32L200.5,53.75L200.7,57.04L200.93,57.14L201.32,57.98L201.33,55.8L201.52,56.68L202.14,57L202.34,59.47L202.85,58.41L202.85,57.74L203.23,56.33L203.23,56.33L203.64,56.31L204.01,60.02L204.42,60.07L204.42,59.11L205.04,63.42L205.04,63.42L205.45,63.44L205.93,63.33L205.93,63.33L205.93,62.69L206.43,65.29L206.43,65.11L206.81,64.45L206.82,65.24L207.2,63.67L207.2,63.7L207.6,63.74L208.23,61.48L208.31,62.8L208.71,62.82L209.31,59.8L209.7,59.15L210.21,62.21L210.21,62.17L210.61,62.2L211,59.7L211.43,59.73L211.51,61.27L211.92,57.44L211.92,57.44L211.92,56.79L211.92,56.88L212.45,51.55L212.45,52.25L212.86,51.89L213.25,52.44L213.26,51.77L213.26,51.54L213.68,50.77L213.78,52.25L213.78,52.25L214.18,52.3L214.6,51.63L214.61,53.66L214.68,53.37L215.09,53.41L215.09,52.71L215.78,57.08L215.78,57.08L216.18,57.04L216.64,57.74L216.64,57.74L216.73,58.44L217.13,55.92L217.26,56.83L217.65,56.61L218.43,56.54L218.43,56.31L218.43,55.8L218.84,55.27L218.84,55.27L218.94,56.16L219.33,54.45L219.33,54.45L219.72,54.13L220.13,51.78L220.26,55.52L220.26,54.86L220.67,54.89L221.07,60.23L221.46,60.26L221.97,58.26L222.35,58.21L222.66,55.43L222.77,58.48L222.77,58.48L223.16,57.93L223.26,60.51L223.66,59.93L224.05,59.97L224.06,62.08L224.48,61.41L224.89,61.44L225.53,62.81L225.53,62.11L226.01,61.82L226.01,62.28L226.63,56.84L226.72,57.86L227.19,57.05L227.36,58.94L227.57,55.18L227.74,57.46L228.31,57.96L228.31,58.19L228.31,57.53L228.7,58.16L229.08,58.17L229.08,58L229.15,59.75L229.55,59.45L229.96,59.1L230.42,59.15L230.42,58.22L230.9,58.3L231.29,57.9L231.29,57.9L231.36,58.68L231.36,57.93L231.37,59.7L231.86,58.57L232.24,58.48L232.35,59.47L232.35,57L232.36,57.09L232.78,57.13L232.88,58.83L232.88,57.08L233.36,58.75L233.97,59.28L234.05,60.01L234.43,57.48L234.44,58.22L234.85,58.28L234.85,59.67L235.25,58.16L235.3,58.92L235.69,58.95L235.7,55.3L236.17,55.88L236.58,55.92L237.04,57.93L237.43,57.82L237.89,59.53L237.9,59.21L238.28,58.59L239,59.17L239,58.29L239.39,58.22L240.62,58.09L240.62,57.72L240.62,58.78L240.99,57.04L240.99,57.12L241.4,56.46L241.5,56.86L242.04,52.8L242.44,52.83L242.44,54.21L242.83,53.96L243.22,53.99L243.94,59.62L243.96,58.7L244.04,59.5L244.46,60.06L244.47,57.7L244.85,57.69L244.85,57.93L245.23,55.97L245.23,56.99L245.82,56.96L245.92,58.84L246.41,58.07L246.77,58.09L247.33,59.93L247.33,58.1L247.72,58.15L248.43,61.58L248.54,61.69L248.96,54.58L249.07,55.46L249.63,54.97L249.63,55.32L250.04,53.24L250.41,53.26L250.42,54L250.92,51.99L250.92,52.03L251.3,51.53L251.37,51.3L251.95,54.36L251.95,54.34L252.33,54.28L252.43,54.67L252.92,52.45L252.92,52.61L253.39,51.77L253.39,51.31L253.94,56.37L253.94,56.37L254.33,55.64L254.64,56.63L254.65,54.91L254.73,55.44L255.11,55.34L255.11,55.02L255.74,57.38L255.89,57.5L256.35,57.89L256.42,58.66L256.82,57.79L256.89,59.61L256.9,58.59L257.27,58.51L258.07,57.57L258.07,57.57L258.07,56.87L258.46,58.83L258.46,58.54L258.85,58.58L258.85,59.38L259.27,58.3L259.27,58.63L259.83,59.02L260.39,61.73L260.4,58.52L260.49,59.21L260.87,59.17L261.63,59.2L261.63,59.64L261.63,60L262.12,59.67L262.12,59.7L262.12,60.37L262.13,61.01L262.53,58.24L262.86,59.05L262.92,59.95L262.93,58.18L263.58,60.11L263.59,59.01L263.99,59.01L263.99,60.38L264.37,57.74L264.37,57.76L264.75,57L264.94,57.98L265.36,54.66L265.5,57.25L265.51,57.24L265.89,56.9L265.89,57.37L265.89,58.02L265.9,58.17L266.31,56.63L266.56,56.39L267.3,59.79L267.3,58.64L267.7,58.32L267.79,60.76L268.27,59.21L268.67,59.26L269.46,59.6L269.46,59.16L269.46,58.58L269.58,58.23L270.06,59.05L270.06,59L270.43,58.93L270.43,59.31L270.83,58.44L271.23,58.57L271.23,58.86L271.63,56.44L271.63,56.46L272,56.09L272.56,59.19L272.56,58.92L272.94,58.96L273.05,56.77L273.45,56.77L273.83,56.71L274.44,58.66L274.81,58.56L275.2,58.88L275.58,58.43L275.58,56.36L276.25,57.54L276.38,57.84L276.77,57.14L276.77,56.72L276.78,53.93L277.49,55.28L277.55,56.03L278.15,58.12L278.15,57.94L278.54,57.98L278.55,57.69L278.63,59.05L279.03,58.57L279.43,58.61L280.01,60.64L280.01,60.31L280.4,60.16L280.41,58.9L280.99,62.66L281.38,62.71L281.89,64.05L281.89,62.03L281.97,62.56L282.33,62.27L282.8,61.79L282.88,63.26L282.88,63.26L283.23,62.87L283.63,62.01L283.64,63.83L284.01,63.78L284.32,62.36L284.71,63.26L285.02,62.38L285.45,58.3L285.48,58.81L285.85,58.76L285.85,59.24L286.27,57.46L286.69,57.19L287.36,61.51L287.36,61.41L287.49,61.65L288.33,61.6L288.33,60.71L288.78,60.87L288.78,58.66L289.18,58.69L290.01,60.62L290.02,60.58L290.12,61.01L290.2,61.48L290.61,61.1L291.04,61.13L291.49,59.88L291.49,59.96L291.89,59.62L292.55,59.71L292.56,58.05L292.57,58.65L292.86,58.79L293.39,57.37L293.39,58.64L293.84,57.95L293.84,58.34L294.54,58.11L294.86,58.19L295.27,58.22L295.36,59.02L295.67,62.95L295.67,61.94L296.22,62.31L296.23,60.45L296.93,63.53L297.42,63.58L297.83,61.96L298.02,64.2L298.11,63.24L298.24,63.5L298.24,63.92L298.25,62.85L298.84,63.1L299.24,63.11L299.25,62.29L299.76,64.94L299.77,64.58L300.17,64.54L300.26,65.95L300.66,65.34L301.07,65.3L301.48,63.81L301.48,63.88L301.89,63.95L301.91,63.79L302.01,65.12L302.43,64.78L302.85,64.81L303.44,65.39L303.45,64.66L303.59,64.9L304.01,64.92L304.33,64.49L304.33,64.56L304.34,63.91L304.44,62.21L304.84,62.82L305.23,62.72L305.38,65.62L305.77,64.15L306.26,64.2L306.26,64.54L306.84,62.42L307.23,62.11L307.42,63.09L307.84,59.26L307.84,60.34L308.24,60.07L308.24,59.59L308.34,61.05L308.97,59.81L309.38,59.26L309.84,55.68L309.84,55.72L310.33,55.75L310.81,62.52L311.24,62.55L311.73,63.24L311.88,63.63L312.37,64.43L312.37,63.11L312.78,63.02L313.51,61.49L313.51,62.11L313.6,62.97L313.83,64.26L314.29,63.94L314.7,63.81L314.7,64.93L315.3,64.71L315.71,63.87L316.21,62.68L316.34,65.63L316.35,65.17L316.79,65.21L316.91,67.5L317.51,64.26L317.52,64.46L317.94,64.46L318.1,65.51L318.17,66.44L318.18,65.88L318.29,68.96L318.78,66.7L319.23,65.89L319.63,63.61L319.64,64.7L320.05,64.36L320.05,61.97L320.46,63.17L320.91,62.9L321.53,64.14L321.54,62.15L321.65,62.43L322.05,62.37L322.52,60.68L322.53,61.1L323.01,60.72L323.95,60.69L323.95,59.85L324.08,59.91L324.63,55.24L325.2,55.31L325.58,59L325.58,59.71L325.58,59.53L326.14,61.29L326.15,60.48L326.59,60.51L326.86,61.04L327.09,56.92L327.34,58.59L327.35,58.32L327.35,57.38L327.47,60.91L328.09,59.55L328.49,59.44L328.94,62.19L328.95,60.51L329.34,60.46L329.76,60.51L329.77,57.87L330.25,57.26L330.75,59.13L331.18,59.07L331.31,58.71L332.3,63.27L332.3,63.76L332.31,64.68L332.32,62.08L332.97,63.59L333.41,63.54L333.43,60.11L334.14,62.27L334.53,62.16L334.62,65.18L335.14,63.69L335.55,63.6L336.17,62.96L336.3,64.3L336.31,63.94L336.32,62.76L336.75,64.93L336.75,64.92L337.26,64.97L337.26,65.95L337.77,61.86L338.19,61.41L338.19,61.09L338.2,63.26L338.92,61.84L339.34,61.86L339.34,62.5L339.84,59.67L340.39,59.68L341.04,57.92L341.48,57.48L342.13,61.85L342.62,61.75L342.62,61.53L343.35,63.41L343.35,63.41L343.78,63.35L343.78,63.52L344.41,62.25L344.49,63.44L345.03,63.68L345.04,64.01L345.59,60.32L345.72,61.73L345.72,61.09L345.73,61.57L346.15,58.8L346.15,58.8L346.56,58.77L346.56,58.39L347.27,60.98L347.51,61.13L347.99,59.73L348.24,64.41L348.24,63.17L348.74,63.18L349.27,62.88L349.74,62.92L350.22,63.08L350.22,62.53L350.23,62.07L350.7,59.12L351.14,58.77L351.81,59.43L351.81,59.75L352.1,59.23L352.18,59.88L352.63,59.35L352.64,57.8L352.66,62.69L353.19,61.23L353.6,61.19L354.49,61.47L354.49,60.92L354.49,60.33L354.5,59.14L354.75,61.16L355.34,61.23L355.34,60.72L355.44,63.11L355.87,62.27L356.22,62.31L356.71,62.87L356.96,62.25L356.96,62.27L357.12,62.5L357.12,62.07L357.86,64.73L357.87,63.73L358.38,63.67L358.93,66.11L358.94,65.83L359.36,65.77L359.36,66.52L359.75,63.33L359.88,64.21L360.14,64.12L360.28,63.64L361.29,68.61L361.29,67.62L361.29,66.66L361.3,67.4L361.43,65.21L361.61,65.37L362.07,65.37L362.07,64.88L362.14,66.15L362.59,65.73L363.01,65.58L363.43,67.68L363.43,67.68L363.91,67.72L364.02,65.34L364.56,69.97L364.57,68.21L364.72,68.11L364.72,66.2L365.16,68.06L365.63,67.16L365.64,64.04L365.99,70.25L365.99,69.95L366.43,70L366.6,69.35L366.71,71.23L367.21,71.19L367.23,70.12L367.69,72.92L368.12,72.95L368.57,74.21L368.58,72.13L368.58,72.67L369.06,72.44L369.07,73.55L369.53,71.45L369.53,71.93L369.98,71.99L369.98,71.62L370.32,75.29L370.73,74.99L370.84,75.74L371.26,78.8L371.4,76.88L371.81,76.67L372.21,75.46L372.21,76.06L372.65,75.22L372.66,75.55L372.79,73.7L373.33,74.49L373.44,75.26L373.97,72.97L373.98,73.9L374.41,73.97L374.95,76.36L374.95,76.31L375.41,75.59L375.41,74.4L375.85,74.75L376.32,74.39L376.8,73.15L377.21,73.18L377.23,69.23L377.48,74.83L377.92,72.86L377.99,73.26L377.99,73.96L378.18,70.75L378.74,72.05L378.75,72.74L379.18,70.79L379.32,73.55L379.32,73.51L379.78,72.9L379.78,72.46L379.92,76.07L380.42,75.37L380.6,75.42L381.01,72.91L381.44,72.91L381.45,72.08L381.47,75.07L381.95,73.27L382.18,73.33L382.79,76.31L382.79,76.31L383.21,75.36L383.21,75.74L383.62,71.48L383.62,72.28L384.09,72.3L384.1,70.38L384.22,77.13L384.87,77.68L384.88,76.99L384.88,77.76L385.34,77.48L385.82,77.5L386.31,76.61L386.6,76.69L386.6,75.86L387.2,78.73L387.2,76.9L387.64,76.19L387.64,75.17L388.31,80.27L388.44,80.9L388.45,79.46L389.09,82.84L389.09,82.59L389.22,83.21L389.75,90.77L389.75,89.77L390.23,88.78L390.23,90.44L390.78,84.69L391.18,84.7L391.2,86.53L391.7,81.47L391.9,83.61L392.42,82.59L392.42,82.94L393.14,78.55L393.14,78.72L393.57,78.52L394.2,75.89L394.2,76.69L394.68,76.74L394.8,78.55L395.33,73.15L395.34,73.51L395.57,73.83L395.98,72.22L395.98,73.12L396.38,73.11L396.71,72.43L397.1,77.36L397.12,75.33L397.53,75.34L397.93,73.32L398.32,73.17L398.44,73.34L398.87,70.48L399.27,70.44L400.01,74.66L400.44,74.63L400.85,73.95L401.07,74.81L401.07,75.06L401.07,76.83L401.32,72.18L401.73,72.26L402.07,72.32L402.51,77.01L402.52,76.39L402.93,75.68L403.01,75.03L403.68,78.53L403.68,77.32L403.82,76.88L404.35,85.84L404.35,85.55L404.76,85.49L404.77,84.52L404.77,86.12L405.19,85.57L405.59,85.49L405.98,88.96L405.99,88.65L406.46,87.77L406.47,87.17L406.57,90.32L407.08,89.46L407.48,88.91L408.34,93.3L408.75,92.85L408.91,96.61L409.32,96.26L409.73,95.66L410.14,94.48L410.39,97.45L410.41,95.9L410.51,96.14L410.52,96.8L410.54,91.7L411.26,94.37L411.36,94.71L412.02,93.54L412.04,100.05L412.12,100.91L412.28,102.83L412.68,102.33L412.68,101.42L412.9,102.33L413.11,98.24L413.12,99.78L413.53,99.79L414.08,98.9L414.09,102.82L414.22,102.01L414.59,101.34L415.39,107.15L415.66,107.47L416.14,102.77L416.32,106.63L416.43,106.99L416.85,108.1L416.86,104.72L417.26,104.81L417.66,104.58L417.78,104.02L417.78,101.6L418.09,105.34L418.2,102.8L418.59,102.74L418.72,101.71L419.11,106.24L419.49,105.29L419.49,105.91L420.03,103.16L420.13,103.82L420.53,103.81L421.08,97.52L421.08,98.89L421.49,98.29L421.59,98.96L421.72,96.48L422.11,97.56L422.11,97.03L422.88,93.64L422.97,95.68L422.97,96.2L423.05,95.47L423.48,100.64L423.72,97.11L423.84,97.59L423.85,99.92L424.24,98.5L424.66,97.99L425.08,103.03L425.33,102.87L425.73,102.9L426.16,107.26L426.26,105.75L426.66,105.78L427.19,104.52L427.2,108.96L427.22,106.14L427.64,106.11L427.89,95.34L428.09,100.33L428.67,99.72L428.79,98.96L429,101.39L429.17,100.85L429.56,100.51L429.95,99.56L429.95,101.35L430.43,100.57L430.7,98.89L431.05,103.28L431.05,101.94L431.46,101.98L431.59,99.25L432.08,104.95L432.09,103.67L432.22,103.94L432.64,101.34L433.25,100.78L433.69,100.9L434.15,100.03L434.16,99.88L434.8,112.47L434.81,110.62L434.95,110.2L434.96,109.55L435.53,112.66L435.66,111.56L435.74,112.49L435.85,113.24L435.85,111.27L435.86,111.64L436.34,110.76L436.84,108.79L436.84,108.8L437.12,108.24L437.13,108.62L437.14,105.98L437.48,106.57L437.94,106.51L437.94,109.1L438.4,104.09L438.81,104.21L438.81,102.87L439.23,105.06L439.34,103.95L439.74,103.92L439.84,104.37L439.84,102.43L440.35,102.36L440.77,99.08L440.88,99.25" style="vector-effect: non-scaling-stroke; fill: none; stroke: rgb(239, 85, 59); stroke-opacity: 1; stroke-width: 2px; opacity: 1;"/></g><g class="points"/><g class="text"/></g><g class="trace scatter trace44a9c0" style="stroke-miterlimit: 2; opacity: 1;"><g class="fills"/><g class="errorbars"/><g class="lines"><path class="js-line" d="M0.01,120.17L0.55,120.17L0.8,68.12L1.3,68.12L1.7,38.64L5.29,38.64L5.64,19.9L6.66,19.9L7.01,14.52L198.12,14.5L198.12,14.5L198.57,12.49L314.29,11.87L314.29,11.87L314.7,9.36L440.88,9.3L440.88,9.3" style="vector-effect: non-scaling-stroke; fill: none; stroke: rgb(239, 85, 59); stroke-opacity: 1; stroke-width: 2px; opacity: 1; stroke-dasharray: 9px, 9px;"/></g><g class="points"/><g class="text"/></g><g class="trace scatter trace9f840f" style="stroke-miterlimit: 2; opacity: 1;"><g class="fills"/><g class="errorbars"/><g class="lines"><path class="js-line" d="M36.09,59.45L36.81,57.93L37.15,57.66L39.55,55.99L39.9,55.02L42,53.96L42.35,53.02L43.02,51.83L43.03,51.54L43.39,51.38L43.72,50.41L45.9,48.67L45.9,47.79L46.58,46.99L46.92,46.66L50.78,43.85L51.15,43.03L56.54,39.92L56.54,39.68L56.88,39.35L56.98,39.71L57.33,39.3L59.08,38L59.42,37.59L61.49,36.14L61.83,35.93L66.19,33.83L66.53,33.62L68.96,32.14L68.96,31.68L71.12,31.62L71.46,31.58L75.4,30.74L75.74,30.69L78.12,30.98L78.46,30.99L81.59,30.25L81.59,30.25L81.59,30.03L85.92,29.34L86.25,29.19L86.61,29.23L86.66,30.21L96.9,29.85L97.24,29.75L99.98,30.05L100.56,30.12L128.67,29.8L128.67,29.8L128.67,29.75L132.29,29.62L132.29,29.58L132.66,29.11L137.87,29.41L137.87,29.62L141.27,30.24L141.66,30.28L142.03,30.24L142.13,31.07L145.55,31L146.11,31.26L147.16,30.49L147.16,30.66L147.56,30.67L154.2,30.94L154.75,31.36L164.46,31.42L164.46,31.5L165.01,31.85L166.42,32.3L166.42,32.31L167.1,32.75L168.78,32.8L168.86,33.6L170.61,33.9L171,33.85L177.85,34L177.93,34.94L178.57,35.26L179.04,35.29L183.08,34.71L183.16,35.55L183.62,35.53L183.62,35.53L183.7,36.52L185.1,36.44L185.58,36.52L186.06,37.44L186.45,37.43L190.66,37.24L191.05,37.24L193.48,37.36L193.56,38.36L196.28,37.91L196.37,38.86L197.48,38.62L197.56,39.41L198.33,39.18L198.4,40.11L199.92,39.94L199.92,39.12L209.45,38.64L209.55,39.36L211.1,39.02L211.1,38.94L211.48,38.83L212.51,40.8L212.9,40.81L216.47,41L216.47,40.94L216.86,40.63L217.52,43.15L217.89,43.15L218.27,43.11L218.36,43.9L220.67,43.34L220.76,44.04L221.9,43.45L222.27,43.44L223.16,43.96L223.54,43.14L223.92,42.62L224.4,43.19L224.4,43.24L224.88,43.76L225.26,43.76L226.88,44.24L226.96,44.81L228.88,44.22L228.98,44.84L229.88,45.34L230.26,45.34L231,44.5L231.39,44.51L232.94,44.93L232.94,45.32L234.93,46.04L234.93,45.12L235.41,45.81L235.83,44.9L236.99,44.51L237.37,43.52L243.68,44.1L243.84,44.49L245.47,44.26L245.47,44.27L245.47,43.26L246.06,43.59L246.46,43.56L249.04,43.66L249.44,42.74L249.94,43.05L250.31,42.11L252.38,42.35L252.47,42.96L255.76,43.15L255.87,43.57L257.53,44.13L257.53,44.16L257.54,45.09L258.47,45.31L258.87,45.27L260.38,45.34L260.39,46.3L261.2,46.32L261.61,45.56L264.35,45.17L264.74,44.4L269.08,43.54L269.08,43.54L269.2,43.96L269.3,44.44L269.74,43.61L269.85,43.32L270.69,42.68L270.69,42.68L271.12,42.74L271.53,42.83L271.96,42.1L273.8,41.96L273.81,41.8L274.25,41.2L275.97,41.55L276.36,41.55L277.95,41.08L277.95,40.58L278.49,40.97L278.96,41.01L280.36,41.38L280.36,40.77L280.75,40.21L283.24,40.7L283.24,40.08L283.64,39.67L284.06,39.67L285.8,39.33L286.25,39.32L287.6,39.63L288.03,39.27L290.98,37.87L290.98,37.79L294.04,38.28L294.04,38.28L294.62,38.67L298.41,38.22L298.48,39.21L304.63,38.64L305,38.07L306.82,37.95L306.82,37.95L306.83,38.57L307.7,40.17L307.7,40.17L308.1,40.16L308.86,40.49L309.23,39.89L310.15,40.6L310.22,41.21L312.79,41.28L313.16,40.7L314.26,40.71L314.62,39.75L314.62,40.07L314.62,39.53L315.34,39.53L315.72,39.6L316.55,40.24L316.9,39.27L318.79,39.75L319.17,39.75L319.53,39.11L319.53,38.75L321.89,39.35L321.97,39.94L323.04,40.47L323.14,40.77L323.5,40.77L323.5,40.34L323.86,39.83L323.94,40.36L324.36,40.29L324.72,40.2L328.86,40.08L328.95,40.7L330.55,40.59L330.62,41.21L333.12,40.5L333.48,40.2L337.16,40.33L337.24,40.86L341.18,41.38L341.28,41.75L343.15,42.46L343.49,42.51L347.23,42.3L347.23,42.3L347.3,42.9L347.74,43.51L347.74,42.51L347.99,42.76L348.1,43.03L349.28,44.91L349.38,45.22L351.01,47.68L351.21,47.21L351.21,46.2L351.58,45.57L352.16,46.07L352.35,45.59L352.83,46.01L353.07,45.53L353.24,45.11L353.25,44.43L353.84,44.54L354.04,44.75L356.07,46.27L356.45,45.66L356.81,45.59L361.2,45.6L361.28,46.13L363.54,45.76L363.71,45.37L365.34,45.21L365.75,44.64L365.94,44.87L366.34,44.37L366.74,44.42L370.8,44.67L371.15,44.4L372.28,43.71L372.28,43.71L372.28,43.16L373.68,43.47L373.75,44.03L375.31,44.64L375.39,45.14L378.3,44.81L378.64,44.45L379.81,44.19L379.92,44.55L381.72,43.96L381.72,43.93L381.72,43.85L383.52,43.43L383.88,43.05L385.86,43.14L386.2,43.26L390.22,43.22L390.58,42.71L391.65,42.15L391.65,42.15L391.99,41.95L400.24,36.51L400.32,36.86L408.35,33.63L408.35,33.13L411.15,33.11L411.5,32.98L413.67,32.99L413.67,32.36L414.04,31.79L416.24,31.78L416.59,31.52L421.72,31.54L421.8,32.18L423.66,32.91L424.04,33L425.58,32.6L425.93,32.08L427.79,31.57L428.13,31.58L431.32,31.57L431.67,31.62L432.37,31.04L432.72,30.69L433.5,31.42L433.86,31.46L435.36,32L435.44,32.61L438.84,32.72L438.93,33.6L439.86,33.94L440.22,33.31L441,33.39" style="vector-effect: non-scaling-stroke; fill: none; stroke: rgb(0, 204, 150); stroke-opacity: 1; stroke-width: 2px; opacity: 1;"/></g><g class="points"/><g class="text"/></g><g class="trace scatter trace36ad3d" style="stroke-miterlimit: 2; opacity: 1;"><g class="fills"/><g class="errorbars"/><g class="lines"><path class="js-line" d="M0,136.24L0.87,61.2L1.05,55.94L1.98,54.99L2.13,47.6L3.28,45.19L3.4,45.19L16.6,45.19L16.96,29.15L18,22.05L18.34,22.05L19.02,22.05L19.02,22.05L19.38,21.04L69.65,20.54L69.99,19.86L441,19.48" style="vector-effect: non-scaling-stroke; fill: none; stroke: rgb(0, 204, 150); stroke-opacity: 1; stroke-width: 2px; opacity: 1; stroke-dasharray: 9px, 9px;"/></g><g class="points"/><g class="text"/></g></g></g><g class="overplot"/><path class="xlines-above crisp" d="M79,270.5H521" style="fill: none; stroke-width: 1px; stroke: rgb(36, 36, 36); stroke-opacity: 1;"/><path class="ylines-above crisp" d="M79.5,100V270" style="fill: none; stroke-width: 1px; stroke: rgb(36, 36, 36); stroke-opacity: 1;"/><g class="overlines-above"/><g class="xaxislayer-above"><path class="xtick ticks crisp" d="M0,271v5" transform="translate(212.3,0)" style="stroke: rgb(68, 68, 68); stroke-opacity: 1; stroke-width: 1px;"/><path class="xtick ticks crisp" d="M0,271v5" transform="translate(344.71,0)" style="stroke: rgb(68, 68, 68); stroke-opacity: 1; stroke-width: 1px;"/><path class="xtick ticks crisp" d="M0,271v5" transform="translate(477.13,0)" style="stroke: rgb(68, 68, 68); stroke-opacity: 1; stroke-width: 1px;"/><g class="xtick"><text text-anchor="middle" x="0" y="290.4" transform="translate(212.3,0)" style="font-family: Arial, monospace; font-size: 12px; fill: rgb(36, 36, 36); fill-opacity: 1; white-space: pre; opacity: 1;">50</text></g><g class="xtick"><text text-anchor="middle" x="0" y="290.4" style="font-family: Arial, monospace; font-size: 12px; fill: rgb(36, 36, 36); fill-opacity: 1; white-space: pre; opacity: 1;" transform="translate(344.71,0)">100</text></g><g class="xtick"><text text-anchor="middle" x="0" y="290.4" style="font-family: Arial, monospace; font-size: 12px; fill: rgb(36, 36, 36); fill-opacity: 1; white-space: pre; opacity: 1;" transform="translate(477.13,0)">150</text></g></g><g class="yaxislayer-above"><path class="ytick ticks crisp" d="M79,0h-5" transform="translate(0,251.25)" style="stroke: rgb(68, 68, 68); stroke-opacity: 1; stroke-width: 1px;"/><path class="ytick ticks crisp" d="M79,0h-5" transform="translate(0,210.76999999999998)" style="stroke: rgb(68, 68, 68); stroke-opacity: 1; stroke-width: 1px;"/><path class="ytick ticks crisp" d="M79,0h-5" transform="translate(0,170.29000000000002)" style="stroke: rgb(68, 68, 68); stroke-opacity: 1; stroke-width: 1px;"/><path class="ytick ticks crisp" d="M79,0h-5" transform="translate(0,129.81)" style="stroke: rgb(68, 68, 68); stroke-opacity: 1; stroke-width: 1px;"/><g class="ytick"><text text-anchor="end" x="71.6" y="4.199999999999999" transform="translate(0,251.25)" style="font-family: Arial, monospace; font-size: 12px; fill: rgb(36, 36, 36); fill-opacity: 1; white-space: pre; opacity: 1;">−1500</text></g><g class="ytick"><text text-anchor="end" x="71.6" y="4.199999999999999" style="font-family: Arial, monospace; font-size: 12px; fill: rgb(36, 36, 36); fill-opacity: 1; white-space: pre; opacity: 1;" transform="translate(0,210.76999999999998)">−1000</text></g><g class="ytick"><text text-anchor="end" x="71.6" y="4.199999999999999" style="font-family: Arial, monospace; font-size: 12px; fill: rgb(36, 36, 36); fill-opacity: 1; white-space: pre; opacity: 1;" transform="translate(0,170.29000000000002)">−500</text></g><g class="ytick"><text text-anchor="end" x="71.6" y="4.199999999999999" style="font-family: Arial, monospace; font-size: 12px; fill: rgb(36, 36, 36); fill-opacity: 1; white-space: pre; opacity: 1;" transform="translate(0,129.81)">0</text></g></g><g class="overaxes-above"/></g></g><g class="polarlayer"/><g class="smithlayer"/><g class="ternarylayer"/><g class="geolayer"/><g class="funnelarealayer"/><g class="pielayer"/><g class="iciclelayer"/><g class="treemaplayer"/><g class="sunburstlayer"/><g class="glimages"/><defs id="topdefs-8ab545"><g class="clips"/><clipPath id="legend8ab545"><rect width="158" height="124" x="0" y="0"/></clipPath></defs><g class="layer-above"><g class="imagelayer"/><g class="shapelayer"/></g><g class="infolayer"><g class="legend" pointer-events="all" transform="translate(529.8199999999999,100)"><rect class="bg" shape-rendering="crispEdges" style="stroke: rgb(68, 68, 68); stroke-opacity: 1; fill: rgb(255, 255, 255); fill-opacity: 1; stroke-width: 0px;" width="158" height="124" x="0" y="0"/><g class="scrollbox" transform="" clip-path="url(#legend8ab545)"><g class="groups"><g class="traces" transform="translate(0,14.5)" style="opacity: 1;"><text class="legendtext" text-anchor="start" x="40" y="4.680000000000001" style="font-family: Arial, monospace; font-size: 12px; fill: rgb(36, 36, 36); fill-opacity: 1; white-space: pre;">Anneal mean fitness</text><g class="layers" style="opacity: 1;"><g class="legendfill"/><g class="legendlines"><path class="js-line" d="M5,0h30" style="fill: none; stroke: rgb(99, 110, 250); stroke-opacity: 1; stroke-width: 2px;"/></g><g class="legendsymbols"><g class="legendpoints"/></g></g><rect class="legendtoggle" x="0" y="-9.5" width="152.0625" height="19" style="fill: rgb(0, 0, 0); fill-opacity: 0;"/></g><g class="traces" transform="translate(0,33.5)" style="opacity: 1;"><text class="legendtext" text-anchor="start" x="40" y="4.680000000000001" style="font-family: Arial, monospace; font-size: 12px; fill: rgb(36, 36, 36); fill-opacity: 1; white-space: pre;">Anneal max fitness</text><g class="layers" style="opacity: 1;"><g class="legendfill"/><g class="legendlines"><path class="js-line" d="M5,0h30" style="fill: none; stroke: rgb(99, 110, 250); stroke-opacity: 1; stroke-dasharray: 9px, 9px; stroke-width: 2px;"/></g><g class="legendsymbols"><g class="legendpoints"/></g></g><rect class="legendtoggle" x="0" y="-9.5" width="152.0625" height="19" style="fill: rgb(0, 0, 0); fill-opacity: 0;"/></g><g class="traces" transform="translate(0,52.5)" style="opacity: 1;"><text class="legendtext" text-anchor="start" x="40" y="4.680000000000001" style="font-family: Arial, monospace; font-size: 12px; fill: rgb(36, 36, 36); fill-opacity: 1; white-space: pre;">NSGA2 mean fitness</text><g class="layers" style="opacity: 1;"><g class="legendfill"/><g class="legendlines"><path class="js-line" d="M5,0h30" style="fill: none; stroke: rgb(239, 85, 59); stroke-opacity: 1; stroke-width: 2px;"/></g><g class="legendsymbols"><g class="legendpoints"/></g></g><rect class="legendtoggle" x="0" y="-9.5" width="152.0625" height="19" style="fill: rgb(0, 0, 0); fill-opacity: 0;"/></g><g class="traces" transform="translate(0,71.5)" style="opacity: 1;"><text class="legendtext" text-anchor="start" x="40" y="4.680000000000001" style="font-family: Arial, monospace; font-size: 12px; fill: rgb(36, 36, 36); fill-opacity: 1; white-space: pre;">NSGA2 max fitness</text><g class="layers" style="opacity: 1;"><g class="legendfill"/><g class="legendlines"><path class="js-line" d="M5,0h30" style="fill: none; stroke: rgb(239, 85, 59); stroke-opacity: 1; stroke-dasharray: 9px, 9px; stroke-width: 2px;"/></g><g class="legendsymbols"><g class="legendpoints"/></g></g><rect class="legendtoggle" x="0" y="-9.5" width="152.0625" height="19" style="fill: rgb(0, 0, 0); fill-opacity: 0;"/></g><g class="traces" transform="translate(0,90.5)" style="opacity: 1;"><text class="legendtext" text-anchor="start" x="40" y="4.680000000000001" style="font-family: Arial, monospace; font-size: 12px; fill: rgb(36, 36, 36); fill-opacity: 1; white-space: pre;">Tabu mean fitness</text><g class="layers" style="opacity: 1;"><g class="legendfill"/><g class="legendlines"><path class="js-line" d="M5,0h30" style="fill: none; stroke: rgb(0, 204, 150); stroke-opacity: 1; stroke-width: 2px;"/></g><g class="legendsymbols"><g class="legendpoints"/></g></g><rect class="legendtoggle" x="0" y="-9.5" width="152.0625" height="19" style="fill: rgb(0, 0, 0); fill-opacity: 0;"/></g><g class="traces" transform="translate(0,109.5)" style="opacity: 1;"><text class="legendtext" text-anchor="start" x="40" y="4.680000000000001" style="font-family: Arial, monospace; font-size: 12px; fill: rgb(36, 36, 36); fill-opacity: 1; white-space: pre;">Tabu max fitness</text><g class="layers" style="opacity: 1;"><g class="legendfill"/><g class="legendlines"><path class="js-line" d="M5,0h30" style="fill: none; stroke: rgb(0, 204, 150); stroke-opacity: 1; stroke-dasharray: 9px, 9px; stroke-width: 2px;"/></g><g class="legendsymbols"><g class="legendpoints"/></g></g><rect class="legendtoggle" x="0" y="-9.5" width="152.0625" height="19" style="fill: rgb(0, 0, 0); fill-opacity: 0;"/></g></g></g><rect class="scrollbar" rx="20" ry="3" width="0" height="0" style="fill: rgb(128, 139, 164); fill-opacity: 1;" x="0" y="0"/></g><g class="g-gtitle"/><g class="g-xtitle"><text class="xtitle" x="300.5" y="318.20625" text-anchor="middle" style="font-family: Arial, monospace; font-size: 14px; fill: rgb(36, 36, 36); opacity: 1; font-weight: normal; white-space: pre;">time in minutes</text></g><g class="g-ytitle"><text class="ytitle" transform="rotate(-90,13.090625000000003,185)" x="13.090625000000003" y="185" text-anchor="middle" style="font-family: Arial, monospace; font-size: 14px; fill: rgb(36, 36, 36); opacity: 1; font-weight: normal; white-space: pre;">fitness</text></g></g></svg>