<svg xmlns="http://www.w3.org/2000/svg" xmlns:xlink="http://www.w3.org/1999/xlink" xmlns:lucid="lucid" width="352" height="87.89"><g transform="translate(-568.0000000000001 -400)" lucid:page-tab-id="0_0"><path d="M568 406a6 6 0 0 1 6-6h340a6 6 0 0 1 6 6v75.9a6 6 0 0 1-6 6H574a6 6 0 0 1-6-6z" stroke="#000" stroke-opacity="0" stroke-width="2" fill="#fff" fill-opacity="0"/><use xlink:href="#a" transform="matrix(1,0,0,1,573.0000000000001,405) translate(-2.2111111111108244 57.88888888888886)"/><defs><path fill="#6db1ff" d="M505-580c76 0 138 62 138 138v304C643-62 581 0 505 0H185v230H54v-810h451zm7 442v-304c0-4-3-7-7-7H192c-4 0-7 3-7 7v304c0 4 3 7 7 7h313c4 0 7-3 7-7" id="b"/><path fill="#6db1ff" d="M190-580h322v131H190c-4 0-7 3-7 7V0H52v-442c0-76 62-138 138-138" id="c"/><path fill="#6db1ff" d="M189-580h313c76 0 138 62 138 138v304C640-62 578 0 502 0H189C113 0 51-62 51-138v-304c0-76 62-138 138-138zm313 131H189c-4 0-7 3-7 7v304c0 4 3 7 7 7h313c4 0 7-3 7-7v-304c0-4-3-7-7-7" id="d"/><path fill="#6db1ff" d="M482-770h131V0H161C85 0 23-62 23-138v-304c0-76 62-138 138-138h321v-190zM161-131h314c4 0 7-3 7-7v-304c0-4-3-7-7-7H161c-4 0-6 3-6 7v304c0 4 2 7 6 7" id="e"/><path fill="#6db1ff" d="M499-580c85 2 147 69 138 163H506c-2-11 5-32-7-32H186c-4 0-7 3-7 7v80c0 4 3 6 7 6h313c77 0 138 62 138 138v80C637-62 576 0 499 0H186C102-2 39-69 48-163h131c2 11-5 32 7 32h313c4 0 7-3 7-7v-80c0-4-3-6-7-6H186c-76 0-138-62-138-138v-80c0-76 62-138 138-138h313" id="f"/><path fill="#6db1ff" d="M631 92c0 76-61 138-137 138H139V98h355c3 0 6-2 6-6V0H180C104 0 42-62 42-138v-440h131v440c0 4 3 7 7 7h314c3 0 6-3 6-7v-440h131V92" id="g"/><g id="a"><use transform="matrix(0.07555555555555543,0,0,0.07555555555555543,0,0)" xlink:href="#b"/><use transform="matrix(0.07555555555555543,0,0,0.07555555555555543,50.16888888888881,0)" xlink:href="#c"/><use transform="matrix(0.07555555555555543,0,0,0.07555555555555543,90.06222222222208,0)" xlink:href="#d"/><use transform="matrix(0.07555555555555543,0,0,0.07555555555555543,142.34666666666644,0)" xlink:href="#e"/><use transform="matrix(0.07555555555555543,0,0,0.07555555555555543,192.74222222222193,0)" xlink:href="#f"/><use transform="matrix(0.07555555555555543,0,0,0.07555555555555543,244.57333333333295,0)" xlink:href="#g"/><use transform="matrix(0.07555555555555543,0,0,0.07555555555555543,294.59111111111065,0)" xlink:href="#f"/></g></defs></g></svg>